<svg xmlns="http://www.w3.org/2000/svg" viewBox="0 0 155 155"><defs><style>.cls-1{fill:#fff;}.cls-2{fill:#a8c224;}.cls-3{fill:#113c57;}</style></defs><g id="Layer_2" data-name="Layer 2"><g id="Layer_1-2" data-name="Layer 1"><g id="logo"><circle class="cls-1" cx="77.5" cy="77.5" r="77.5"/><g id="logo-2" data-name="logo"><g id="bottom"><polygon class="cls-2" points="132.76 104.58 89.65 105.07 89.65 104.1 132.76 104.58"/><polygon class="cls-2" points="22.18 104.58 65.26 104.1 65.26 105.07 22.18 104.58"/><path class="cls-3" d="M68.49,105.27l.28-.39a1.06,1.06,0,0,0,.77.33c.28,0,.42-.13.42-.27,0-.43-1.39-.13-1.39-1,0-.41.35-.74.92-.74a1.31,1.31,0,0,1,.94.34l-.29.37a1,1,0,0,0-.7-.26c-.22,0-.34.1-.34.24,0,.39,1.39.13,1.39,1,0,.45-.32.78-1,.78A1.39,1.39,0,0,1,68.49,105.27Zm2.29-1.87a.27.27,0,0,1,.27-.27.27.27,0,1,1,0,.54A.27.27,0,0,1,70.78,103.4Zm0,2.22v-1.76h.46v1.76Zm2.1,0v-1.06c0-.25-.12-.33-.32-.33a.5.5,0,0,0-.4.21v1.18h-.46v-1.76h.46v.23a.84.84,0,0,1,.62-.27.51.51,0,0,1,.57.56v1.24Zm.81-.88a.89.89,0,0,1,.93-.92.82.82,0,0,1,.69.31l-.3.29a.41.41,0,0,0-.37-.19.46.46,0,0,0-.47.51.47.47,0,0,0,.47.51.43.43,0,0,0,.37-.19l.3.28a.8.8,0,0,1-.69.32A.89.89,0,0,1,73.73,104.74Zm1.81,0a.9.9,0,0,1,.91-.92.88.88,0,0,1,.88,1v.11H76a.46.46,0,0,0,.5.4.73.73,0,0,0,.47-.17l.2.3a1.08,1.08,0,0,1-.72.24A.89.89,0,0,1,75.54,104.74Zm.91-.55a.41.41,0,0,0-.43.38h.86A.41.41,0,0,0,76.45,104.19Zm2.65,1.43v-1.76l-.4.41-.3-.31.76-.77h.46v2.43Zm1-.21.23-.4a.66.66,0,0,0,.48.19.63.63,0,0,0,.61-.68v-.06a.82.82,0,0,1-.63.31A.77.77,0,0,1,80,104a.86.86,0,0,1,.93-.84c.74,0,1,.57,1,1.26a1.11,1.11,0,0,1-1.12,1.25A1.07,1.07,0,0,1,80.1,105.41Zm1.31-1.3a.49.49,0,0,0-.49-.5.39.39,0,0,0-.43.36c0,.25.22.36.45.36A.6.6,0,0,0,81.41,104.11Zm.78.88a.69.69,0,0,1,.52-.62.61.61,0,0,1-.48-.57c0-.46.48-.64.93-.64s.93.18.93.64a.61.61,0,0,1-.48.57.69.69,0,0,1,.52.62c0,.45-.46.67-1,.67S82.19,105.44,82.19,105Zm1.42-.07c0-.2-.3-.3-.45-.32s-.45.12-.45.32.2.3.45.3S83.61,105.1,83.61,104.92Zm0-1c0-.18-.17-.28-.41-.28s-.41.1-.41.28.26.26.41.28S83.57,104.06,83.57,103.88Zm.81.53a1.12,1.12,0,0,1,1.13-1.25,1.1,1.1,0,0,1,.72.25l-.23.39a.66.66,0,0,0-.49-.18.63.63,0,0,0-.6.68v0a.8.8,0,0,1,.62-.31.77.77,0,0,1,.83.79.86.86,0,0,1-.93.83C84.69,105.66,84.38,105.09,84.38,104.41Zm1.45.44c0-.26-.21-.37-.45-.37a.63.63,0,0,0-.47.23.48.48,0,0,0,.49.49A.38.38,0,0,0,85.83,104.85Z"/></g><g id="slogan"><rect class="cls-3" x="94.75" y="98.69" width="0.49" height="0.5"/><rect class="cls-3" x="95.59" y="98.69" width="0.49" height="0.5"/><rect class="cls-3" x="102.21" y="94.52" width="0.49" height="0.5"/><rect class="cls-3" x="101.36" y="94.52" width="0.49" height="0.5"/><path class="cls-3" d="M102,95.39a1,1,0,0,0-1,1,1,1,0,0,0,.13.53h-1v-.12a1.08,1.08,0,0,0-.27-.75,1,1,0,0,0-1.45,0,1,1,0,0,0-.28.74.61.61,0,0,0,0,.14h-.53c-.26,0-.43-.12-.62-.46a1,1,0,0,0-.88-.53h-.2v.46H96a.44.44,0,0,1,.45.47.94.94,0,0,1-1,.84,1,1,0,0,1-1.05-1.12v-.44h-.5v.5a1.52,1.52,0,0,0,1.54,1.54,1.42,1.42,0,0,0,1.46-1.13.79.79,0,0,0,.77.39h.69a.92.92,0,0,0,.79.39.94.94,0,0,0,.81-.39H102a1,1,0,0,0,1-1A1,1,0,0,0,102,95.39ZM99.5,97.22a.41.41,0,0,1-.35.17.54.54,0,0,1-.51-.59.62.62,0,0,1,.12-.39.43.43,0,0,1,.36-.18.44.44,0,0,1,.38.19.65.65,0,0,1,.12.4A.63.63,0,0,1,99.5,97.22ZM102,97a.53.53,0,0,1-.5-.58c0-.35.19-.57.48-.57a.53.53,0,0,1,.5.59A.5.5,0,0,1,102,97Z"/><path class="cls-3" d="M105.85,96.49a1,1,0,0,1,0,.32c0,.1-.15.14-.32.14h-1V95.44H104v1.7c0,.43-.2.64-.62.64v.42c.61,0,1-.26,1.09-.74h1.15c.5,0,.75-.26.75-.8V94.59h-.5Z"/><rect class="cls-3" x="106.81" y="94.58" width="0.5" height="2.88"/><path class="cls-3" d="M111,96.62a.92.92,0,1,1-1.81,0v-.38h-.5v.44a1.41,1.41,0,1,0,2.82,0V94.59H111Z"/><rect class="cls-3" x="117.74" y="94.53" width="0.49" height="0.5"/><rect class="cls-3" x="118.59" y="94.53" width="0.49" height="0.5"/><path class="cls-3" d="M120.46,96.49a1,1,0,0,1,0,.32c0,.1-.15.14-.31.14H119a.83.83,0,0,0,.11-.51v-1h-.5v1a.71.71,0,0,1,0,.34c0,.11-.15.15-.3.15h-.8a1.54,1.54,0,0,0-.67-1.3,1.59,1.59,0,0,0-.82-.21,1.51,1.51,0,0,0-.58.12,1.61,1.61,0,0,0-.48.32l.24.39a1.15,1.15,0,0,1,.4-.28.93.93,0,0,1,.38-.08.91.91,0,0,1,.76.34,1.06,1.06,0,0,1,.23.7h-3.07v-.51a.93.93,0,0,0-.93-1,1,1,0,0,0-1,1,1,1,0,0,0,1,1h.48a.46.46,0,0,1-.5.35v.39c.58,0,.91-.25,1-.74h6.38c.5,0,.75-.26.75-.8V94.59h-.5Zm-7.14.46h-.44a.51.51,0,0,1-.48-.55.47.47,0,0,1,.48-.51.44.44,0,0,1,.44.45Z"/><rect class="cls-3" x="121.42" y="94.58" width="0.5" height="2.88"/><path class="cls-3" d="M128.08,96.49a.79.79,0,0,1,0,.32c0,.1-.15.14-.31.14h-.47c-.37,0-.56-.17-.77-.87a.93.93,0,0,0-.93-.65h-1.24c-.67,0-1,.47-1,1.19V98.2h.5V96.72c0-.48.21-.78.55-.78h.36a1.11,1.11,0,0,0-.12.52,1,1,0,0,0,1,1.05.92.92,0,0,0,.82-.41,1.27,1.27,0,0,0,.89.36h.56c.5,0,.75-.26.75-.8V94.59h-.5Zm-2.5.56a.54.54,0,0,1-.51-.59.51.51,0,0,1,.48-.57.53.53,0,0,1,.5.59A.51.51,0,0,1,125.58,97.05Z"/><path class="cls-3" d="M131.43,97a.7.7,0,0,1-.16-.47.76.76,0,0,1,.12-.44.46.46,0,0,1,.38-.19.45.45,0,0,1,.47.34l.43-.2a.92.92,0,0,0-.87-.58,1,1,0,0,0-.75.31,1.11,1.11,0,0,0-.28.77,1,1,0,0,0,.1.46h-.81a.66.66,0,0,1-.38-.07.49.49,0,0,1-.15-.43V94.59H129v2.06a.86.86,0,0,0,.18.58.66.66,0,0,0,.55.23h2.92V97Z"/><path class="cls-3" d="M23,98V95.62h-.86v-.55h2.33v.55h-.85V98Zm3.3,0V96.71c0-.29-.16-.39-.4-.39a.63.63,0,0,0-.48.25V98h-.56V95.07h.56v1.09a.94.94,0,0,1,.74-.33.61.61,0,0,1,.69.66V98Zm1-1.06a1.07,1.07,0,0,1,1.1-1.11A1.06,1.06,0,0,1,29.45,97v.13H27.87a.57.57,0,0,0,.61.49.93.93,0,0,0,.57-.21l.24.36a1.32,1.32,0,0,1-.87.29A1.07,1.07,0,0,1,27.29,96.94Zm1.1-.67a.52.52,0,0,0-.53.47h1.05A.49.49,0,0,0,28.39,96.27ZM33.23,98l-.52-2-.51,2h-.66l-.84-2.93h.7l.51,2.12.56-2.12H33l.55,2.12L34,95.07h.7L33.89,98Zm1.46-1.06a1.12,1.12,0,1,1,1.12,1.11A1.07,1.07,0,0,1,34.69,96.94Zm1.67,0a.57.57,0,0,0-.55-.62.63.63,0,0,0,0,1.24A.57.57,0,0,0,36.36,96.94Zm1,1.06V95.88h.55v.29a.92.92,0,0,1,.68-.34v.54h-.15a.72.72,0,0,0-.53.24V98Zm1.58,0V95.07h.55V98Zm2.56,0v-.27a.81.81,0,0,1-.65.32c-.53,0-.94-.4-.94-1.11a1,1,0,0,1,.94-1.11.81.81,0,0,1,.65.32V95.07h.57V98Zm0-.68v-.75a.58.58,0,0,0-.48-.25.63.63,0,0,0,0,1.24A.6.6,0,0,0,41.49,97.32Zm2.11-.38a1.12,1.12,0,1,1,1.11,1.11A1.07,1.07,0,0,1,43.6,96.94Zm1.66,0a.57.57,0,0,0-.55-.62.63.63,0,0,0,0,1.24A.57.57,0,0,0,45.26,96.94ZM46.37,98V96.37H46v-.49h.35v-.11a.68.68,0,0,1,.72-.74.72.72,0,0,1,.55.2l-.21.33a.3.3,0,0,0-.23-.09c-.15,0-.26.1-.26.3v.11h.43v.49h-.43V98Zm2.45,0V95.07H50A1.47,1.47,0,1,1,50,98Zm2.07-1.46a.85.85,0,0,0-.91-.92h-.53v1.83H50A.87.87,0,0,0,50.89,96.54Zm1-1.22a.34.34,0,0,1,.34-.33.33.33,0,0,1,.33.33.33.33,0,0,1-.33.33A.34.34,0,0,1,51.9,95.32ZM52,98V95.88h.56V98Zm1.07.54.25-.4a.83.83,0,0,0,.66.26.51.51,0,0,0,.58-.53v-.22a.82.82,0,0,1-.65.34,1,1,0,0,1-.94-1.08c0-.7.4-1.08.94-1.08a.82.82,0,0,1,.65.32v-.27h.56v2c0,.81-.62,1-1.14,1A1.23,1.23,0,0,1,53,98.54Zm1.49-1.29v-.68a.58.58,0,0,0-.48-.25.59.59,0,0,0,0,1.17A.6.6,0,0,0,54.52,97.25Zm1.06-1.93a.34.34,0,0,1,.67,0,.34.34,0,0,1-.67,0ZM55.64,98V95.88h.55V98Zm1.22-.53v-1.1h-.35v-.49h.35V95.3h.56v.58h.43v.49h-.43v.95c0,.14.07.24.19.24a.31.31,0,0,0,.19-.06l.12.42a.7.7,0,0,1-.46.13A.53.53,0,0,1,56.86,97.47ZM59.5,98v-.22a.86.86,0,0,1-.67.27.71.71,0,0,1-.74-.7.67.67,0,0,1,.74-.68.89.89,0,0,1,.67.25v-.28c0-.22-.18-.36-.46-.36a.92.92,0,0,0-.62.25l-.21-.37a1.37,1.37,0,0,1,.92-.33c.49,0,.93.19.93.8V98Zm0-.51v-.26a.52.52,0,0,0-.44-.19c-.22,0-.4.12-.4.32s.18.31.4.31A.54.54,0,0,0,59.5,97.49Zm1.11.51V95.07h.56V98Zm2.93,0V95.62h-.86v-.55H65v.55h-.85V98Zm1.56,0V95.88h.56v.29a.9.9,0,0,1,.67-.34v.54h-.15a.69.69,0,0,0-.52.24V98ZM68,98v-.22a.86.86,0,0,1-.67.27.7.7,0,0,1-.73-.7.67.67,0,0,1,.73-.68.89.89,0,0,1,.67.25v-.28c0-.22-.18-.36-.46-.36a.92.92,0,0,0-.62.25l-.21-.37a1.38,1.38,0,0,1,.93-.33c.48,0,.92.19.92.8V98Zm0-.51v-.26a.52.52,0,0,0-.44-.19c-.22,0-.4.12-.4.32s.18.31.4.31A.54.54,0,0,0,68,97.49Zm2.54.51V96.72c0-.3-.15-.4-.39-.4a.61.61,0,0,0-.48.25V98h-.56V95.88h.56v.28a1,1,0,0,1,.74-.33.61.61,0,0,1,.69.67V98Zm.93-.28.24-.39a1.2,1.2,0,0,0,.73.29c.25,0,.36-.09.36-.23,0-.35-1.26-.06-1.26-.9,0-.35.31-.66.87-.66a1.37,1.37,0,0,1,.86.29L73,96.5a.89.89,0,0,0-.63-.25c-.2,0-.33.1-.33.21,0,.32,1.26.06,1.26.91,0,.39-.33.68-.92.68A1.4,1.4,0,0,1,71.42,97.72Zm2.4.28V96.37h-.35v-.49h.35v-.11a.68.68,0,0,1,.72-.74.74.74,0,0,1,.55.2l-.21.33a.3.3,0,0,0-.23-.09c-.16,0-.27.1-.27.3v.11h.43v.49h-.43V98ZM75,96.94a1.12,1.12,0,1,1,1.12,1.11A1.07,1.07,0,0,1,75,96.94Zm1.66,0a.56.56,0,0,0-.54-.62.63.63,0,0,0,0,1.24A.56.56,0,0,0,76.66,96.94Zm1,1.06V95.88h.56v.29a.9.9,0,0,1,.67-.34v.54h-.15a.69.69,0,0,0-.52.24V98Zm4.21,0V96.66c0-.2-.09-.34-.32-.34a.6.6,0,0,0-.44.25V98h-.56V96.66c0-.2-.08-.34-.31-.34a.58.58,0,0,0-.44.25V98h-.56V95.88h.56v.28a.92.92,0,0,1,.69-.33.56.56,0,0,1,.59.38.89.89,0,0,1,.73-.38.56.56,0,0,1,.62.64V98Zm2.38,0v-.22a.86.86,0,0,1-.67.27.71.71,0,0,1-.74-.7.67.67,0,0,1,.74-.68.89.89,0,0,1,.67.25v-.28c0-.22-.18-.36-.46-.36a.92.92,0,0,0-.62.25L83,96.16a1.37,1.37,0,0,1,.92-.33c.49,0,.93.19.93.8V98Zm0-.51v-.26A.53.53,0,0,0,83.8,97c-.22,0-.4.12-.4.32s.18.31.4.31A.56.56,0,0,0,84.24,97.49Zm1.22,0v-1.1h-.35v-.49h.35V95.3H86v.58h.43v.49H86v.95c0,.14.07.24.2.24a.31.31,0,0,0,.19-.06l.12.42a.71.71,0,0,1-.47.13A.53.53,0,0,1,85.46,97.47Zm1.32-2.15a.34.34,0,0,1,.67,0,.34.34,0,0,1-.67,0ZM86.84,98V95.88h.55V98Zm1-1.06a1.12,1.12,0,1,1,1.12,1.11A1.07,1.07,0,0,1,87.81,96.94Zm1.66,0a.55.55,0,1,0-.54.62A.56.56,0,0,0,89.47,96.94ZM91.9,98V96.72c0-.3-.16-.4-.39-.4a.64.64,0,0,0-.49.25V98h-.55V95.88H91v.28a1,1,0,0,1,.74-.33.61.61,0,0,1,.69.67V98Z"/></g><g id="sympol"><path class="cls-2" d="M33.77,88.25a20.24,20.24,0,0,0,17.21,0l-8.6-15.5Z"/><path class="cls-3" d="M42.38,49.79A20.2,20.2,0,0,0,25.83,81.57L36.54,62.24l1.36-2.42.07-.14a5.1,5.1,0,0,1,8.79,0,.45.45,0,0,0,.1.14l1.35,2.42L58.93,81.57A20.2,20.2,0,0,0,42.38,49.79Z"/></g><path class="cls-3" d="M70.94,83.88h-.58v-.69h.58Zm-1.06-.69H69.3v.69h.58Zm3.94,1.47h.58V84h-.58Zm.05-1.59h-.58v.69h.58Zm-.54.9h-.57v.69h.57Zm2.15,6.2h.57v-.69h-.57Zm1.08-4.93h.57V87.5c0,1-.4,1.43-1.2,1.43H72.29a1.48,1.48,0,0,1-1.55-1.19,1.33,1.33,0,0,1-1.25.63c-.82,0-1.44-.85-1.44-1.93s.62-2,1.54-2h1.72v2.61c0,.81.39,1.29,1,1.29H73a.71.71,0,0,0,.69-.33,1.71,1.71,0,0,0,.13-.79v-2h.56V87.5a2,2,0,0,1-.15.86h1.49a.72.72,0,0,0,.69-.34,1.8,1.8,0,0,0,.12-.78Zm-5.83-.35h-1c-.64,0-1.08.66-1.08,1.51s.43,1.52,1.06,1.52,1-.53,1-1.59Zm5.81,5.28h.58v-.69h-.58Zm13.73-2.92a1.8,1.8,0,0,1-.12.78.71.71,0,0,1-.69.34H88.22v-.25a2.55,2.55,0,0,0-2.68-2.76,2.41,2.41,0,0,0-2,.86l.5.5a1.65,1.65,0,0,1,1.52-.8,1.89,1.89,0,0,1,2,2.16c0,.09,0,.18,0,.29h-6c-.08-2.09-1-3.13-2.7-3.13v.54h.22a1.78,1.78,0,0,1,1.5.84,3.33,3.33,0,0,1,.4,1.75H78v.57H89.64c.8,0,1.2-.48,1.2-1.43V83.68h-.57Zm1.66,1.68h.56V83.68h-.56Zm14.67-5H106v.69h.58Zm4.71,0h-.57v.69h.57Zm4.75-.29h.57V87.5c0,1-.4,1.43-1.19,1.43H101.81a1.61,1.61,0,0,1-1.6-1,1.51,1.51,0,0,1-1.5.93A1.64,1.64,0,0,1,97,87.07a1.87,1.87,0,0,1,.48-1.33H96.37c-.73,0-1.16.68-1.16,1.78v2.72h-.57V87.49c0-1.51.57-2.25,1.73-2.25h2.38c1,0,1.56.68,1.68,1.81a1.38,1.38,0,0,0,1.47,1.31h1.41V83.68h.6l-.13,3.78a3.24,3.24,0,0,1,2.68-2.23c1.3,0,2,.93,2,2.76v.37h1.51a.71.71,0,0,0,.69-.33,1.71,1.71,0,0,0,.13-.79v-2h.56V87.5a2,2,0,0,1-.15.86h1.44a.72.72,0,0,0,.69-.33,1.88,1.88,0,0,0,.12-.79V83.68H114V87.5a1.94,1.94,0,0,1-.16.86h1.44a.7.7,0,0,0,.69-.34,1.8,1.8,0,0,0,.12-.78ZM99.72,87c0-.78-.35-1.26-1-1.26s-1,.51-1,1.35.37,1.27,1,1.27S99.72,87.92,99.72,87Zm8.11.84c0-1.26-.52-2.11-1.41-2.11s-2.25,1.25-2.63,2.62h4C107.82,88.19,107.83,88,107.83,87.86Zm22.74-4.18h.57V87.5c0,1-.4,1.43-1.2,1.43h-2.13a1.43,1.43,0,0,1-1.21-.63,2.75,2.75,0,0,1-1.83.63H119v-.56h1.32l-1-4.07h.61l1,4.07h.24c.59,0,.81-.25.81-1.12V83.68h.58V87.5a1.93,1.93,0,0,1-.17.86h2.41a2,2,0,0,0,.74-.11,3.2,3.2,0,0,0,.73-.4,3.65,3.65,0,0,0-1.74-1.43v-.64a3.72,3.72,0,0,1,2-.65,3.34,3.34,0,0,1,2.14.78,9.8,9.8,0,0,1-.52.89,5.65,5.65,0,0,1-1.08,1.11,1.22,1.22,0,0,0,.58.41,3.74,3.74,0,0,0,.66,0h1.47a.71.71,0,0,0,.69-.34,1.8,1.8,0,0,0,.12-.78ZM128,86.09l-.62-.3a2.43,2.43,0,0,0-.83-.15,3.21,3.21,0,0,0-1.55.46,3.19,3.19,0,0,1,.94.55,4.55,4.55,0,0,1,.73.83A4.08,4.08,0,0,0,128,86.09Zm4.23-2.41v5.25h.57V83.68Z"/><path class="cls-3" d="M71.46,78.92l-.3-.8h-1.9l-.31.8h-.82l1.62-4.14h.91l1.62,4.14Zm-1.25-3.41-.75,2H71Zm2.51,3.41V74.78h.65v4.14ZM74,77.69v-.55h1.49v.55Zm1.93-.84A2.11,2.11,0,1,1,78,79,2.05,2.05,0,0,1,75.91,76.85Zm3.48,0A1.38,1.38,0,1,0,78,78.35,1.37,1.37,0,0,0,79.39,76.85Zm1.43,2.07V74.78h.65v4.14Zm3.32,0v-.33a1.24,1.24,0,0,1-1,.4,1,1,0,0,1-1-1,1,1,0,0,1,1-1,1.22,1.22,0,0,1,1,.39V77c0-.34-.28-.56-.7-.56a1.28,1.28,0,0,0-.89.38l-.26-.45a1.78,1.78,0,0,1,1.26-.48c.66,0,1.24.28,1.24,1.08v2Zm0-.69v-.45a.89.89,0,0,0-.71-.31.57.57,0,0,0-.64.54c0,.32.27.53.64.53A.86.86,0,0,0,84.14,78.23Zm6.68.69V75.85l-1.27,3.07h-.31L88,75.85v3.07h-.72V74.78h1l1.12,2.72,1.13-2.72h1v4.14Zm1.4-1.5A1.54,1.54,0,1,1,93.76,79,1.5,1.5,0,0,1,92.22,77.42Zm2.41,0a.87.87,0,1,0-1.73,0,.87.87,0,1,0,1.73,0Zm3.44,1.5v-.41a1.24,1.24,0,0,1-1,.48c-.77,0-1.33-.58-1.33-1.57s.55-1.57,1.33-1.57a1.19,1.19,0,0,1,1,.49V74.78h.65v4.14Zm0-.9V76.83a1,1,0,0,0-.77-.41.89.89,0,0,0-.85,1,.88.88,0,0,0,.85,1A1,1,0,0,0,98.07,78Zm1.31-.6a1.51,1.51,0,0,1,1.52-1.57,1.48,1.48,0,0,1,1.47,1.63v.15h-2.31a.91.91,0,0,0,1,.83,1.28,1.28,0,0,0,.85-.33l.29.43A1.74,1.74,0,0,1,101,79,1.51,1.51,0,0,1,99.38,77.42Zm1.52-1a.82.82,0,0,0-.84.79h1.68A.8.8,0,0,0,100.9,76.38ZM103,78.92v-3h.65v.44a1.29,1.29,0,0,1,1-.51v.65l-.21,0a1,1,0,0,0-.77.4v2Zm4.17,0V77c0-.46-.23-.62-.6-.62a1,1,0,0,0-.77.41v2.09h-.65v-3h.65v.41a1.42,1.42,0,0,1,1.06-.48.86.86,0,0,1,1,1v2.11Zm2.84-.59.41-.56a1.76,1.76,0,0,0,1.31.58c.59,0,.83-.3.83-.57,0-.87-2.42-.33-2.42-1.85,0-.68.61-1.21,1.51-1.21a2.11,2.11,0,0,1,1.55.58l-.41.53a1.72,1.72,0,0,0-1.2-.47c-.43,0-.7.21-.7.52,0,.77,2.4.29,2.4,1.83,0,.69-.48,1.28-1.6,1.28A2.23,2.23,0,0,1,110,78.33Zm3.84,1.17a.56.56,0,0,0,.25,0,.4.4,0,0,0,.43-.26l.15-.34-1.23-3h.69l.88,2.25.87-2.25h.7l-1.44,3.54a1,1,0,0,1-1,.67l-.37,0Zm2.89-1,.3-.48a1.55,1.55,0,0,0,1,.43c.39,0,.59-.17.59-.41,0-.59-1.81-.16-1.81-1.31,0-.49.42-.91,1.17-.91a1.72,1.72,0,0,1,1.17.42l-.27.46a1.2,1.2,0,0,0-.89-.36c-.34,0-.56.15-.56.36,0,.54,1.81.14,1.81,1.33,0,.53-.44.93-1.24.93A1.85,1.85,0,0,1,116.76,78.53Zm3.32-.31V76.49h-.49v-.57h.49V75.1h.65v.82h.61v.57h-.61v1.57c0,.2.1.35.29.35a.45.45,0,0,0,.29-.1l.15.49a.85.85,0,0,1-.61.19A.69.69,0,0,1,120.08,78.22Zm1.66-.8a1.52,1.52,0,0,1,1.52-1.57,1.49,1.49,0,0,1,1.48,1.63v.15h-2.31a.9.9,0,0,0,.95.83,1.28,1.28,0,0,0,.85-.33l.3.43a1.78,1.78,0,0,1-1.22.43A1.51,1.51,0,0,1,121.74,77.42Zm1.52-1a.82.82,0,0,0-.84.79h1.69A.81.81,0,0,0,123.26,76.38Zm5.79,2.54V77c0-.32-.14-.54-.49-.54a.91.91,0,0,0-.69.4v2.1h-.65V77c0-.32-.14-.54-.5-.54a.93.93,0,0,0-.69.41v2.09h-.65v-3H126v.41a1.31,1.31,0,0,1,1-.48.79.79,0,0,1,.82.55,1.27,1.27,0,0,1,1-.55.79.79,0,0,1,.87.9v2.17Zm1.24-.39.3-.48a1.52,1.52,0,0,0,1,.43c.39,0,.59-.17.59-.41,0-.59-1.81-.16-1.81-1.31,0-.49.42-.91,1.18-.91a1.74,1.74,0,0,1,1.17.42l-.28.46a1.18,1.18,0,0,0-.88-.36c-.34,0-.56.15-.56.36,0,.54,1.81.14,1.81,1.33,0,.53-.44.93-1.25.93A1.82,1.82,0,0,1,130.29,78.53Z"/><path class="cls-2" d="M79,49.79l3.21,21.58H76.51l-.3-3.88h-2l-.34,3.88h-5.8l2.86-21.58Zm-3,13.88c-.29-2.45-.57-5.47-.86-9.06q-.86,6.2-1.07,9.06ZM88.58,49.79V71.37H83V49.79Zm8.53,10.88v3.72H90V60.67Z"/><path class="cls-3" d="M111.53,62.43c0,2.17,0,3.7-.15,4.6a5.33,5.33,0,0,1-1,2.48,5.25,5.25,0,0,1-2.18,1.71,7.94,7.94,0,0,1-3.2.6,8.06,8.06,0,0,1-3.11-.56,5.18,5.18,0,0,1-2.22-1.7,5.07,5.07,0,0,1-1-2.47,44.5,44.5,0,0,1-.16-4.66V58.74c0-2.17,0-3.71.15-4.61a5.16,5.16,0,0,1,3.14-4.19,7.91,7.91,0,0,1,3.2-.6,8.09,8.09,0,0,1,3.11.57,5,5,0,0,1,2.22,1.7,5.09,5.09,0,0,1,1,2.46,44.73,44.73,0,0,1,.16,4.67Zm-5.61-7.09a6.69,6.69,0,0,0-.17-1.93.66.66,0,0,0-.69-.42.79.79,0,0,0-.67.34,5,5,0,0,0-.23,2V65.41a10.06,10.06,0,0,0,.15,2.32.66.66,0,0,0,.71.44.7.7,0,0,0,.74-.5,11.22,11.22,0,0,0,.16-2.42ZM119,49.79V71.37h-5.55V49.79Zm6.74,10.75h-5V59.35a8.54,8.54,0,0,1,.47-3.17,4.43,4.43,0,0,1,1.9-2,8.9,8.9,0,0,1,7.82.11,3.79,3.79,0,0,1,1.67,2.37,36.83,36.83,0,0,1,.28,5.8v8.87H127.6V69.8a3.27,3.27,0,0,1-3.13,1.89,4.52,4.52,0,0,1-2.59-.79c-.79-.53-1.18-1.69-1.18-3.47V66a4.3,4.3,0,0,1,.62-2.7,8.91,8.91,0,0,1,3.11-1.68,8.85,8.85,0,0,0,2.84-1.4,3.86,3.86,0,0,0,.18-1.47,4.91,4.91,0,0,0-.2-1.8.72.72,0,0,0-.69-.42c-.36,0-.59.12-.68.35a7.22,7.22,0,0,0-.13,1.83Zm1.7,2.42A3.88,3.88,0,0,0,126,64.55a6.18,6.18,0,0,0-.21,1.84,5.37,5.37,0,0,0,.18,1.77.7.7,0,0,0,.71.4.67.67,0,0,0,.66-.31,5.19,5.19,0,0,0,.15-1.65Z"/></g></g></g></g></svg>