<svg xmlns="http://www.w3.org/2000/svg" xmlns:xlink="http://www.w3.org/1999/xlink" viewBox="0 0 155 155"><defs><style>.cls-1{fill:#fff;}.cls-2{fill:url(#linear-gradient);}</style><linearGradient id="linear-gradient" x1="25.65" y1="77.5" x2="129.35" y2="77.5" gradientUnits="userSpaceOnUse"><stop offset="0" stop-color="#c49957"/><stop offset="0.63" stop-color="#fdd089"/><stop offset="0.76" stop-color="#ecbf7a"/><stop offset="1" stop-color="#c49957"/></linearGradient></defs><g id="Layer_2" data-name="Layer 2"><g id="Layer_1-2" data-name="Layer 1"><circle class="cls-1" cx="77.5" cy="77.5" r="77.5"/><path class="cls-2" d="M81.29,108.59a7.13,7.13,0,0,1-5.77-2.91,7.22,7.22,0,0,1-1.2-2.57H60.89a8.08,8.08,0,0,1-9,4.65c-.25-.05-.5-.11-.74-.18a8,8,0,0,1-2.83-1.51l-.18-.15-.09-.08a4.57,4.57,0,0,1-1.47-3.37V93.23l-2-1.56-.75-.6a8.8,8.8,0,0,0,8-5.51V101.3a2,2,0,0,0,2.18,2h.07a2,2,0,0,0,1.59-1.34,2.06,2.06,0,0,0,.12-.7v-8l-2-1.56-.74-.6a8.8,8.8,0,0,0,8-5.51V98.41h4V93.23l-2.69-2.16a8.8,8.8,0,0,0,8-5.51V98.41h3.6V93.23l-2.69-2.16a8.8,8.8,0,0,0,8-5.51v15.87a1.85,1.85,0,0,0,.48,1.25l.06.06a1.85,1.85,0,0,0,3.16-1.31V94.17l-.59-.47L80.44,92a8.79,8.79,0,0,0,8-5.52v14.94A7.16,7.16,0,0,1,81.29,108.59Zm40.27-14.77-2.42,3.58H106V91.65h23.39a9.44,9.44,0,0,1-4.74-8L122.38,87H106v-30A9.48,9.48,0,0,1,97.12,63H97l3.11,2.29L100.21,87h-3.7V47.74A9.45,9.45,0,0,1,88,53.25l-.06,0,2.9,2.58v35.8h9.41l0,10.46h26.5A9.5,9.5,0,0,1,121.56,93.82Zm-29-1.95a4.36,4.36,0,0,1,0,.51,7.2,7.2,0,0,1-.13,1.32,6.83,6.83,0,0,1-3.87,4.88,3.87,3.87,0,0,1,.48,0,5,5,0,0,1,5,5.06v.07a6,6,0,0,1-.38,1.77,4.56,4.56,0,0,1-2,2.32,12.59,12.59,0,0,1-3.36,1,12.2,12.2,0,0,1-4.08.25c-.13,0-.4,0-.64-.08s-.16,0-.18.07a11,11,0,0,0,6.85,2.86h.11a8.44,8.44,0,0,0,7.3-3.71A11,11,0,0,0,92.6,91.87ZM81.29,109.33a3.55,3.55,0,1,0,3.55,3.55A3.54,3.54,0,0,0,81.29,109.33Zm-7.51-39.2a3.7,3.7,0,0,1-5.4,1.52c-3.18-1.66,1-7,4.44-2,0,0,1.1-.69,0-4.29s-.56-10.24-.56-10.24-3.8,4.7-5.33,5.81-8.23,5.81-4.29,10.66c-.62,0-5.54,1.87-8.23-2.7,0,0-2,4.08-9,5.46H78A7.26,7.26,0,0,1,73.78,70.13ZM87,38.57a9.45,9.45,0,0,1-8.54,5.52h-.06l2.9,2.58V80.37H35.53l-2.22-3.28a9.46,9.46,0,0,1-7.66,8H87Z"/></g></g></svg>