<svg xmlns="http://www.w3.org/2000/svg" viewBox="0 0 155 155"><defs><style>.cls-1{fill:#fff;}.cls-2{fill:#1b1b1b;}</style></defs><g id="Layer_2" data-name="Layer 2"><g id="Layer_1-2" data-name="Layer 1"><circle class="cls-1" cx="77.5" cy="77.5" r="77.5"/><path class="cls-2" d="M44.93,90.18a8.64,8.64,0,0,1,3.43-2.42,1.17,1.17,0,0,1,1,.32,19.63,19.63,0,0,1,1.38,2c.95-.59,2-1.17,2.93-1.85a2.07,2.07,0,0,1,2.91.14c.73.66,1.53,1.24,2.27,1.83l3.35-2.1a2.14,2.14,0,0,1,2.78.12c.25.22.54.39.79.59a3,3,0,0,1,1.31,2.72c-.11,2.19,0,4.4,0,6.6a2.38,2.38,0,0,0,1.57,2.49l.48.26a11.48,11.48,0,0,1-4,1.78c-.81.19-2.33-1.62-2.33-2.65,0-2.48,0-5,0-7.44,0-1.27-2-2.57-3.15-2a1,1,0,0,0-.67,1c0,3,0,6,0,9,0,.54-.13.79-.68.94-1.22.33-2.4.75-3.72,1.17v-.89c0-3.06,0-6.13,0-9.19,0-1.26-1-1.73-1.84-2.18-.4-.21-1.13.11-1.67.3-.17.06-.29.49-.29.75,0,3,0,6,0,9v.87l-4.31,1.52V92.3C46.51,91,46.3,90.68,44.93,90.18Zm-2.82-8.36c-2.54,0-5.07,0-7.6,0a2.45,2.45,0,0,0-.81.12,14.28,14.28,0,0,0-4,3.83,9.54,9.54,0,0,1,2.59-.89c2.9-.18,5.81-.16,8.72-.22a1.78,1.78,0,0,1,.4.12l-8.08,6.89,2.9,2.19c-.23.18-.35.27-.46.37A17.74,17.74,0,0,1,32,97a17.44,17.44,0,0,0-2.79,2.32c1.2.52,2.24.94,3.26,1.42s2.3,1.17,3.42,1.79a.86.86,0,0,0,1.1-.09c2.2-1.87,4.42-3.7,6.59-5.6a1.88,1.88,0,0,0,.51-1.25c0-3.42,0-6.84,0-10.25a6,6,0,0,1,1-3.66C44,81.73,43.06,81.81,42.11,81.82Zm-2,9.39.21.14c0,.57,0,1.14,0,1.71,0,1.67,0,3.34,0,5a3.06,3.06,0,0,1-.09.74c-.21.92-.42,1-1.23.6s-1.63-.93-2.44-1.38-1.71-1-2.67-1.48ZM40.74,86c-.12,1.47-.23,2.84-.37,4.21-.09.86-.43,1-1.12.43s-1.31-1-2.06-1.61Zm36.63,16.28a43.65,43.65,0,0,0,4.12-2.57A26.94,26.94,0,0,0,84.57,97a2.89,2.89,0,0,0,.7-2.61A8.49,8.49,0,0,0,81,88.29a2,2,0,0,0-2.78.08c-.72.6-1.53,1.1-2.32,1.66-.21-.54,0-1.44-1-1.07a20.43,20.43,0,0,0-5.38,3.36l.09.16,2.16-1.08v.83c0,1.82,0,3.64,0,5.46,0,.61-.08,1-.69,1.32a5.76,5.76,0,0,0-1.05.85,4.36,4.36,0,0,0,.72.32c.8.14,1.06.57,1,1.41-.07,2.09,0,4.2,0,6.3,0,.26,0,.52,0,.9,1.31-.62,2.52-1.16,3.7-1.77.17-.09.27-.45.28-.69,0-1.26,0-2.52,0-3.58A7.42,7.42,0,0,0,77.37,102.31ZM75.85,91.24c0-.77.43-.9,1-.54a21.75,21.75,0,0,1,3.08,2.4,6.33,6.33,0,0,1,1.89,3.48,3,3,0,0,1-.41,2.25c-.78,1.22-1.27,1.34-2.47.62-.84-.51-1.68-1-2.55-1.49a.77.77,0,0,1-.5-.8c0-1,0-2,0-3S75.9,92.2,75.85,91.24ZM31.32,55.29a8.87,8.87,0,0,0-2.09,5.1c-.32,4.21,3.19,9,6.86,10.41a5.07,5.07,0,0,0,4.46-.2,15.57,15.57,0,0,0,5.24-4.74.61.61,0,0,0,.09-.25c-1,.7-2,1.49-3,2.15a2.86,2.86,0,0,1-2.54.39,16.37,16.37,0,0,1-5-3.33c1.24-1.32,2.46-2.54,3.58-3.84a2.56,2.56,0,0,0,.54-1.49c.06-1.82,0-3.64,0-5.47,0-.5.2-1,.74-.83,1.33.54,3,.68,3.27,2.69a8.7,8.7,0,0,1,2.73-4c-.9-.52-1.77-1-2.62-1.53a1.2,1.2,0,0,0-1.74.21c-.69.8-1.4,1.57-2.1,2.36l-.27-.2V50.2C36.27,51.3,33.43,52.72,31.32,55.29Zm1.08,1.39A6.45,6.45,0,0,1,36,52.27v4.24c0,1.72,0,3.44,0,5.16a4.35,4.35,0,0,1-1,2.75C32.93,62.15,31.75,59.68,32.4,56.68ZM88.18,70.52c1.64-.94,3.26-1.94,4.8-3,3.24-2.3,3.19-5.64,1.59-8.44A5.93,5.93,0,0,0,87,56.57c-1.48.74-2.94,1.55-4.44,2.28a4.64,4.64,0,0,0-2.47,3.85,10.1,10.1,0,0,0,.17,3.51,6.26,6.26,0,0,0,5.76,5A11.52,11.52,0,0,0,88.18,70.52Zm-3.61-11.8A1.39,1.39,0,0,1,86.29,58a7.15,7.15,0,0,1,4.64,9.66,1.79,1.79,0,0,1-2.5,1.13,6.3,6.3,0,0,1-4.64-6.32A7.22,7.22,0,0,1,84.57,58.72Zm-35.18.93c.2-.26.4-.53.62-.77.75-.83,1.43-1,2.2-.14A11.59,11.59,0,0,1,54,61.34c.47.92.34,1-.6,1.44a19.85,19.85,0,0,0-5.45,3.08c-.57.5-1.1,1.11-.88,1.9a11.73,11.73,0,0,0,1.11,2.69,1.25,1.25,0,0,0,1.84.46c1-.5,2.06-1.08,3.08-1.64.34-.18.68-.38,1.16-.66v2.5c1.4-.72,2.69-1.36,3.95-2a.93.93,0,0,0,.35-.72q0-4.14,0-8.28A4.91,4.91,0,0,0,55,56a2.45,2.45,0,0,0-.89.08,8.54,8.54,0,0,0-4.14,2.41,6.85,6.85,0,0,0-.71,1Zm4.79,8.09a.62.62,0,0,1-.27.46,2,2,0,0,1-2.64-.49c-1.08-1.73-1-2.79.6-3.67.71-.38,1.44-.7,2.32-1.12C54.19,64.66,54.2,66.2,54.18,67.74Zm69.1,23.46.37-.48c.89-1.09,1.61-1.18,2.57-.15a9.16,9.16,0,0,1,1.48,2.17c.59,1.21.53,1.25-.72,1.77l-.49.21a15.65,15.65,0,0,0-4.95,3,2.48,2.48,0,0,0-.66,1.45,4.21,4.21,0,0,0,1.13,3,1.35,1.35,0,0,0,1.76.42c.7-.35,1.4-.7,2.09-1.07s1.38-.8,2.19-1.27v2.49c1.31-.66,2.49-1.29,3.69-1.86a.91.91,0,0,0,.61-1c0-2.63,0-5.27,0-7.9A4.68,4.68,0,0,0,129,87.73a2.23,2.23,0,0,0-.89,0,8.41,8.41,0,0,0-4.46,2.57,5.28,5.28,0,0,0-.55.84ZM128,99.39a.61.61,0,0,1-.21.43,1.92,1.92,0,0,1-2.6-.33,6.71,6.71,0,0,1-.81-2.22,1.18,1.18,0,0,1,.46-1c.95-.64,2-1.18,2.95-1.76l.22.2C128,96.31,128.05,97.85,128,99.39ZM91.94,96.14c2-1.54,4-3.09,6-4.62.54-.41.55-.76.06-1.21-.85-.77-1.67-1.55-2.5-2.33a.91.91,0,0,0-1.17-.13c-1.34.69-2.73,1.32-4,2.08A6.5,6.5,0,0,0,87,97.4a8.17,8.17,0,0,0,5.22,5.32.58.58,0,0,0,.43,0l4-2.28c-2.51-.52-3.79-2.26-5.14-4ZM94.4,93a.7.7,0,0,1,0,.66c-1,.81-2,1.59-3,2.38a5.36,5.36,0,0,1,.09-5.73C92.45,91.19,93.45,92.06,94.4,93ZM78.46,56.58a1.13,1.13,0,0,0-1.7-.25c-.89.58-1.82,1.09-2.64,1.57-.62-.59-1.19-1.16-1.79-1.68-.15-.12-.47-.23-.6-.15-1.18.65-2.34,1.34-3.63,2.09a4,4,0,0,1,1.58,3.71c0,1.47,0,2.94,0,4.41v4.81c1.24-.49,2.36-1,3.52-1.39A1,1,0,0,0,74,68.56c0-3,0-6,0-9v-.79l.23-.08C75.5,59.82,76.77,61,77,63c.08-2.29,2-2.91,3.53-4.08C79.79,58.14,79.12,57.37,78.46,56.58Zm31.41,31.6a1.06,1.06,0,0,0-1.58-.22c-.91.58-1.86,1.1-2.71,1.59-.6-.58-1.16-1.13-1.74-1.65a.72.72,0,0,0-.6-.18,12.94,12.94,0,0,0-3.53,2.2,3.81,3.81,0,0,1,1.44,3.34c0,2.86,0,5.72,0,8.58,0,.27,0,.53,0,.9,1.27-.52,2.42-1,3.61-1.44a.87.87,0,0,0,.65-1c0-3.06,0-6.13,0-9.19,0-.26,0-.52,0-.83,1.37.79,2.2,2,3,4.36,0-2.25,1.91-2.85,3.48-4C111.25,89.78,110.55,89,109.87,88.18ZM66.13,67.37V59.78c0-.61,0-1.22,0-1.82-.07-1.14-1.28-2.25-2.06-1.86-1.2.6-2.33,1.33-3.6,2.07a2.51,2.51,0,0,1,1.34,2.49c0,2.83,0,5.67,0,8.5a3.06,3.06,0,0,0,.3,1.3.91.91,0,0,0,1.33.47c1.34-.71,2.65-1.43,4-2.15C66.26,68.59,66.14,68.48,66.13,67.37ZM113.76,92.1c0,2.55,0,5.11,0,7.66,0,.51,0,1,0,1.52.07,1,.85,1.68,1.56,1.33,1.4-.7,2.76-1.48,4.13-2.23-1.21-.1-1.4-.28-1.4-1.48,0-2.76,0-5.51,0-8.27,0-.36,0-.71,0-1.06A1.74,1.74,0,0,0,115.35,88c-1,.55-1.87,1.17-2.91,1.82A2.37,2.37,0,0,1,113.76,92.1Zm-.68-6.74c.55.38,1.09.78,1.66,1.12.22.12.59.24.77.14,1.15-.61,2.26-1.28,3.58-2.05a21,21,0,0,0-1.86-1.3,1.29,1.29,0,0,0-1-.07c-1.06.56-2.07,1.22-3.1,1.84ZM61.15,53.69a17.61,17.61,0,0,0,1.5,1.06c.25.15.68.33.89.22,1.17-.61,2.29-1.3,3.6-2.06-.77-.54-1.35-1-2-1.35a.86.86,0,0,0-.7-.11c-1.13.62-2.23,1.28-3.35,1.94Z"/></g></g></svg>