<svg xmlns="http://www.w3.org/2000/svg" viewBox="0 0 155 155"><defs><style>.cls-1{fill:#fff;}.cls-2{font-size:10.85px;fill:#0d1826;}.cls-2,.cls-3,.cls-5{font-family:Alcefun-Round, Alcefun;}.cls-3{font-size:25.05px;}.cls-3,.cls-5,.cls-6{fill:#dd2318;}.cls-4{fill:#1872b9;}.cls-5{font-size:9.84px;}.cls-7{fill:#dbdadc;fill-rule:evenodd;}</style></defs><g id="Layer_2" data-name="Layer 2"><g id="Layer_1-2" data-name="Layer 1"><circle class="cls-1" cx="77.5" cy="77.5" r="77.5"/><g id="text"><text class="cls-2" transform="translate(74.56 119.89) scale(1.01 1)">Solutions</text><text class="cls-3" transform="translate(35.86 111.23)">Com<tspan class="cls-4" x="43.24" y="0">Rec</tspan></text><text class="cls-5" transform="translate(111.33 102.65)">®</text></g><g id="logo"><path class="cls-4" d="M100.13,59.42h0a25,25,0,0,0-2.26-4.32,2.72,2.72,0,0,1-1.78,4.09h0A2.74,2.74,0,0,1,93.24,58l.56.91a21,21,0,0,1,1.32,2.7h0l.21.56v0c.07.19.14.39.2.58s.1.32.15.48l0,.1c0,.16.09.31.13.47l0,.08c0,.15.08.3.11.45l0,.06c0,.16.07.32.1.49l0,.08c.07.34.12.68.17,1v.06c0,.17,0,.34.07.51v.06c0,.17,0,.34,0,.52,0,.35,0,.71.06,1.07a19.7,19.7,0,0,1-.64,5.54,19.63,19.63,0,0,1-34,7.62,2.74,2.74,0,0,0-3-.87h0a2.74,2.74,0,0,0-1.26,4.34,25.08,25.08,0,0,0,42.53-25.45Z"/><path class="cls-6" d="M57.48,84.71a.76.76,0,0,1-.08-.11v0l-.08-.13,0,0a.59.59,0,0,0,0-.08l0-.06a.36.36,0,0,0,0-.09l0-.1,0-.07,0-.09v-.06s0,0,0,0h0l0-.1v-.14s0-.06,0-.09,0-.06,0-.09v0s0,0,0,0v-.17a2.79,2.79,0,0,1,.85-1.93h0l0,0h0l0,0L58,81l0,0a.1.1,0,0,1,0,0l0,0h0a2.7,2.7,0,0,1,.74-.37h0l.12,0,.09,0,.09,0,.12,0h.84l.14,0h.07l.06,0h.06l0,0h0l.14,0,.06,0,.06,0h0l.08,0,.09,0a2.72,2.72,0,0,1,.72.54h0a19.93,19.93,0,0,1-4.06-8.58,19.32,19.32,0,0,1-.32-5.52,20,20,0,0,1,1.26-5.44A19.62,19.62,0,0,1,93.24,58h0l.11.16.1.12,0,0a.63.63,0,0,0,.11.12l0,0,.12.11,0,0,.19.15.16.1.08,0,.13.07a1.78,1.78,0,0,0,.29.12l.12,0,.09,0,.21.05h.07l.14,0h.22l.37,0h0l.2,0h0l.15,0h0l.14,0h0l.3-.12h0a1.35,1.35,0,0,0,.26-.15l.08,0,.06,0,.08-.06,0,0,0,0,.1-.09,0,0a.46.46,0,0,0,.07-.07l0,0,0-.06,0,0,.1-.14,0,0,.08-.12,0-.05v0a2.79,2.79,0,0,0,.29-.72v0l0-.11v0a.68.68,0,0,1,0-.14v0a2.66,2.66,0,0,0-.3-1.57h0l-.09-.15,0,0h0L97.83,55A25.08,25.08,0,1,0,57.54,84.79l0,0Z"/><path class="cls-7" d="M77.26,51.64a.2.2,0,0,1,.3-.15,9,9,0,0,1,3.16,3.68.68.68,0,0,1,0,.76l-.08.06a2.5,2.5,0,0,1-1,.26c-.34,0-.68.08-1,.11l-.83.07-.27,0a.62.62,0,0,0-.49.38,8.56,8.56,0,0,0-.38,4.49,1.43,1.43,0,0,0,.69.76c.85.41,2.39.27,2.82-.38s-.16-2.45-.28-3.47a.39.39,0,0,1,.22-.4,3.57,3.57,0,0,1,2.43-.33c1.24.64,1.15,2.64,2.14,3.44s2.53-.17,3.83-.36a1.06,1.06,0,0,1,.73.21,3.39,3.39,0,0,1,.63.68,11.11,11.11,0,0,1,1.6,5.42,1,1,0,0,1-.51.79,6.75,6.75,0,0,1-3.26,1,1.17,1.17,0,0,1-1-.49.41.41,0,0,1-.07-.11,34.22,34.22,0,0,1-1.14-3.81c-.26-.78-.38-1.6-1.07-2s-2.93-.13-3.21.46c-.78.9.33,2.68,0,3.89a.56.56,0,0,1,0,.12,1.16,1.16,0,0,1-.72.62,8.23,8.23,0,0,1-3.5.11.73.73,0,0,1-.57-.51,36.44,36.44,0,0,1-.37-3.74.65.65,0,0,0-.38-.5,6.05,6.05,0,0,0-1.4-.39c-.51-.1-1-.18-1.54-.23a1.63,1.63,0,0,1-1.2-.4.64.64,0,0,1-.19-.3,1.41,1.41,0,0,1,0-.2,4.81,4.81,0,0,1,.3-1.64c.19-.54.46-1,.69-1.56s.42-1.46,1.07-1.68c.49-.36,2.49.19,2.83-.31C76.76,55.2,77.14,52.53,77.26,51.64ZM66.21,57.53a8.38,8.38,0,0,0-1,1.19A4.05,4.05,0,0,0,64.56,60c0,.13-.06.26-.08.39a.28.28,0,0,0,0,.22.37.37,0,0,0,.13.15,3.17,3.17,0,0,0,.58.37,1.61,1.61,0,0,0,.52.18.6.6,0,0,0,.19,0l.16,0C67.56,61,68,58,69.43,57.51a3.22,3.22,0,0,1,2,.23c.17.13.25.28.15.61a17.57,17.57,0,0,0-.86,3.32.64.64,0,0,0,.36.61,16.14,16.14,0,0,0,3.77.75.5.5,0,0,1,.36.3A9.71,9.71,0,0,1,75.46,67a7.06,7.06,0,0,1-.15,2.21,1.72,1.72,0,0,1-1,.84c-1.38.38-3.65-.65-4.66,0-1.66.54-.68,4.89-.78,7a.77.77,0,0,1-.6.72,4.66,4.66,0,0,1-2.21-.29c-.88-.27-2.08-.34-2.67-.91a4.23,4.23,0,0,1-.89-2.28A11.93,11.93,0,0,1,62.24,72c0-.76,0-1.53,0-2.28a1.72,1.72,0,0,1,.65-1.45,2.94,2.94,0,0,1,1.76,0c.86.29,2,1,3.1.8a.78.78,0,0,0,.58-.44,12.16,12.16,0,0,0,1.13-5.29,1.09,1.09,0,0,0-.56-.86c-.56-.31-1.41-.66-2-.31-1.94.76-.47,5.38-3.66,4-.41-.18-.69-.19-.92-.54a2,2,0,0,1,0-1.52c.22-.65.55-1.26.79-1.9a5.49,5.49,0,0,0,.27-1.06.37.37,0,0,0,0-.18.51.51,0,0,0-.16-.25,3.61,3.61,0,0,1-.35-.33,1.66,1.66,0,0,1-.53-1,.33.33,0,0,1,0-.14.24.24,0,0,1,.06-.11,21,21,0,0,1,5-4.81l.07,0a.34.34,0,0,1,.36.06,1.37,1.37,0,0,1,.26.29.51.51,0,0,1,0,.61C67.72,55.76,66.71,57,66.21,57.53ZM78.54,84.31c.13-.48.46-.58.91-.71a7.47,7.47,0,0,1,1.48-.3,16.85,16.85,0,0,0,3-.45,3.6,3.6,0,0,0,2-1.7,5.37,5.37,0,0,0,.55-1.39,6.88,6.88,0,0,0,.13-.77c0-.18.12-.6,0-.74a.45.45,0,0,0-.22-.13,2.84,2.84,0,0,0-.77-.15,5.3,5.3,0,0,0-1.37.17l-.65.13a1.36,1.36,0,0,0-.47.13.38.38,0,0,0-.12.16,11.06,11.06,0,0,0-.62,1.66c-.17.56-.18,1.2-.54,1.56s-1.62.45-2.52.46c-.68,0-1.32.19-1.67-.3-.5-.7.15-2.24-.54-2.75-1.31-1-4.86-.13-6.26-1.07C70,77.53,70,76,70,74.53c0-.64-.11-1.27-.07-1.91a2,2,0,0,1,.18-.83,1.18,1.18,0,0,1,.81-.53.86.86,0,0,1,.23-.06,6.59,6.59,0,0,1,1.09,0h1.43a16.13,16.13,0,0,1,2.6.26h0a1,1,0,0,1,.77.63,10.12,10.12,0,0,1,.44,3.45c0,1.07-.11,2.24.68,2.52h0a2.81,2.81,0,0,0,1.61.23c3.37,0,2.58-1.77,3-4.25a.85.85,0,0,1,.46-.6,8.9,8.9,0,0,1,3.51-.75,1.11,1.11,0,0,1,.85.4h0a.32.32,0,0,1,.08.2c0,1-.33,3.33.3,3.78.38.3,1,.09,1.43,0a11.75,11.75,0,0,1,1.85-.5v.07a.06.06,0,0,1,.07,0,.19.19,0,0,1,0,.08,5.68,5.68,0,0,1-.94,2.65,8.53,8.53,0,0,1-1.76,2.2,2.19,2.19,0,0,1-.44.31c-.81.42-1.84.45-2.6.92-1.09.66-1.91,1.7-3,2.36a9.24,9.24,0,0,1-4.29,1,.13.13,0,0,1-.12,0,.16.16,0,0,1,0-.09,1,1,0,0,1-.05-.38C78.2,85.3,78.44,84.65,78.54,84.31Z"/></g></g></g></svg>