<?xml version="1.0" encoding="utf-8"?>
<!-- Generator: Adobe Illustrator 25.0.1, SVG Export Plug-In . SVG Version: 6.00 Build 0)  -->
<svg version="1.1" id="Layer_1" xmlns="http://www.w3.org/2000/svg" xmlns:xlink="http://www.w3.org/1999/xlink" x="0px" y="0px"
	 viewBox="0 0 155 155" style="enable-background:new 0 0 155 155;" xml:space="preserve">
<style type="text/css">
	.st0{fill:#FFFFFF;}
	.st1{enable-background:new    ;}
	.st2{fill:#1B1B1B;}
	.st3{fill:#C7B478;}
	.st4{fill:#C8B579;}
</style>
<g>
	<circle class="st0" cx="77.5" cy="77.5" r="77.5"/>
	<g id="Layer_2_1_">
		<g id="Layer_1-2">
			<g class="st1">
				<path class="st2" d="M56.6,82.3l0.8,1.6l0.8-1.6h0.7l-1.2,2.1v1.1h-0.6v-1.1l-1.2-2.1H56.6z"/>
				<path class="st2" d="M60.6,85.6c-0.2,0-0.4,0-0.6-0.1c-0.2-0.1-0.4-0.2-0.5-0.4c-0.1-0.2-0.2-0.3-0.3-0.5
					c-0.1-0.2-0.1-0.4-0.1-0.6c0-0.2,0-0.4,0.1-0.6c0.1-0.2,0.2-0.4,0.3-0.5c0.1-0.2,0.3-0.3,0.5-0.4c0.2-0.1,0.4-0.1,0.6-0.1
					c0.2,0,0.4,0,0.6,0.1c0.2,0.1,0.4,0.2,0.5,0.4s0.2,0.3,0.3,0.5c0.1,0.2,0.1,0.4,0.1,0.6c0,0.2,0,0.4-0.1,0.6
					c-0.1,0.2-0.2,0.4-0.3,0.5c-0.1,0.2-0.3,0.3-0.5,0.4C61,85.5,60.8,85.6,60.6,85.6z M59.7,83.9c0,0.1,0,0.3,0.1,0.4
					s0.1,0.2,0.2,0.3c0.1,0.1,0.2,0.2,0.3,0.2s0.2,0.1,0.4,0.1c0.1,0,0.3,0,0.4-0.1c0.1-0.1,0.2-0.1,0.3-0.2
					c0.1-0.1,0.1-0.2,0.2-0.4s0.1-0.3,0.1-0.4c0-0.1,0-0.3-0.1-0.4s-0.1-0.2-0.2-0.3C61.2,83,61.1,83,61,82.9s-0.2-0.1-0.4-0.1
					c-0.1,0-0.3,0-0.4,0.1s-0.2,0.1-0.3,0.2s-0.1,0.2-0.2,0.3C59.7,83.6,59.7,83.8,59.7,83.9z"/>
				<path class="st2" d="M64,85c0.2,0,0.3,0,0.4-0.1s0.2-0.1,0.2-0.2c0.1-0.1,0.1-0.2,0.1-0.3c0-0.1,0-0.3,0-0.4v-1.7h0.6v1.7
					c0,0.2,0,0.4-0.1,0.6c-0.1,0.2-0.1,0.4-0.3,0.5c-0.1,0.1-0.3,0.3-0.4,0.3s-0.4,0.1-0.6,0.1c-0.3,0-0.5,0-0.7-0.1
					c-0.2-0.1-0.3-0.2-0.4-0.4s-0.2-0.3-0.2-0.5c-0.1-0.2-0.1-0.4-0.1-0.6v-1.7h0.6v1.7c0,0.1,0,0.3,0,0.4s0.1,0.2,0.1,0.3
					c0.1,0.1,0.1,0.2,0.2,0.2C63.7,85,63.9,85,64,85z"/>
				<path class="st2" d="M66.1,85.5v-3.3h1.4c0.2,0,0.3,0,0.4,0.1s0.2,0.1,0.3,0.2s0.2,0.2,0.2,0.3c0.1,0.1,0.1,0.3,0.1,0.4
					c0,0.2-0.1,0.4-0.2,0.6c-0.1,0.2-0.2,0.3-0.4,0.4l0.8,1.2H68l-0.7-1.1h-0.6v1.1H66.1z M66.7,83.9h0.8c0.1,0,0.1,0,0.2,0
					c0.1,0,0.1-0.1,0.1-0.1c0,0,0.1-0.1,0.1-0.2c0-0.1,0-0.1,0-0.2c0-0.1,0-0.1,0-0.2S67.8,83,67.8,83c0,0-0.1-0.1-0.1-0.1
					c-0.1,0-0.1,0-0.2,0h-0.8V83.9z"/>
				<path class="st2" d="M72.4,85.2c-0.3,0.3-0.5,0.4-0.9,0.4c-0.2,0-0.4,0-0.6-0.1s-0.3-0.2-0.5-0.4c-0.1-0.2-0.2-0.3-0.3-0.5
					c-0.1-0.2-0.1-0.4-0.1-0.6c0-0.2,0-0.4,0.1-0.6s0.2-0.4,0.3-0.5c0.1-0.1,0.3-0.3,0.5-0.4c0.2-0.1,0.4-0.1,0.6-0.1
					c0.3,0,0.6,0.1,0.8,0.2c0.2,0.1,0.4,0.3,0.5,0.5l-0.5,0.3c-0.1-0.2-0.2-0.3-0.3-0.4c-0.1-0.1-0.3-0.1-0.5-0.1
					c-0.1,0-0.3,0-0.4,0.1C71.1,83,71,83,70.9,83.1c-0.1,0.1-0.1,0.2-0.2,0.3c0,0.1-0.1,0.3-0.1,0.4c0,0.2,0,0.3,0.1,0.4
					s0.1,0.2,0.2,0.3c0.1,0.1,0.2,0.2,0.3,0.2s0.2,0.1,0.4,0.1c0.3,0,0.6-0.1,0.8-0.4v-0.2h-0.7v-0.5H73v1.7h-0.5V85.2z"/>
				<path class="st2" d="M73.2,85.5l1.3-3.3H75l1.3,3.3h-0.7l-0.3-0.8h-1.1l-0.3,0.8H73.2z M74.7,83l-0.5,1.3h0.9L74.7,83z"/>
				<path class="st2" d="M79,82.8h-1v2.7h-0.6v-2.7h-1v-0.6H79V82.8z"/>
				<path class="st2" d="M81.7,85v0.6h-2.3v-3.3h2.2v0.6h-1.6v0.8h1.4v0.5h-1.4V85H81.7z"/>
				<path class="st2" d="M85.8,82.8h-1v2.7h-0.6v-2.7h-1v-0.6h2.7V82.8z"/>
				<path class="st2" d="M87.5,85.6c-0.2,0-0.4,0-0.6-0.1c-0.2-0.1-0.4-0.2-0.5-0.4c-0.1-0.2-0.2-0.3-0.3-0.5
					C86,84.3,86,84.1,86,83.9c0-0.2,0-0.4,0.1-0.6c0.1-0.2,0.2-0.4,0.3-0.5c0.1-0.2,0.3-0.3,0.5-0.4c0.2-0.1,0.4-0.1,0.6-0.1
					c0.2,0,0.4,0,0.6,0.1c0.2,0.1,0.4,0.2,0.5,0.4s0.2,0.3,0.3,0.5c0.1,0.2,0.1,0.4,0.1,0.6c0,0.2,0,0.4-0.1,0.6
					c-0.1,0.2-0.2,0.4-0.3,0.5c-0.1,0.2-0.3,0.3-0.5,0.4C88,85.5,87.7,85.6,87.5,85.6z M86.6,83.9c0,0.1,0,0.3,0.1,0.4
					s0.1,0.2,0.2,0.3c0.1,0.1,0.2,0.2,0.3,0.2s0.2,0.1,0.4,0.1c0.1,0,0.3,0,0.4-0.1c0.1-0.1,0.2-0.1,0.3-0.2
					c0.1-0.1,0.1-0.2,0.2-0.4s0.1-0.3,0.1-0.4c0-0.1,0-0.3-0.1-0.4s-0.1-0.2-0.2-0.3C88.1,83,88,83,87.9,82.9s-0.2-0.1-0.4-0.1
					c-0.1,0-0.3,0-0.4,0.1s-0.2,0.1-0.3,0.2s-0.1,0.2-0.2,0.3C86.6,83.6,86.6,83.8,86.6,83.9z"/>
				<path class="st2" d="M93.1,82.8h-1v2.7h-0.6v-2.7h-1v-0.6h2.7V82.8z"/>
				<path class="st2" d="M96.2,82.3v3.3h-0.6v-1.4h-1.5v1.4h-0.6v-3.3h0.6v1.3h1.5v-1.3H96.2z"/>
				<path class="st2" d="M99.2,85v0.6h-2.3v-3.3h2.2v0.6h-1.6v0.8h1.4v0.5h-1.4V85H99.2z"/>
				<path class="st2" d="M103,85.2c-0.3,0.3-0.5,0.4-0.9,0.4c-0.2,0-0.4,0-0.6-0.1s-0.3-0.2-0.5-0.4c-0.1-0.2-0.2-0.3-0.3-0.5
					c-0.1-0.2-0.1-0.4-0.1-0.6c0-0.2,0-0.4,0.1-0.6s0.2-0.4,0.3-0.5c0.1-0.1,0.3-0.3,0.5-0.4c0.2-0.1,0.4-0.1,0.6-0.1
					c0.3,0,0.6,0.1,0.8,0.2c0.2,0.1,0.4,0.3,0.5,0.5l-0.5,0.3c-0.1-0.2-0.2-0.3-0.3-0.4c-0.1-0.1-0.3-0.1-0.5-0.1
					c-0.1,0-0.3,0-0.4,0.1c-0.1,0.1-0.2,0.1-0.3,0.2c-0.1,0.1-0.1,0.2-0.2,0.3c0,0.1-0.1,0.3-0.1,0.4c0,0.2,0,0.3,0.1,0.4
					s0.1,0.2,0.2,0.3s0.2,0.2,0.3,0.2c0.1,0.1,0.2,0.1,0.4,0.1c0.3,0,0.6-0.1,0.8-0.4v-0.2h-0.7v-0.5h1.2v1.7H103V85.2z"/>
				<path class="st2" d="M104.1,85.5v-3.3h0.6V85h1.7v0.6H104.1z"/>
				<path class="st2" d="M108.1,85.6c-0.2,0-0.4,0-0.6-0.1c-0.2-0.1-0.4-0.2-0.5-0.4c-0.1-0.2-0.2-0.3-0.3-0.5
					c-0.1-0.2-0.1-0.4-0.1-0.6c0-0.2,0-0.4,0.1-0.6c0.1-0.2,0.2-0.4,0.3-0.5c0.1-0.2,0.3-0.3,0.5-0.4c0.2-0.1,0.4-0.1,0.6-0.1
					c0.2,0,0.4,0,0.6,0.1c0.2,0.1,0.4,0.2,0.5,0.4s0.2,0.3,0.3,0.5c0.1,0.2,0.1,0.4,0.1,0.6c0,0.2,0,0.4-0.1,0.6
					c-0.1,0.2-0.2,0.4-0.3,0.5c-0.1,0.2-0.3,0.3-0.5,0.4C108.5,85.5,108.3,85.6,108.1,85.6z M107.2,83.9c0,0.1,0,0.3,0.1,0.4
					s0.1,0.2,0.2,0.3c0.1,0.1,0.2,0.2,0.3,0.2s0.2,0.1,0.4,0.1c0.1,0,0.3,0,0.4-0.1c0.1-0.1,0.2-0.1,0.3-0.2
					c0.1-0.1,0.1-0.2,0.2-0.4s0.1-0.3,0.1-0.4c0-0.1,0-0.3-0.1-0.4s-0.1-0.2-0.2-0.3c-0.1-0.1-0.2-0.2-0.3-0.2s-0.2-0.1-0.4-0.1
					c-0.1,0-0.3,0-0.4,0.1s-0.2,0.1-0.3,0.2s-0.1,0.2-0.2,0.3C107.2,83.6,107.2,83.8,107.2,83.9z"/>
				<path class="st2" d="M112.8,84.7c0,0.1,0,0.3-0.1,0.4c-0.1,0.1-0.1,0.2-0.2,0.3c-0.1,0.1-0.2,0.1-0.3,0.2
					c-0.1,0-0.3,0.1-0.4,0.1h-1.6v-3.3h1.7c0.1,0,0.2,0,0.3,0.1s0.2,0.1,0.2,0.2s0.1,0.2,0.1,0.3s0.1,0.2,0.1,0.3
					c0,0.2,0,0.3-0.1,0.4c-0.1,0.1-0.2,0.2-0.3,0.3c0.2,0.1,0.3,0.2,0.4,0.3C112.7,84.3,112.8,84.5,112.8,84.7z M110.8,82.8v0.8h0.8
					c0.1,0,0.2,0,0.3-0.1s0.1-0.2,0.1-0.3c0-0.1,0-0.2-0.1-0.3c-0.1-0.1-0.2-0.1-0.3-0.1H110.8z M112.1,84.6c0-0.1,0-0.1,0-0.2
					c0-0.1,0-0.1-0.1-0.1c0,0-0.1-0.1-0.1-0.1c0,0-0.1,0-0.2,0h-1V85h0.9c0.1,0,0.1,0,0.2,0s0.1-0.1,0.1-0.1c0,0,0.1-0.1,0.1-0.1
					S112.1,84.6,112.1,84.6z"/>
				<path class="st2" d="M115.5,85v0.6h-2.3v-3.3h2.2v0.6h-1.6v0.8h1.4v0.5h-1.4V85H115.5z"/>
			</g>
			<path class="st3" d="M72.6,72.8v-0.7c0-0.2,0.2-0.4,0.4-0.4c0,0,0,0,0,0h6.9c0.2,0,0.4,0.2,0.4,0.4v5.2c0,0.2-0.2,0.4-0.4,0.4
				c0,0,0,0,0,0h-7.4c-1.2,0-2.3-0.6-2.9-1.5c-0.8-1.1-1.3-2.4-1.2-3.7c0-1.3,0.4-2.7,1.2-3.7c0.7-1,1.8-1.5,2.9-1.5h7.3
				c0.2,0,0.4,0.2,0.4,0.4c0,0,0,0,0,0v0.8c0,0.2-0.2,0.4-0.4,0.4c0,0,0,0,0,0h-7.3c-0.8,0-1.6,0.4-2.1,1.1c-1.2,1.6-1.2,3.7,0,5.3
				c0.5,0.7,1.3,1.1,2.1,1.1h6.1c0.2,0,0.4-0.2,0.4-0.4v-2.2c0-0.2-0.2-0.4-0.4-0.4c0,0,0,0,0,0H73C72.8,73.2,72.6,73.1,72.6,72.8"
				/>
			<path class="st2" d="M91.1,67.2h7.3c0.2,0,0.4,0.2,0.4,0.4v0.7c0,0.2-0.2,0.4-0.4,0.4h-7.3c-0.9,0-1.7,0.4-2.1,1.1
				c-1.2,1.6-1.2,3.7,0,5.3c0.5,0.7,1.3,1.1,2.1,1.1h6.1c0.2,0,0.4-0.2,0.4-0.4v-2.2c0-0.2-0.2-0.4-0.4-0.4c0,0,0,0,0,0h-5.7
				c-0.2,0-0.4-0.2-0.4-0.4v-0.7c0-0.2,0.2-0.4,0.4-0.4h6.9c0.2,0,0.4,0.2,0.4,0.4v5.2c0,0.2-0.2,0.4-0.4,0.4h-7.3
				c-1.2,0-2.3-0.6-2.9-1.5c-0.8-1.1-1.2-2.4-1.2-3.7c0-1.3,0.4-2.7,1.2-3.7C88.9,67.8,90,67.2,91.1,67.2"/>
			<path class="st2" d="M105.8,69l-4.7,8.6c-0.1,0.1-0.2,0.2-0.3,0.2h-0.6c-0.2,0-0.4-0.2-0.4-0.4c0-0.1,0-0.1,0-0.2l5.9-10.8
				c0.1-0.2,0.3-0.3,0.5-0.1c0.1,0,0.1,0.1,0.1,0.1l5.9,10.8c0.1,0.2,0,0.4-0.2,0.5c-0.1,0-0.1,0-0.2,0h-0.6c-0.1,0-0.3-0.1-0.3-0.2
				l-4.7-8.6c-0.1-0.2-0.3-0.3-0.5-0.1C105.9,68.9,105.8,68.9,105.8,69"/>
			<path class="st2" d="M116.2,69.1v8.2c0,0.2-0.2,0.4-0.4,0.4h-0.4c-0.2,0-0.4-0.1-0.4-0.4c0,0,0,0,0,0v-8.2c0-0.2-0.2-0.4-0.4-0.4
				h-4.5c-0.2,0-0.4-0.2-0.4-0.4v-0.7c0-0.2,0.2-0.4,0.4-0.4h11.1c0.2,0,0.4,0.2,0.4,0.4c0,0,0,0,0,0v0.7c0,0.2-0.2,0.4-0.4,0.4
				c0,0,0,0,0,0h-4.6C116.4,68.7,116.2,68.9,116.2,69.1"/>
			<path class="st2" d="M133.6,73.2h-7.5c-0.2,0-0.4-0.2-0.4-0.4v-0.7c0-0.2,0.2-0.4,0.4-0.4h7.5c0.2,0,0.4,0.2,0.4,0.4v0.7
				C134,73.1,133.8,73.2,133.6,73.2 M134,67.6v0.7c0,0.2-0.2,0.4-0.4,0.4c0,0,0,0,0,0h-9.9c-0.2,0-0.4,0.2-0.4,0.4v6.8
				c0,0.2,0.2,0.4,0.4,0.4h9.9c0.2,0,0.4,0.2,0.4,0.4c0,0,0,0,0,0v0.7c0,0.2-0.2,0.4-0.4,0.4c0,0,0,0,0,0h-11.1
				c-0.2,0-0.4-0.2-0.4-0.4v-9.7c0-0.2,0.2-0.4,0.4-0.4h11.1C133.8,67.2,134,67.4,134,67.6C134,67.6,134,67.6,134,67.6"/>
			<path class="st3" d="M67.4,73.2h-7.5c-0.2,0-0.4-0.2-0.4-0.4v-0.7c0-0.2,0.2-0.4,0.4-0.4h7.5c0.2,0,0.4,0.2,0.4,0.4v0.7
				C67.8,73,67.6,73.2,67.4,73.2 M67.8,67.6v0.7c0,0.2-0.2,0.4-0.4,0.4h-9.9c-0.2,0-0.4,0.2-0.4,0.4v6.8c0,0.2,0.2,0.4,0.4,0.4h9.9
				c0.2,0,0.4,0.2,0.4,0.4v0.7c0,0.2-0.2,0.4-0.4,0.4H56.3c-0.2,0-0.3-0.2-0.3-0.4v-9.7c0-0.2,0.2-0.4,0.4-0.4c0,0,0,0,0,0h11
				C67.6,67.2,67.8,67.4,67.8,67.6"/>
			<path class="st3" d="M105.9,72.9l-2.4,4.3c-0.1,0.2,0,0.4,0.2,0.5c0.1,0,0.1,0,0.2,0h4.8c0.2,0,0.4-0.2,0.4-0.4
				c0-0.1,0-0.1-0.1-0.2l-2.4-4.3c-0.1-0.2-0.3-0.3-0.5-0.1C105.9,72.8,105.9,72.8,105.9,72.9"/>
			<path class="st4" d="M32.2,86.3h1v15.5h-1V86.3z M29.3,98.2h1V86.3h-1V98.2z M44.3,81v0.9H24.5v-1h18.8c0-1.1-0.9-2-2.1-2H22v1.6
				c0,1.9,1.5,3.5,3.4,3.5h10.7v21.7h-1V84.9h-9.7c-2.4,0-4.4-2-4.4-4.4v-2.6h8.4v-4.8l-8-8l2.2-2.2l-2.2-2.2l11.4-11.4l11.4,11.4
				l-2.2,2.2l2.2,2.2l-8,8v4.8h5.2C42.9,77.9,44.2,79.2,44.3,81C44.3,80.9,44.3,80.9,44.3,81z M24.3,62.2l0.7,0.7l7.8,7.8l1.2-1.3
				l-7.8-7.8l-0.7-0.7l0.7-0.6l6.5-6.5l8.5,8.5l1.5-1.5l-10-10l-10,10L24.3,62.2z M22.7,65.1l10,10l10-10l-1.5-1.5l-0.7-0.7
				l-7.8-7.8l-5.8,5.8l7.8,7.8l0.7,0.7l-0.7,0.7l-2,1.9l-8.5-8.5L22.7,65.1z M35.1,77.9v-3.8l-2.4,2.4l-2.4-2.4v3.8H35.1z
				 M36.1,67.3L29.8,61l2.9-2.9l6.3,6.3l0.7,0.7l0.4,0.4l-2.9,2.9L36.8,68L36.1,67.3z M31.1,61l5.7,5.7l0.4,0.4l1.5-1.5l-0.4-0.4
				l-5.7-5.7L31.1,61z"/>
		</g>
	</g>
</g>
</svg>
