<svg xmlns="http://www.w3.org/2000/svg" viewBox="0 0 155 155"><defs><style>.cls-1{fill:#fff;}.cls-2{fill:#88bd24;}.cls-3{fill:#1b1b1b;}</style></defs><g id="Layer_2" data-name="Layer 2"><g id="Layer_1-2" data-name="Layer 1"><circle class="cls-1" cx="77.5" cy="77.5" r="77.5"/><path class="cls-2" d="M109.72,62.92c1.18,1,.9,4.45,1.56,4.56a7.87,7.87,0,0,0,4-1.61c-1.42,1.93-4.12,3.4-5.05,2.82S110.34,64.35,109.72,62.92Z"/><path class="cls-1" d="M109.33,65.46a9.15,9.15,0,0,0-2.94-3.29c-.49-.17-3,1.12-3.89,2.45,1.11-2.41,3.23-3.9,4.35-3.36a17.19,17.19,0,0,1,2.42,1.37A9.78,9.78,0,0,1,109.33,65.46Z"/><path class="cls-2" d="M103.5,66.35c.27,1.31,4.16,3.17,5.83,4.66s-2.07,4.46-6.51,7c3.29-2.89,6.78-5,2.74-6.71S100.05,68.05,103.5,66.35Z"/><path class="cls-1" d="M103.08,70.3s-1.8,1.79-2.86,3.11a3.77,3.77,0,0,1-1.13.87c-.36.21-.78.42-1.23.68-.09-.79-.15-1.5-.18-2l.16-.1a6.07,6.07,0,0,0,1.22-1,9,9,0,0,0,2.09-3.39A3.41,3.41,0,0,0,103.08,70.3Z"/><path class="cls-2" d="M110.78,63.36a1.38,1.38,0,1,0,2.76.08,1.38,1.38,0,0,0-2.76-.08Z"/><path class="cls-2" d="M125,62.45c1.44,1.25,1.1,5.47,1.91,5.6a9.64,9.64,0,0,0,4.89-2c-1.75,2.37-5.07,4.18-6.2,3.46S125.78,64.22,125,62.45Z"/><path class="cls-1" d="M124.54,65.57a11.11,11.11,0,0,0-3.62-4c-.59-.21-3.62,1.37-4.76,3,1.35-3,4-4.8,5.33-4.13a23.26,23.26,0,0,1,3,1.67A12.36,12.36,0,0,1,124.54,65.57Z"/><path class="cls-2" d="M117.38,66.67c.33,1.6,5.11,3.89,7.15,5.71s-2.54,5.48-8,8.61c4-3.54,8.32-6.09,3.37-8.24S113.15,68.75,117.38,66.67Z"/><path class="cls-2" d="M114.49,69.19a10.81,10.81,0,0,1-4.06,5.41c-2,1.22-3.08,3.26-5,7.37,3.47-5,6.59-5,7.9-6.64s3.5-3.81,3.5-3.81A4.23,4.23,0,0,1,114.49,69.19Z"/><circle class="cls-2" cx="127.96" cy="63.23" r="1.49"/><path class="cls-1" d="M122.15,81.33a1.86,1.86,0,1,1-1.8-1.92A1.86,1.86,0,0,1,122.15,81.33Z"/><path class="cls-2" d="M88.12,83.13c11.79-13.25,12.69-19.33,6.07-24.19-1,2.52-.06,3.6,1,6.24S94.88,74.67,88.12,83.13Z"/><path class="cls-2" d="M94.29,58.54c.17-1.34.35-3.18-4.23-7.43,3.81,2.82,5.61,4.19,5.53,8.42C94.87,58.92,94.58,58.77,94.29,58.54Z"/><path class="cls-1" d="M93.46,61.62c-.58,1.63-3.32,4.49,1.25,7.47-1.9-1.93-2.08-3.72-.81-5.87A5.86,5.86,0,0,1,93.46,61.62Z"/><circle class="cls-1" cx="93.14" cy="49.88" r="1.73"/><path class="cls-2" d="M93.69,58.93a1.33,1.33,0,1,1-1.28-1.36A1.32,1.32,0,0,1,93.69,58.93Z"/><path class="cls-2" d="M99.74,82.33c-1.58-1.43-2.27-4.82-2.57-7.37-.1-.79-.15-1.5-.19-2s0-1.07,0-1.07a14.43,14.43,0,0,0,1.15-2.68,13.28,13.28,0,0,1,.28,2.64c0,.78,0,1.62,0,2.48C98.41,77,98.51,80,99.74,82.33Z"/><path class="cls-3" d="M25.23,83.12,31,62.44h7.79l-.76,2.71H33.8l-1.68,6h4l-.75,2.66h-4l-1.84,6.58h4.41l-.76,2.71Z"/><path class="cls-3" d="M36,83.12,41.8,62.44h3.54l-5,18h4.47L44,83.12Z"/><path class="cls-3" d="M54.89,81.83a6.17,6.17,0,0,1-4.36,1.53c-1.81,0-3-.47-3.42-1.4s-.41-2.4.15-4.41l.38-1.35H51l-.4,1.43A6.29,6.29,0,0,0,50.19,80c.07.43.44.65,1.11.65a1.79,1.79,0,0,0,1.56-.79A9.53,9.53,0,0,0,54,77.07a6.55,6.55,0,0,0,.36-2.83c-.13-.57-.62-.85-1.47-.85h-1l.67-2.4h1a2.46,2.46,0,0,0,1.91-.74,6.28,6.28,0,0,0,1.15-2.45,4.39,4.39,0,0,0,.25-2.3,1,1,0,0,0-1.07-.58,1.66,1.66,0,0,0-1.35.61,6,6,0,0,0-.94,2.15l-.17.62H49.88l.18-.65a8.49,8.49,0,0,1,2.28-4.14,6,6,0,0,1,4.12-1.31c1.76,0,2.92.45,3.5,1.35s.61,2.27.09,4.1a8.17,8.17,0,0,1-1.39,2.87,4.46,4.46,0,0,1-2.23,1.54,2.32,2.32,0,0,1,1.36,1.84,8.17,8.17,0,0,1-.37,3.31A9.59,9.59,0,0,1,54.89,81.83Z"/><path class="cls-3" d="M57.68,83.12l9.1-20.68h4.68L69.19,83.12h-3.3l.48-3.69H62.62l-1.54,3.69Zm9-6.22,1.35-10.38H68L63.67,76.9Z"/><path class="cls-3" d="M85.87,67.75c-.62,2.22-1.69,3.59-3.18,4.1,1.51.49,1.89,2.12,1.11,4.88l-.14.53a9.29,9.29,0,0,1-2.48,4.49,6.37,6.37,0,0,1-4.29,1.37H71.75l5.79-20.68h5c1.73,0,2.86.35,3.38,1.07s.55,1.92.09,3.6ZM76,80.68h1.25A2.15,2.15,0,0,0,78.89,80,5.78,5.78,0,0,0,80,77.72l.47-1.67a5.07,5.07,0,0,0,.28-2.23c-.11-.44-.49-.65-1.14-.65H78.08Zm2.76-9.88h1.31a1.66,1.66,0,0,0,1.34-.51,6.63,6.63,0,0,0,.88-2.13l.35-1.25a2.4,2.4,0,0,0,.08-1.6c-.17-.27-.54-.41-1.12-.41H80.39Z"/><path class="cls-2" d="M23.18,97.27l2.95-10.53h2.66a1.83,1.83,0,0,1,1.7.68,2.68,2.68,0,0,1,0,2l-1.33,4.75a4.87,4.87,0,0,1-1.24,2.33,3,3,0,0,1-2.16.75ZM25.33,96h.59a1.1,1.1,0,0,0,.81-.29,2.42,2.42,0,0,0,.52-1l1.45-5.2a2.17,2.17,0,0,0,.1-1.16c-.09-.23-.31-.35-.68-.35h-.53Z"/><path class="cls-2" d="M32.29,97.37c-.95,0-1.53-.25-1.76-.76a3.29,3.29,0,0,1,.06-2.19l.94-3.36q.81-2.86,3.33-2.87t1.71,2.87l-.94,3.36a3.71,3.71,0,0,1-2.07,2.76A3.77,3.77,0,0,1,32.29,97.37Zm.36-1.28a.79.79,0,0,0,.66-.32,3.07,3.07,0,0,0,.42-1l1.13-4a2.42,2.42,0,0,0,.12-1q-.06-.33-.48-.33a.76.76,0,0,0-.66.32,2.89,2.89,0,0,0-.43,1l-1.13,4c-.18.65-.17,1.06,0,1.2A.55.55,0,0,0,32.65,96.09Z"/><path class="cls-2" d="M42.4,88.19c1.17,0,1.56.67,1.19,2l-2,7.07H39.83l2-7a.77.77,0,0,0,0-.61.54.54,0,0,0-.51-.22,1,1,0,0,0-.68.28,1.73,1.73,0,0,0-.43.78l-1.89,6.74H36.46l2.51-9h1.79l-.29,1a2.12,2.12,0,0,1,.8-.8A2.14,2.14,0,0,1,42.4,88.19Z"/><path class="cls-2" d="M45.48,90.9l1.35-2.57h-1l.47-1.68h2.34l-.45,1.63L46.51,90.9Z"/><path class="cls-2" d="M49.07,97.33c-.62,0-1-.11-1.17-.32a1.32,1.32,0,0,1,0-1.11l1.75-6.27h-.82l.32-1.15H50l.49-1.75h1.78l-.49,1.75h1l-.33,1.15h-1l-1.68,6c-.05.21,0,.35.08.41a2.06,2.06,0,0,0,.8.09l-.34,1.21Z"/><path class="cls-2" d="M58.43,97.27l.87-6.74-3,6.74H54.81l1.17-9h1.49l-.55,3.79L56.61,94h0l.77-1.94,1.65-3.78h1.59L60.28,92,60,94h0l.76-2,1.49-3.72h1.49l-3.79,9Z"/><path class="cls-2" d="M64.12,97.36c-.66,0-1.07-.21-1.24-.64A3.07,3.07,0,0,1,63,94.91l.16-.58a3.05,3.05,0,0,1,1.19-1.74A6.7,6.7,0,0,1,66,91.84l.59-.18.53-.16.22-.78a2.71,2.71,0,0,0,.16-1c0-.18-.18-.26-.46-.26a.76.76,0,0,0-.64.27,2.66,2.66,0,0,0-.4.93l-.12.4H64.16l.08-.27a4.07,4.07,0,0,1,1.08-1.94,2.92,2.92,0,0,1,2.08-.67c.91,0,1.49.22,1.75.67a2.65,2.65,0,0,1,0,2l-1.79,6.4h-1.8l.25-.9a2,2,0,0,1-.71.7A1.84,1.84,0,0,1,64.12,97.36Zm2.79-5a4.77,4.77,0,0,0-1.32.63A1.78,1.78,0,0,0,65,94l-.27,1a2,2,0,0,0-.1.9.36.36,0,0,0,.4.27,1,1,0,0,0,.61-.2,1.38,1.38,0,0,0,.39-.45Z"/><path class="cls-2" d="M69.08,97.27l2.51-9h1.78l-2.51,9Zm2.72-9.8.39-1.38H74l-.38,1.38Z"/><path class="cls-2" d="M74.46,97.33c-.63,0-1-.11-1.17-.32a1.35,1.35,0,0,1,0-1.11L75,89.63h-.82l.32-1.15h.82l.49-1.75h1.78l-.49,1.75h1l-.32,1.15h-1l-1.68,6c-.06.21,0,.35.07.41a2.16,2.16,0,0,0,.81.09l-.34,1.21Z"/><path class="cls-2" d="M77.09,97.27l.41-1.48H79l-.42,1.48Z"/><path class="cls-2" d="M83,97.27l3-10.53h2.71c.92,0,1.48.25,1.68.74a3.75,3.75,0,0,1-.09,2.23l-.06.22A6,6,0,0,1,89,92.3a2.65,2.65,0,0,1-2.08.81H86l-1.16,4.16Zm3.33-5.48H87a1,1,0,0,0,.85-.39,5,5,0,0,0,.59-1.49l.06-.2a3.73,3.73,0,0,0,.19-1.34c0-.27-.25-.4-.61-.4h-.63Z"/><path class="cls-2" d="M89.38,97.27l3-10.62h1.78l-3,10.62Z"/><path class="cls-2" d="M94.61,97.36c-.66,0-1.07-.21-1.24-.64a3.07,3.07,0,0,1,.07-1.81l.16-.58a3.05,3.05,0,0,1,1.19-1.74,6.7,6.7,0,0,1,1.74-.75l.59-.18.53-.16.22-.78a2.71,2.71,0,0,0,.16-1c0-.18-.19-.26-.47-.26a.75.75,0,0,0-.63.27,2.84,2.84,0,0,0-.41.93l-.11.4H94.65l.08-.27a4,4,0,0,1,1.08-1.94,2.92,2.92,0,0,1,2.08-.67c.91,0,1.49.22,1.75.67a2.7,2.7,0,0,1,0,2l-1.79,6.4h-1.8l.25-.9a2.07,2.07,0,0,1-.71.7A1.84,1.84,0,0,1,94.61,97.36Zm2.79-5a4.77,4.77,0,0,0-1.32.63,1.78,1.78,0,0,0-.56.93l-.27,1a2,2,0,0,0-.1.9.36.36,0,0,0,.4.27.91.91,0,0,0,.6-.2,1.3,1.3,0,0,0,.4-.45Z"/><path class="cls-2" d="M98.8,98.85l.31-1.09h.59a2.44,2.44,0,0,0,.53-.05.36.36,0,0,0,.26-.19.57.57,0,0,0,.1-.22,3.13,3.13,0,0,0,.07-.44l.79-8.57h1.7l-.65,4.59-.4,2.42h.14l.92-2.42L105,88.29h1.69l-4.37,9.36a2.43,2.43,0,0,1-.65.94,1.67,1.67,0,0,1-1,.26Z"/><path class="cls-2" d="M113.68,88.19c1.16,0,1.56.67,1.18,2l-2,7.07H111.1l2-7a.73.73,0,0,0,0-.61.54.54,0,0,0-.51-.22.94.94,0,0,0-.67.28,1.65,1.65,0,0,0-.44.78l-1.88,6.74h-1.79l2.52-9H112l-.29,1a2.19,2.19,0,0,1,.8-.8A2.15,2.15,0,0,1,113.68,88.19Z"/><path class="cls-2" d="M116.94,97.37c-1,0-1.54-.25-1.77-.76a3.37,3.37,0,0,1,.07-2.19l.94-3.36q.79-2.86,3.32-2.87t1.72,2.87l-.94,3.36a3.71,3.71,0,0,1-2.07,2.76A3.81,3.81,0,0,1,116.94,97.37Zm.36-1.28a.78.78,0,0,0,.65-.32,2.85,2.85,0,0,0,.43-1l1.12-4a2.25,2.25,0,0,0,.12-1q-.06-.33-.48-.33a.79.79,0,0,0-.66.32,3.1,3.1,0,0,0-.43,1l-1.12,4c-.19.65-.18,1.06,0,1.2A.58.58,0,0,0,117.3,96.09Z"/><path class="cls-2" d="M125.48,97.27l.87-6.74-3,6.74h-1.5l1.16-9h1.5L124,92.08,123.67,94h0l.76-1.94,1.66-3.78h1.58L127.33,92l-.28,2h0l.76-2,1.49-3.72h1.49l-3.79,9Z"/></g></g></svg>