<svg xmlns="http://www.w3.org/2000/svg" viewBox="0 0 155 155"><defs><style>.cls-1{fill:#fff;}.cls-2{fill:#1b1b1b;}.cls-3{fill:#ba1918;}.cls-4{fill:#9e1924;}.cls-5{fill:#191a1c;}</style></defs><g id="Layer_2" data-name="Layer 2"><g id="Layer_1-2" data-name="Layer 1"><circle class="cls-1" cx="77.5" cy="77.5" r="77.5"/><path class="cls-2" d="M61.86,91H66.4v14.44c0,2.16-1.32,3.33-3.48,3.33H55c-2.31,0-3.33-1.17-3.33-3.33v-9.9H50.06c-.87,0-1.43.72-1.43,1.74v8.16c0,2.16-1.33,3.33-3.48,3.33H37.66A8.81,8.81,0,0,1,29,99.9a9.57,9.57,0,0,1,5-8l2.3,3.89A5.14,5.14,0,0,0,33.5,99.9a4.26,4.26,0,0,0,4.16,4.34h6.43V97.29a6,6,0,0,1,6-6.28h2.65c2.16,0,3.48,1.17,3.48,3.33v9.9h5.67ZM110,104.24h-5.67V99.9c0-5.86-4.84-8.89-9.68-8.89a11.26,11.26,0,0,0-7.07,2.42l2.12,4a8.1,8.1,0,0,1,5-1.85c2.61,0,5.14,1.47,5.14,4.35v4.34H84.06V99.82A8.9,8.9,0,0,0,75.25,91a9.72,9.72,0,0,0-4.54,1.32l2.23,3.94a4.88,4.88,0,0,1,2.31-.72,4.34,4.34,0,0,1,4.27,4.27v4.42H70.18v4.54h40.91c2.15,0,3.48-1.17,3.48-3.33V91H110Z"/><path class="cls-3" d="M44.81,113.24a2.31,2.31,0,0,1-2.27,2.23,2.25,2.25,0,1,1,0-4.5A2.33,2.33,0,0,1,44.81,113.24ZM37.32,111a2.25,2.25,0,1,0,0,4.5,2.25,2.25,0,1,0,0-4.5ZM64.13,88.74a2.25,2.25,0,1,0-2.23-2.23A2.29,2.29,0,0,0,64.13,88.74ZM95,111a2.25,2.25,0,1,0,2.23,2.27A2.3,2.3,0,0,0,95,111ZM112.3,88.74a2.25,2.25,0,1,0-2.23-2.23A2.29,2.29,0,0,0,112.3,88.74Zm10.13,25.68a.89.89,0,0,1-.91-.84.92.92,0,0,1,.91-.9c.42,0,.76.19,1.4.79l1.1-2a3.48,3.48,0,0,0-2.5-1.24,3.31,3.31,0,0,0-3.33,3.32,1.89,1.89,0,0,0,.12.84h-1.63v2.42h7.56v-2.42Zm3.34-17.08a12.15,12.15,0,0,0-.78-1.91l-.52-1c0-.1-.08-.21-.12-.31-.7.33-1.14.28-1.52,0-.58-.5-.45-1.06-.12-1.65a1.19,1.19,0,0,1-.9-.54,1.08,1.08,0,0,1,0-1,1.25,1.25,0,0,1-.4-.12A1.12,1.12,0,0,1,121.1,89c.21-.23.45-.44.68-.67a.32.32,0,0,0-.06-.07,1.23,1.23,0,0,1-.43-.78,1.36,1.36,0,0,1,.14-.86,2.58,2.58,0,0,1,1-.89,4.77,4.77,0,0,0,1.11-.94l0,0,0,0V80.05h-4.53v4.36a.72.72,0,0,1,.66-.24,1,1,0,0,1,.69.45.61.61,0,0,1,.07.1,2.89,2.89,0,0,1,.14,2.74,2.94,2.94,0,0,1-.25.46c-.3.45-.63.88-1,1.32a3.18,3.18,0,0,0-.59,1.31,4.75,4.75,0,0,1-.22.92c-.23.6-.47,1.2-.74,1.78s-.61,1.2-.94,1.79a1.76,1.76,0,0,0-.19,1.43,1.14,1.14,0,0,0,.46.64c-.09.28-.2.54-.26.81a.91.91,0,0,0,.23.89,2.85,2.85,0,0,0,.49.34c0,.13-.13.28-.18.43a1.06,1.06,0,0,0,.54,1.42.13.13,0,0,1,.06.1c0,.14-.06.28-.08.43a3.27,3.27,0,0,0,.22,1.69,1.13,1.13,0,0,0,.57.63c0-.11,0-.21.08-.31a5.27,5.27,0,0,1,.19-.51,9.16,9.16,0,0,1,.59-1.17,11.55,11.55,0,0,1,1.61-2.19,3.93,3.93,0,0,1,1.43-1.06,1.12,1.12,0,0,1,.9,0,1.14,1.14,0,0,1,.48.38,2.37,2.37,0,0,1,.4,1.24c0,.47,0,.94,0,1.41v.14h0c.2-.22.41-.43.6-.65a3.31,3.31,0,0,0,.87-2.27A5,5,0,0,0,125.77,97.34Z"/><path class="cls-2" d="M122.67,90.3c-.1,0-.19,0-.29.06s-.45.06-.67.07a.55.55,0,0,1-.48-.37.71.71,0,0,1,.13-.83,4.32,4.32,0,0,1,1-.88l.21-.15a1.57,1.57,0,0,1-.24,0,.89.89,0,0,1-.71-.76,1,1,0,0,1,.41-1l.78-.5a3.53,3.53,0,0,0,1.12-1c.08-.15.13-.31.2-.48a1.3,1.3,0,0,1,.66.79,2.18,2.18,0,0,1,0,1.29,2.68,2.68,0,0,1-.45.93l0,.07c.7.25,1.08.86.46,1.78.13.08.28.14.4.23a1,1,0,0,1,.34,1,2,2,0,0,1-.26.72c0,.06,0,.1,0,.15a.92.92,0,0,1,.2,1.3,3.2,3.2,0,0,1-1.22,1.12,2.14,2.14,0,0,1-.61.23.73.73,0,0,1-.77-.36.63.63,0,0,1,0-.71c.12-.23.27-.45.4-.68l.11-.15-.49,0a1.05,1.05,0,0,1-.64-.22.72.72,0,0,1-.14-.91,1.85,1.85,0,0,1,.57-.61ZM118.06,92a6.73,6.73,0,0,0,.49-1.56,2.66,2.66,0,0,1,.45-1.16c.36-.51.73-1,1.08-1.52a2.68,2.68,0,0,0,.46-1.05,2.5,2.5,0,0,0-.08-1.38,1.31,1.31,0,0,0-.57-.79.4.4,0,0,0-.52.08,1.27,1.27,0,0,0-.28.54,9.08,9.08,0,0,1-1,1.71,8.23,8.23,0,0,0-.62.92,4.71,4.71,0,0,0-.32,3.28c.11.43.26.85.4,1.27a4.38,4.38,0,0,0,.21.45C117.84,92.53,118,92.28,118.06,92Zm6.12,8.31a2.39,2.39,0,0,0-.25-1,1,1,0,0,0-.29-.32.72.72,0,0,0-.46-.15,1.83,1.83,0,0,0-1,.41,7.35,7.35,0,0,0-1.5,1.65,11.47,11.47,0,0,0-1.32,2.37,4.63,4.63,0,0,0-.29.89v4.6h4.53v-1.71c0-.58,0-1.14,0-1.72a3.69,3.69,0,0,1,.25-1.64c.09-.19.2-.38.28-.58a1.49,1.49,0,0,0,0-.66c0-.27,0-.55,0-.82C124.22,101.21,124.19,100.78,124.18,100.34Z"/><path class="cls-4" d="M120,47.12c-.07.12-2.16,4.17-6.56,4.17a5.1,5.1,0,0,0,4.47-.6,7.27,7.27,0,0,1-6.26,3s1.19.9,3.58,0a7.9,7.9,0,0,1-6,2.69,4.46,4.46,0,0,0,3,0s-1.49,2.08-5.67,2.08l2.39.3s-1.2,1.19-4.47,1.19l2.08.6a7.5,7.5,0,0,1-4.47,1.19l2.09.3a6.81,6.81,0,0,1-3.88.9l1.19.59a9.9,9.9,0,0,1-6.31-.59h-2l1.49-1.2a2,2,0,0,0,.3-.06,5.48,5.48,0,0,0,1.21-.51h0c1.3-.76,3-2.47,3-6.28a6,6,0,0,1,3.56-5.62,8,8,0,0,1,1.56-.48c.36-.07.73-.13,1.14-.17a16.58,16.58,0,0,0,5.37-1.49,4.29,4.29,0,0,0,.94-.68l.19,0,.17,0h0l.48-.06c1.75-.28,7.63-1.42,8.64-4.71A6.6,6.6,0,0,1,115.82,48S117,48.6,120,47.12Z"/><path class="cls-3" d="M112.07,46.52h0A4.35,4.35,0,0,1,110,48.66a10.27,10.27,0,0,1-2.19.87h0a12.33,12.33,0,0,1-1.47.34s3.52,0,4.73-.9a1,1,0,0,0,.34-.37,1.87,1.87,0,0,1-.08.26,5,5,0,0,1-2.14,2.54,5.36,5.36,0,0,1-1.65.63,6.9,6.9,0,0,1-1.49.15s2.38.6,3.87-.3a2.66,2.66,0,0,1-1.21,1.39h0a4.65,4.65,0,0,1-1.65.59,7.25,7.25,0,0,1-1.3.11,3.69,3.69,0,0,0,2.68,0,2.7,2.7,0,0,1-1.21,1.39h0a4.65,4.65,0,0,1-1.65.59,7.25,7.25,0,0,1-1.3.11,3.75,3.75,0,0,0,2.68,0,2.33,2.33,0,0,1-1,1.11,4.38,4.38,0,0,1-1.65.58,7.12,7.12,0,0,1-1.21.1,2.35,2.35,0,0,0,2.09,0,2.13,2.13,0,0,1-.83.88,3.65,3.65,0,0,1-1.18.48,5.84,5.84,0,0,1-1.27.13l1.19.3s-.11.08-.32.2h0a5.37,5.37,0,0,1-1.4.56,3.71,3.71,0,0,1-1,.12l1.19.6a4.79,4.79,0,0,1-1.9.54c-.32,0-.68,0-1.08,0l.35.18.25.12a7.46,7.46,0,0,1-1.69.27q-.43,0-1,0l.89.6H93.17l1.49-1.2a2,2,0,0,0,.3-.06,5.48,5.48,0,0,0,1.21-.51h0c1.3-.76,3-2.47,3-6.28a6,6,0,0,1,3.55-5.61l.12,0,.19-.08.16-.06.08,0a5.58,5.58,0,0,1,.58-.18l.44-.1c.36-.07.73-.13,1.14-.17l.43-.05.15,0,.16,0,.18,0c.5-.08,1.15-.21,1.85-.39l.26-.06a11.85,11.85,0,0,0,1.52-.52l.21-.09.62-.31a4.22,4.22,0,0,0,.93-.68,2.25,2.25,0,0,0,.55-.81A2.2,2.2,0,0,1,112.07,46.52Z"/><path class="cls-4" d="M41,47.12c.06.12,2.15,4.17,6.56,4.17a5.1,5.1,0,0,1-4.47-.6,7.25,7.25,0,0,0,6.26,3s-1.2.9-3.58,0a7.9,7.9,0,0,0,6,2.69,4.46,4.46,0,0,1-3,0s1.49,2.08,5.67,2.08l-2.39.3s1.19,1.19,4.47,1.19l-2.08.6a7.5,7.5,0,0,0,4.47,1.19l-2.09.3a6.77,6.77,0,0,0,3.88.9l-1.2.59a9.93,9.93,0,0,0,6.32-.59h2l-1.49-1.2a2.28,2.28,0,0,1-.31-.06,5.65,5.65,0,0,1-1.2-.51h0c-1.3-.76-3-2.47-3-6.28a6,6,0,0,0-3.56-5.62,7.85,7.85,0,0,0-1.57-.48c-.35-.07-.73-.13-1.13-.17a16.58,16.58,0,0,1-5.37-1.49,4.36,4.36,0,0,1-1-.68l-.18,0-.17,0h0l-.49-.06c-1.75-.28-7.62-1.42-8.63-4.71A6.6,6.6,0,0,0,45.13,48S43.94,48.6,41,47.12Z"/><path class="cls-3" d="M48.89,46.52h0A4.35,4.35,0,0,0,51,48.66a9.86,9.86,0,0,0,2.19.87h0a13,13,0,0,0,1.48.34s-3.52,0-4.74-.9a1.08,1.08,0,0,1-.34-.37s0,.1.09.26a5,5,0,0,0,2.14,2.54,5.26,5.26,0,0,0,1.65.63,6.83,6.83,0,0,0,1.49.15s-2.38.6-3.87-.3a2.66,2.66,0,0,0,1.21,1.39h0a4.51,4.51,0,0,0,1.65.59,7.17,7.17,0,0,0,1.3.11,3.69,3.69,0,0,1-2.68,0,2.7,2.7,0,0,0,1.21,1.39h0a4.51,4.51,0,0,0,1.65.59,7.17,7.17,0,0,0,1.3.11,3.75,3.75,0,0,1-2.68,0,2.33,2.33,0,0,0,1,1.11,4.32,4.32,0,0,0,1.64.58,7.3,7.3,0,0,0,1.21.1,2.33,2.33,0,0,1-2.08,0,2.13,2.13,0,0,0,.83.88,3.65,3.65,0,0,0,1.18.48,5.77,5.77,0,0,0,1.27.13l-1.2.3.33.2h0a5.37,5.37,0,0,0,1.4.56,3.71,3.71,0,0,0,1,.12l-1.2.6a4.89,4.89,0,0,0,1.91.54c.31,0,.67,0,1.08,0l-.35.18-.25.12a7.46,7.46,0,0,0,1.69.27q.43,0,1,0l-.89.6h4.17l-1.49-1.2a2.28,2.28,0,0,1-.31-.06,5.65,5.65,0,0,1-1.2-.51h0c-1.3-.76-3-2.47-3-6.28a6,6,0,0,0-3.55-5.61l-.13,0L58,49.13l-.15-.06-.08,0a5.58,5.58,0,0,0-.58-.18l-.45-.1c-.35-.07-.73-.13-1.13-.17l-.44-.05-.14,0-.16,0-.18,0c-.5-.08-1.15-.21-1.85-.39L52.54,48A11.85,11.85,0,0,1,51,47.51l-.22-.09c-.21-.1-.42-.2-.61-.31a4.54,4.54,0,0,1-.94-.68,2.35,2.35,0,0,1-.54-.81A2.2,2.2,0,0,0,48.89,46.52Z"/><path class="cls-1" d="M104.21,79.54l-.07.91-.18.67-.26,1.33-.12,1.39-.15,1.26-.23.71-.33.68-.27.4-.52.28-.65.15-1.19.24-2.71.53L96,88.25c-.43,0-.86-.06-1.3-.06a14.5,14.5,0,0,0-3.43.41l-.17-.09v.13c-1.88.48-3.29,1.44-4.74.24l-2.1.33c-.24-.29-.48-.28-.86-.33a62.27,62.27,0,0,0-8.13-.69,12.56,12.56,0,0,0-5.87,1.66l-.16.09V88.19h-.35a4.73,4.73,0,0,0,.31-1.68,5,5,0,0,0-9.47-2.42L59.57,84l-1.18-.21L57.19,83l-.53-.94L56.42,81l.12-2,.11-.49a1,1,0,0,1-.08-.25,12,12,0,0,0-1.19-1.08s-.73-1.64-.75-1.76-.19-1.66-.19-1.66l.09-1.62.28-1.36.44-.76.54-.82.93-.88,1.12-.55,1.21-.39.94-.09.63,0,.5-.13.49-.17,1.15-1.74,0-.49.44-1.1.53-1.11-.18-.3-.1-.13-.12-.46v-.4l.13-.48.21-.49L63.8,60l-.13-.1.1-.43.32-.56.76-.71,1.07-.82.62-.68.4-.92.14-1.09-.16-1L66.74,53l-.22-.7-.08-.45-.17-1.36-.19-1.67-.17-1.22,0-.78-.06-1.31.1-1.68.23-.94.45-1.08.86-1.56.86-1.56,1-1.33L70.88,36l1-.46h.3l.31-.17,1-.77,1-.41.63-.14,1.1-.09,1.52.23.93.35,2,1.47L82,37.35l1.45,2,1,2.25L85,42.79l.73,1.61,1,2,1.91,2.67.83,1.66.32.58.87,2.2.53,1.28.53.76.25.55h.16l.36.3.78.65.45.27.63.3,1,.86.41,1.24.06.59.79,1.89,1,3.07,1,2.69,1,2.55.54,2,.06.84.56.51.38.59.48,1.15.66,1.13.63.63.47.68.39.55Z"/><path class="cls-5" d="M55.58,71.53ZM91.66,58.05c-.23-.47-.49-.54-.88-.26A.6.6,0,0,0,91.66,58.05Zm1.45,12.58c.13.23.29.46.43.68L93,70.14A1,1,0,0,0,93.11,70.63Zm-5.33,1.71-1.15,1.22A2.59,2.59,0,0,0,87.78,72.34ZM88.57,57l1.32.17v-.08l-1.31-.18Zm5,14.34,0,0h0Zm5.65,1.8v0H98.13v0ZM89.82,58.33l.87-.2c-.14-.19-.25-.39-.52-.28l0,0ZM84.19,62.4l.06.05.73-1-.06,0Zm3.24,9.48a2.73,2.73,0,0,1-1,1.4A1.6,1.6,0,0,0,87.43,71.88Zm-27,.41.82.13-.8-.22Zm8.1,5.76v0l-.85-.19,0,.07ZM91.08,88.51a.73.73,0,0,0,0,.12l.47-.11Zm-1.14-.05a.72.72,0,0,0-.24.19s0,.15,0,.18a.23.23,0,0,0,.2,0,3.33,3.33,0,0,1,.4-.16.46.46,0,0,1,.3.07l.26-.07A.84.84,0,0,0,89.94,88.46ZM61.4,70.54h0l0,0h0ZM57,70.79v0c.37.11.73.23,1.1.33.06,0,.13,0,.2,0V71Zm4.75,1.33h0Zm-.44.31h0l0,0,0,0Zm-.61-.59.47.12.58.16A1.49,1.49,0,0,0,60.66,71.84Zm-6.22,3.61a9.49,9.49,0,0,1,0-3.64,5.51,5.51,0,0,1,1.4-2.92,5.18,5.18,0,0,1,2.93-1.54,5.35,5.35,0,0,1,1.83-.11,1.55,1.55,0,0,0,.35-.07.76.76,0,0,1,.26,0l-.41.14.3.39-.74-.31,0,.09c.27.25.73.36.69.87l-.4-.38,0,0,.13.42,0,0a5.12,5.12,0,0,0-.62-.45.68.68,0,0,0-.75,0,2.27,2.27,0,0,1,1.34,1.25l-.15-.06a1.71,1.71,0,0,0-1-1l.32.3,0,0-.72-.36,0,0,.81.52,0,.07a1.66,1.66,0,0,0-1.57-.14,7,7,0,0,1,1.86.47s.13,0,.22,0l.14.09.6.54a.61.61,0,0,1,.09.16s0,.09,0,.1l.82.34.63.23,0,.09-.43,0c.71.51,1.52.79,2,1.57H64v.3h-.15c-.06-.13-.14-.16-.33-.1a1.21,1.21,0,0,0-.84.91,1,1,0,0,0,.24,1,3.76,3.76,0,0,0,1.54,1A1.18,1.18,0,0,0,65.85,75a1.37,1.37,0,0,1,.16-.18,1.63,1.63,0,0,1-1.19,1.09,1.87,1.87,0,0,1,.09,1.87c.26.1.47.2.69.27a.41.41,0,0,0,.29-.05c.56-.48,1.07-1,1.66-1.43a3.26,3.26,0,0,0,.7-.84c.38-.54.78-1.07,1.18-1.59a.68.68,0,0,0,0-.91,1.46,1.46,0,0,1-.13-.25l0-.07.95.45-.39.37,1-.42.06.09c-.32.32-.63.64-.94,1a4.37,4.37,0,0,0-.81,1.15,12.46,12.46,0,0,1,3.49-1.16l-1.07.4a13.72,13.72,0,0,0-3,1.62c-.33.23-.65.47-1,.71-.16.13-.29.27-.44.41,0,0,0,.06.06.1a.8.8,0,0,0-.83.58l.91.24,0-.07-.64-.22c.78.07,1.57.44,2.34-.07l-1-.2,0-.07c.24,0,.48.07.72.13a.52.52,0,0,0,.65-.21A5.4,5.4,0,0,1,71.74,76c.33-.17.63-.4,1-.54.72-.3,1.44-.56,2.17-.83a.22.22,0,0,1,.19,0c-.34.14-.67.27-1,.42a18,18,0,0,0-3.93,2.18,4.34,4.34,0,0,0-1.47,2.21,1.57,1.57,0,0,0,0,.16l.14-.08c.08-.17.22-.06.33,0,.82,0,1.64.08,2.45.12a.37.37,0,0,0,.17,0l-2.5-.17v-.09a15,15,0,0,0,3.35,0v-.08l-2.36-.14H72a6.45,6.45,0,0,0,2-.28h-2L74,78.65v-.06H71.83v-.06c.66,0,1.31,0,2,0a5,5,0,0,0,1.94-.4c-.55.08-1.1.19-1.66.23s-1.12,0-1.69,0a11.25,11.25,0,0,0,3.77-.62,8.19,8.19,0,0,1-3.23.22c.26,0,.51,0,.76,0a6.82,6.82,0,0,0,.79-.09c.64-.12,1.27-.25,1.91-.39.1,0,.19-.13.27-.23a12,12,0,0,1-3,.51A9.25,9.25,0,0,0,78,76.27a3.17,3.17,0,0,1-.8,1.18l0,0,.91-.8-.06.24.42-.29-.19.36a5.37,5.37,0,0,1,4.71-.12l-.48-.08a1.52,1.52,0,0,0-.48,0l.67.21V77l-1-.16a4.63,4.63,0,0,0-1-.06,9.76,9.76,0,0,0-3.28.81c-.64.27-1.25.59-1.89.85-.85.36-1.71.68-2.56,1-.46.19-.91.42-1.37.64,0,0,0,.06,0,0l2.83-.25v0h-.94a18.61,18.61,0,0,0,2.78-.5l-1.77.18v-.09l1.72-.22V79.2l-1.11.08a3.39,3.39,0,0,1,1.63-.45,5.78,5.78,0,0,0,.65-.25,2.44,2.44,0,0,1,.52-.12,6.38,6.38,0,0,0,2-.52,2.44,2.44,0,0,1,2-.07l-.12,0a4.24,4.24,0,0,0-2.67.59c-.31.15-.66.2-1,.34-.65.29-1.28.59-1.9.92a11.35,11.35,0,0,1-2.14,1,4.74,4.74,0,0,1-2.48,0c-.2,0-.41,0-.61-.08a31.48,31.48,0,0,1-4.59-1.37c-1.1-.4-2.19-.79-3.31-1.12A12,12,0,0,0,61.69,78a5.19,5.19,0,0,0-2.34.39,6.56,6.56,0,0,1-.84.23,1.69,1.69,0,0,1-.63,0l-.76-.21a.28.28,0,0,0-.39.24,2.63,2.63,0,0,0-.06.48c0,.69-.06,1.38,0,2.07a2.56,2.56,0,0,0,1.1,2.12,3.84,3.84,0,0,0,1.28.5,5.31,5.31,0,0,1,.74.24l-.11.19-.13,0a3,3,0,0,0-.74-.15,2.7,2.7,0,0,1-2.29-1.81,4.83,4.83,0,0,1,.07-3.68A4.36,4.36,0,0,1,54.44,75.45ZM74,80.3l-1.28.08A2.08,2.08,0,0,0,74,80.3Zm-1.75-.11v.12l1.61-.12Zm-3.46-.66s.1.11.17.13a5.34,5.34,0,0,0,2.18.13,1.64,1.64,0,0,0-.32-.05l-1.6-.16ZM66.35,78.3l1,.3,0-.08-1-.31ZM55,74.12a2.61,2.61,0,0,0,1,2,2.49,2.49,0,0,1-.29-.43c-.17-.36-.3-.74-.47-1.1A2.38,2.38,0,0,0,55,74.12Zm.57-.63-.41-1-.06,0A1.54,1.54,0,0,0,55.57,73.49Zm.07,2.5a1.48,1.48,0,0,0,.49,1l-.23-.66Zm.51,1.51a11.53,11.53,0,0,1-.52-1.06.64.64,0,0,0-.42-.47A3.65,3.65,0,0,0,56.15,77.5Zm.84.17a2.67,2.67,0,0,1-.7-1.22.23.23,0,0,0-.39-.14,1,1,0,0,1,.14.15c.15.26.29.52.46.76a5.85,5.85,0,0,0,.45.54C57,77.7,57,77.68,57,77.67ZM61.16,76l.87-.21,0-.07c-.32-.05-.69.11-.93-.18H62c-.63-.1-.9-.21-1-.43.69.25.69.25.87.14a2,2,0,0,1-1.44-.92c0-.32-.37-.28-.57-.51.16.06.28.09.38.14s.4.24.59.36h0c.07-.06.13-.12,0-.18s-.21-.15-.32-.2a2.74,2.74,0,0,0-1.37-.38l.18.16-.9-.27,0,.08.86.32a.09.09,0,0,0,.07,0,.42.42,0,0,1-.15,0c-.15,0-.29-.09-.44-.12l-.75-.1v.08l1,.22,0,.07-1.65-.32,0,.08,1.16.28H57.27l.89.21a.85.85,0,0,1-.73,0,7,7,0,0,1-.67-.34,2.64,2.64,0,0,1-.66-.36c-.4-.39-.84-.8-.75-1.45,0,0,0,0-.09-.11,0,.12-.14.22-.12.29a4.12,4.12,0,0,0,.23.58,3.84,3.84,0,0,0,.93,1.36L56,74a.55.55,0,0,0,.69.27l-.14.1,1,.19v0l-1.75-.13c.1.17.2.29,0,.35.2.16.18.3,0,.45.08,0,.2,0,.24,0A2.38,2.38,0,0,0,57,76a.16.16,0,0,1,.08.08c.11.25.21.5.3.76-.1-.12-.29-.1-.32-.32s-.19-.19-.3-.27l-.91-.63c0,.06.05.14.1.19l.8.69-.11.09-.2-.08c.14.24.24.43.36.61a1.35,1.35,0,0,0,.16.19l0,0-.3-.65c.1,0,.24,0,.31.13a2,2,0,0,1,.4.48,1.71,1.71,0,0,0,.44.49.94.94,0,0,0,.71.25,1.37,1.37,0,0,1-.83-.94c.75.5,1.33.72,1.64.62a2.84,2.84,0,0,1-1.59-.93l.84.53,0-.06-.8-.59,0,0,.63.37,0,0L58,76.48a5.57,5.57,0,0,0,1.06.54l-.92-.76,0-.05.25.14a2.27,2.27,0,0,0-.24-.34c-.08-.1-.15-.21-.22-.31.36.3.61.72,1.09.86l-.75-.93,0,0,.54.58L59,76l.47.44,0,0-.82-1.07c.56.35.83,1,1.47,1.29l0,0-.2-.25c.44.32.52.36.69.32l-.53-.43,0-.06a1.38,1.38,0,0,0,1,.4,1.74,1.74,0,0,1-.89-.56,6.75,6.75,0,0,0,.79.36.94.94,0,0,0,.85-.12l-.66,0,.55-.19,0,0Zm-2.84-2.61.78.17c0-.06-.08-.14-.13-.15-.29-.07-.58-.11-.87-.16l0,.09Zm2.49.94a.11.11,0,0,0,0,.08,1.79,1.79,0,0,1,.6.46c0,.06.16.06.25.09l0-.06-.25-.16.46,0v0l-1-.4h-.16Zm.16,0,.72.2v0L60.94,74Zm-3.68-4.63,0-.06,1-.46s0,0,0,0h-.1a2.7,2.7,0,0,0-1.84,1.36l.28-.2c-.17.38-.21.41-.55.46-.21.22-.43.44-.63.67,0,0,0,.12,0,.18l.19-.07-.07.24a3.25,3.25,0,0,0,.06.45,2.18,2.18,0,0,0,.21.47,2.86,2.86,0,0,0,.29.36c-.15-.4-.3-.76-.44-1.12l.08,0a2.53,2.53,0,0,1,.2.49c.07.36.16.47.53.51l-.3-.89.13,0c.07.31.15.62.23.93a1.91,1.91,0,0,0,1.44.6c-.18-.1-.37-.16-.54-.26a1.78,1.78,0,0,1-.45-.37,2.78,2.78,0,0,1-.24-.49l.07,0c.18.38.36.76.9.88-.26-.26-.48-.47-.48-.77a2.25,2.25,0,0,0,2.2.62l-.17.09.17.12L59,73.21c.17.11.31.32.55.17a.17.17,0,0,1,.14,0c.22.11.42.24.64.35a.34.34,0,0,0,.17,0,.45.45,0,0,0-.11-.13L60,73.34c1.23.4,1.51.44,1.7.2l-1-.14v-.06h.63v-.07l-.39,0v-.06h.83a.88.88,0,0,0-.17-.12,6.84,6.84,0,0,0-2.2-.35,6.85,6.85,0,0,1,2.34.22,5.67,5.67,0,0,0-1.86-.48,6.85,6.85,0,0,1,.79,0,4,4,0,0,1,1.54.51s.1,0,.16,0a.32.32,0,0,0-.08-.14,1.31,1.31,0,0,0-.21-.08l-.72-.31.77.22,0-.09-1.5-.53a1.46,1.46,0,0,0,.31,0,3.35,3.35,0,0,1,1.36.54c.15.09.23.08.34-.06a2.74,2.74,0,0,1-.38-.15l-.5-.29h.11a1.42,1.42,0,0,0,1.27.1,3.77,3.77,0,0,1-1.85-.92.28.28,0,0,1,.13,0l.14,0c.1-.21.15-.23.31-.09s.42.34.71.25l.07,0-.1-.09h.07c0-.06,0-.15,0-.19a7.15,7.15,0,0,0-.57-.53,1.2,1.2,0,0,0-.4-.22c-.05,0-.13,0-.2.06l-.14-.36-.19.48c-.18-.21,0-.33.09-.49l-.59-.75-.09,0c.07.27,0,.28-.19.27l-.37,0,.23.17c-.07,0-.12,0-.17,0a2.53,2.53,0,0,0-.9-.07,1.53,1.53,0,0,1-.52,0l.13.25-.72-.2.21-.11-.13-.14,1.48-.11A4.29,4.29,0,0,0,57.29,69.66Zm-1.4.85,2-1.67a2.4,2.4,0,0,0-.6.29c-.47.44-.91.91-1.35,1.36C55.88,70.5,55.89,70.53,55.89,70.51Zm2.87-2.89a2.51,2.51,0,0,1,2.06.38A1.66,1.66,0,0,0,58.76,67.62ZM54.93,72c.62-1.79,1.56-3.24,3.61-3.56a2.75,2.75,0,0,0-1.58.28,7.18,7.18,0,0,1,2.11-.91l0-.08-.45.06a3.65,3.65,0,0,0-.95.21,8.64,8.64,0,0,0-1.31.85,3.93,3.93,0,0,0-1.34,2A1.31,1.31,0,0,0,54.93,72Zm-.3,1.89.09.66.09,0c0-.22-.07-.43-.11-.65Zm3.25-3.68.64.21C58.24,70.15,58,70.09,57.88,70.24Zm35.87-12.9A8.68,8.68,0,0,1,93,56.7a2.47,2.47,0,0,0-.85-.58A2.53,2.53,0,0,0,93.75,57.34ZM57.55,70.5l.73.17A.63.63,0,0,0,57.55,70.5Zm-.25.2.86.17A1,1,0,0,0,57.3,70.7Zm-.69.83-.26,0,0-.09,1,.15-.19-.21.54.16,0,0-.43-.26.5.08,0-.1L56.66,71l0,.08.15,0v0l-.58,0v0l.19,0v.07l-.83.22,1,.06ZM87.92,53.36l-1-1.79A3.62,3.62,0,0,0,87.92,53.36ZM72.22,38.13l.54.12-.16.08a9.18,9.18,0,0,1,3,1.23A5.31,5.31,0,0,0,72.22,38.13Zm4.44,8.25c.07-1,.14-2.06.2-3.07l.06.11,0-.28a5.24,5.24,0,0,1,.11,2.73A7.6,7.6,0,0,0,77,43.54a17.46,17.46,0,0,0,.12,3.31l0-.1h0l-.07.87c0-.3-.16-.37-.43-.44a1.16,1.16,0,0,1-.62-.49c-.26-.52-.45-1.09-.66-1.64a.6.6,0,0,1,0-.3A2.61,2.61,0,0,0,76.66,46.38Zm-.48-.11.43.53,0,0-.27-.23a.75.75,0,0,0,.62.46A.94.94,0,0,0,76.18,46.27Zm-.27-10.86v0H74.76v0Zm-2.74,1.92a4.8,4.8,0,0,1,2.38.65,6.69,6.69,0,0,1,1.65.93c.32.3.64.6,1,.91a5,5,0,0,0-2.78-2.26,5.23,5.23,0,0,0-2.25-.3C73.13,37.31,73.15,37.33,73.17,37.33Zm4.16,6.49c0,.88-.07,1.8-.1,2.72A6.6,6.6,0,0,0,77.33,43.82Zm-.45-1.34-.38-.68,0,0,.37.69Zm-2.6,6.92.14.2-.2.21a5.78,5.78,0,0,0,.59,0,4.34,4.34,0,0,1,.48-.14c.13,0,.22,0,.29-.13s.13,0,.19.05l0-.06.46-.26v0l.47-.43C75.87,49.07,75.22,49.77,74.28,49.4Zm1.6-.42.42-.25-.18-.29-.46.26v0l.35,0-.17.15Zm-1,1.13,0,.07,1-.36A4.12,4.12,0,0,0,75,50,.65.65,0,0,0,74.87,50.11ZM74.69,52c0,.25-.09.51-.14.73A.48.48,0,0,0,74.69,52Zm-.47-3,.41-.41C74.15,48.67,74.12,48.71,74.22,49Zm-1.29,4.52a2.73,2.73,0,0,0,1.21-.78l-.1,0c-.39.21-.77.44-1.17.61a.47.47,0,0,1-.69-.4c-.05-.36-.07-.73-.1-1.1s0-.65-.07-1h-.1c0,.69.06,1.38.14,2.06C72.11,53.49,72.44,53.66,72.93,53.53ZM61.34,67.11c.42-.64.82-1.23,1.21-1.84a.38.38,0,0,0,.08-.23,3,3,0,0,1,.69-2,2.92,2.92,0,0,0,.21-.32.28.28,0,0,0,0-.25,1.77,1.77,0,0,1-.18-1.69A14.89,14.89,0,0,1,64.32,59a2.17,2.17,0,0,1,.23-.3l.07.07-.45.58.07.05c.62-.8,1.58-1.27,2.09-2.19-.46.35-.94.68-1.38,1.05a8.24,8.24,0,0,0-1,1,2.75,2.75,0,0,0-.31.67,1.8,1.8,0,0,1,.62-1.33,15.74,15.74,0,0,1,1.49-1.21,3.06,3.06,0,0,0,1-1.54,3.93,3.93,0,0,0-.1-2.62,11.92,11.92,0,0,1-.38-1.87c-.12-.83-.19-1.66-.28-2.5a1.07,1.07,0,0,1,0-.43c.1.86.21,1.72.29,2.58a6.69,6.69,0,0,0,.48,1.87,5.56,5.56,0,0,1,.27,2.77c-.06.52-.21,1-.32,1.55,0,0,0,.08,0,.13a2.09,2.09,0,0,0,.48-1,9.87,9.87,0,0,0-.13-3.79c-.11-.67-.2-1.35-.33-2s-.28-1.24-.4-1.87a9.32,9.32,0,0,1-.12-2.47A7.61,7.61,0,0,1,67,43.6a7.22,7.22,0,0,1,1.52-2.29.29.29,0,0,0,.07-.16,5.32,5.32,0,0,0-2,2.69l-.06,0c.12-.33.23-.66.37-1a4.87,4.87,0,0,1,1.69-2c.45-.31.94-.57,1.41-.86a1.07,1.07,0,0,0,.28-.28,5.62,5.62,0,0,0-2,1.11l0-.08,2.18-1.62,0-.06-.84.48,0-.07,1.29-.93,0-.06-.21,0,0,0,.74-.64-.42-.09.16-.17c.21-.26.52-.48.47-.88,0,0,0-.06.07-.09-.55-.08-.85.31-1.21.58a7.25,7.25,0,0,0-1.69,1.76l1.24-.84.05.07a8.51,8.51,0,0,0-2.11,1.95l.89-.62,0,0c-.49.59-1.23.92-1.58,1.64l.89-.75,0,.06a3.36,3.36,0,0,1-.55.52A3.68,3.68,0,0,0,66,43.69a14.71,14.71,0,0,0-.08,3.38,2.57,2.57,0,0,1,0,.48,14.67,14.67,0,0,1,0-4.08,8.07,8.07,0,0,1,.44-1.25,10.77,10.77,0,0,1,.91-2c.34-.53.6-1.1.93-1.63a8.29,8.29,0,0,1,3.15-2.9,1.31,1.31,0,0,1,.86-.22c.07,0,.17-.06.24-.12a5.37,5.37,0,0,1,2-1.12,6,6,0,0,1,1-.22,6.13,6.13,0,0,1,5.22,1.86,15.07,15.07,0,0,1,2.53,2.88A16.3,16.3,0,0,1,84.32,41,22.35,22.35,0,0,0,86.41,45a11.68,11.68,0,0,1,.8,1.53,5.79,5.79,0,0,0,1.09,1.55A5.71,5.71,0,0,1,89.4,50c.21.51.46,1,.66,1.51.31.77.6,1.55.88,2.34a4.28,4.28,0,0,0,.72,1.39,1,1,0,0,1,.34.85,16.91,16.91,0,0,1-3.69-2.24l0-.09,2,1.28,0,0c-.15-.15-.28-.3-.43-.44-.43-.42-.88-.82-1.29-1.25a8,8,0,0,1-1.21-1.82c-.33-.63-.71-1.23-1.07-1.84a.19.19,0,0,1,0-.15l.93,1.2a12.82,12.82,0,0,0-3.53-5.16c.12.17.22.35.35.51s.27.32.4.48l0,.05-.26-.17,0,0L85.41,48l0,0-1.5-1.25,0,0a1.08,1.08,0,0,0,.11.18c.45.68,1,1.33,1.35,2A10.58,10.58,0,0,1,86,50.71a8.33,8.33,0,0,0,3.25,4.39,20.41,20.41,0,0,0,2.1,1,6.63,6.63,0,0,1,.6.29.51.51,0,0,1,.2.21,7.8,7.8,0,0,0-2.28-.58,6.71,6.71,0,0,1,1,.52,9.05,9.05,0,0,1,1,.89.77.77,0,0,0,.67.29,4.51,4.51,0,0,1,.81.07,1.11,1.11,0,0,0,.28-.07l1.84,1.42,0-.06a3.11,3.11,0,0,0-1.16-1.4l.06-.07L95,58a2.11,2.11,0,0,1,.89,1.78,3.74,3.74,0,0,0,.52,1.42,18,18,0,0,1,1.52,4.07,8.75,8.75,0,0,0,.94,2.39,9.51,9.51,0,0,1,1,2.73c.18.79.3,1.61.45,2.41a1,1,0,0,0,.19.34A10.17,10.17,0,0,1,102,75.93a1.59,1.59,0,0,0,.62.87,1.75,1.75,0,0,1,.39.55,17.58,17.58,0,0,1,1,1.55,2.24,2.24,0,0,1,0,2,4.2,4.2,0,0,0-.25,1.06c-.12,1-.18,2-.32,3a4,4,0,0,1-.35,1c-.12.26-.27.51-.39.77a.9.9,0,0,1-.67.5c-1.12.26-2.24.52-3.37.74q-1.14.23-2.31.36a16.79,16.79,0,0,0-1.76-.11l.81-.08c.82-.09,1.65-.17,2.47-.29,1-.13,2-.29,3-.45a5.12,5.12,0,0,0,.84-.2,1.91,1.91,0,0,0,1.29-1.31,9.1,9.1,0,0,0,.28-3.52,5.81,5.81,0,0,0-.14-1.1c-.08-.33-.26-.64-.37-1-.43-1.29-2-1.59-3-1.42a1.82,1.82,0,0,0-1.25.66,1.7,1.7,0,0,0-.29.71,2.14,2.14,0,0,1-.28.92,3.18,3.18,0,0,0-.19.57c0,.11-.11.21-.16.32l0-.07-.34.08-.86.21c-.49.14-1,.29-1.45.41a3,3,0,0,1-.84.09,5.72,5.72,0,0,0-2.28.4c-1.06.41-2.09.93-3.15,1.36a17.82,17.82,0,0,1-1.92.6c-.94.25-1.89.47-2.84.71-.76.19-1.51.41-2.28.56a10.89,10.89,0,0,1-1.52.09c-.42,0-.84,0-1.26,0-1,0-2,0-3-.06a10.93,10.93,0,0,1-1.13-.15l0,.09a2.74,2.74,0,0,0,.59.2,6.31,6.31,0,0,1,2,.63,12.67,12.67,0,0,0,1.48.46c.29.1.57.22.85.33a4.36,4.36,0,0,0,.84.28,28.15,28.15,0,0,0,4.86.16c.56,0,1.12-.15,1.68-.15.82,0,1.65,0,2.54.06l-.17.3c-.09.16-.11.34,0,.44l.11.05a14.07,14.07,0,0,0-3.3,1.78h0c-.12.08-.23.17-.34.26l.26-.52,0,0L84.85,92l-.12.09,0,0L86,90.16,85,90l.13-.19v0l-.16.12a.45.45,0,0,1-.2.09l-1.14-.16.38-.41c-.35.14-.57.63-1.08.32l.55-.61c-.43.1-.55.69-1.13.63l.44-.55,0-.05c-.09.08-.21.16-.25.26-.12.29-.36.29-.61.29l-.33,0,.43-.57-.05,0-.39.49-.09-.06.22-.4-1.14-.22-.27-.08a1,1,0,0,0-.93.17l-.12-.05.12-.14a2,2,0,0,0-.26.09,10.82,10.82,0,0,0-1.58-.42h0a12.2,12.2,0,0,0-2.18-.21,12.56,12.56,0,0,0-5.87,1.66l-.16.09v-.37l0-.08,0,0V88.19h-.35a4.73,4.73,0,0,0,.31-1.68,3.82,3.82,0,0,0-.06-.68q.72.06,1.44.09c1.41.08,2.82,0,4.23.06.22,0,.44,0,.66,0a27.14,27.14,0,0,0,4.68.16c1.19-.09,2.37-.31,3.54-.51A20.74,20.74,0,0,0,86,85.19a6.45,6.45,0,0,0,2.22-.77l.12-.08,0-.24.22.15c.06-.07.08-.14.13-.16A1.4,1.4,0,0,1,89,84c.19,0,.18-.19.13-.3a.31.31,0,0,0-.27-.12,1.49,1.49,0,0,0-.39.17l.21-.2,0-.06a2.22,2.22,0,0,0-.45.06L86,84.22a6,6,0,0,1-1.87.37l0-.07.66-.2c.92-.29,1.85-.56,2.76-.88a11.64,11.64,0,0,0,1.31-.68,1.72,1.72,0,0,1,.55-.3c.13,0,.22-.23.33-.37a.36.36,0,0,0,.55-.25.39.39,0,0,0-.09-.31,2,2,0,0,0-1-.26,1.64,1.64,0,0,0-1,.36.88.88,0,0,1-.34.15,18.88,18.88,0,0,1-3.8.65h-.32l0-.09a3.59,3.59,0,0,1,.51-.2,7.58,7.58,0,0,1,.93-.17c.31,0,.29-.34.45-.49s.07-.13.13-.24l0,.41.27,0,0,0s.07.08.09.07a8.38,8.38,0,0,0,1.26-.38,5.41,5.41,0,0,0,.9-.63.64.64,0,0,1,.22-.1l-.37.45.3,0-.22.19.47-.09L89,81a1.22,1.22,0,0,0-.33,0l-.32,0c.45-.13.9-.27,1.36-.36s.78-.09,1.17-.17H90v-.06l.83-.07V80.3H90v-.07h.68l-.28-.63.08-.08c.45.33.92.65,1.36,1s.85.72,1.26,1.11a2.07,2.07,0,0,0,1,.37l-.11.18c.37-.08.71-.15,1-.24.06,0,.11-.12.13-.19a1.69,1.69,0,0,0-.35-1.49c-.27-.38-.6-.71-.89-1.07-.15-.18-.27-.38-.41-.57l0,0,.69.75,0,0-.9-1.57.09,0c.26.34.53.69.79,1a12.39,12.39,0,0,1,1.42,2.51.22.22,0,0,0,.19.12c.3,0,.61-.06.91-.1S97,81.15,97,81s-.12-.6-.18-.89l.06,0,.09.24c0,.11.06.21.09.34l.15-.37c.1.14.18.18.21,0s.11-.64.14-1,0-.46,0-.69a1,1,0,0,1,.12-.31,3.38,3.38,0,0,0-2.21-1.62,6.21,6.21,0,0,1,.72.94,5.24,5.24,0,0,1,.67,1.62,2.33,2.33,0,0,0,.08.36l-.07,0c-.23-.35-.47-.69-.69-1A4.36,4.36,0,0,0,95,77.16l-.16-.07.95,1.13,0,0a.41.41,0,0,1-.11-.07c-.39-.44-.76-.91-1.18-1.32a3.22,3.22,0,0,0-.82-.44c-.12-.06-.29-.07-.37-.16a2.13,2.13,0,0,0-1-.5c-.39-.15-.79-.26-1.19-.37a3.56,3.56,0,0,0-.65-.13,1.12,1.12,0,0,1-1-.46c-.1-.18-.27-.19-.41,0a1,1,0,0,1-.18.16l.11.2a4.83,4.83,0,0,1-1.14.09c-.41-.08-.83-.13-1.24-.2a7.18,7.18,0,0,0-2.26-.17.29.29,0,0,1-.22-.07,2.9,2.9,0,0,0-1.7-.7c-.79-.09-1.6-.09-2.4-.18a8,8,0,0,1-1.6-.32,6.46,6.46,0,0,0-2.47-.26c-.65,0-1.3.11-1.95.09a2.19,2.19,0,0,1-.81-.31A1.61,1.61,0,0,0,72.2,73a2.63,2.63,0,0,1-1.86-.49,1.38,1.38,0,0,0-1.16,0c-.28-.58-.55-1.17-.85-1.76-.11-.2-.31-.34-.33-.6s-.2-.25-.34-.31-.57-.15-.87-.23v-.3l-.05,0c0,.08-.09.16-.15.29l-.44-.8-.14.6-.08,0a2.26,2.26,0,0,0,0-.45.71.71,0,0,0-.14-.39,4.58,4.58,0,0,0-1.43-1,4.76,4.76,0,0,0-2.88-.39ZM91,80.22l.07-.07-.42-.39-.06.07Zm-.77,1.9,0,.1L91.1,82l0-.1Zm1.2.34,0-.1-.93.32,0,.1Zm.79-.5a1.36,1.36,0,0,0-.27,0,8,8,0,0,0-.84.22c-.39.13-.78.28-1.16.42l0,.13L92.18,82ZM70.61,71.78a5,5,0,0,1-.84-2.51A2.39,2.39,0,0,0,70.61,71.78Zm8,1,0-.09-.5.24.06.11ZM80,71.33l-2.18,1.5A3.45,3.45,0,0,0,80,71.33Zm-.13,1.18-.06-.08-.57.42.06.08Zm.14-.64L80,71.79l-.85.73.06.08C79.46,72.36,79.75,72.12,80,71.87Zm.45.19h0v.61h0Zm6.26,1.75-.63.34C86.33,74.09,86.62,74.16,86.74,73.81Zm.74.23,0-.07-.58.43.06.06Zm1-.75-.91,1A1.87,1.87,0,0,0,88.44,73.29Zm-.73.08.51-.58-.09-.07-.49.59Zm1.55-.64-1.42,1.72A3,3,0,0,0,89.26,72.73Zm.46.25-.09-.07-.69.93.09.07Zm3,2.55L91,73.24c-.19.57-.38,1.17-.57,1.76l2.23.59Zm-1.22-7.16.07.66h.12l-.06-.67Zm.1-.61.15.52h.07a2.62,2.62,0,0,0,0-.28c0-.13,0-.25-.08-.37S91.55,67.63,91.58,67.76Zm1.36,5.11a15.7,15.7,0,0,0-.88-2.58A4.87,4.87,0,0,0,92.94,72.87Zm1.94,3.82-.66-.24,0,.08.68.23Zm6.18-.39A7.56,7.56,0,0,0,97,76.11l.1-.16-1.73.49c1.15.53,2.34,1,2.84,2.25a2,2,0,0,0,.39-.2,1.55,1.55,0,0,1,1.61-.14c.85.27,1.73.47,2.6.71a.52.52,0,0,1,.16.06,1.23,1.23,0,0,1,.59,1c.07.4.12.8.19,1.28.07-.11.12-.16.13-.22a3.21,3.21,0,0,0-.15-2.5A4.75,4.75,0,0,0,101.06,76.3Zm-.42-1.1c-.36-.21-.73-.07-1.09,0a6.44,6.44,0,0,0,1,.17S100.6,75.25,100.64,75.2Zm-1,.29,1,.17,0-.07A1.58,1.58,0,0,0,99.66,75.49Zm1.31-.35c-.09,0-.21,0-.32.06l.42.25.06,0C101.08,75.32,101.05,75.17,101,75.14ZM89.57,56.36a7.46,7.46,0,0,1-1.25,0,7.91,7.91,0,0,1-1.26-.47,2.22,2.22,0,0,0,.25.44,2.54,2.54,0,0,0,.52.41,3.6,3.6,0,0,0,1.81.47.48.48,0,0,1,.48.31,8.74,8.74,0,0,1-2.84-.5,3.08,3.08,0,0,0,2.53.87,1.83,1.83,0,0,0-.28.4.26.26,0,0,1-.31.19l-.33,0a6.75,6.75,0,0,0-1.68-.09,3.91,3.91,0,0,1-.83-.06c-.06,0-.17,0-.19,0a1.68,1.68,0,0,0-.24.46c-.08.24-.12.49-.19.78l-.07-.16a.76.76,0,0,0-.11.16A17.54,17.54,0,0,1,84,62.37a1.53,1.53,0,0,0-.38.67c0,.17-.31.32-.48.46a3,3,0,0,1-1.06.68,8,8,0,0,0-1,.41c-.07,0-.17.11-.17.17,0,.69-.17,1.35-.15,2,0,1-.06,1.9-.1,2.84,0,.51-.09,1-.09,1.54a1.75,1.75,0,0,0,.51,1.32l0-.14c.44.94,1.41,1,2.25,1.45l-.36,0a7,7,0,0,0,1.28.58,1.23,1.23,0,0,0,1.35-.27l-.26,0L86,74a4.89,4.89,0,0,1-1.62-.06c.93.19,1.79-.31,2.67-.25.36-.44.71-.84,1-1.27a3.33,3.33,0,0,0,.46-1.55l0,.31h.11c0-.49.09-1,.14-1.47h.11V71H89a13.93,13.93,0,0,0,.21-1.72v2h.06a6,6,0,0,0,.14-1.94c-.16-.63-.32-1.26-.48-1.91a9,9,0,0,1,.88,2.94c.14-1.28-.41-2.43-.62-3.64.1.21.2.41.29.62l.09,0L89.12,66l.06,0,.73,1.77.08,0c-.27-.78-.53-1.56-.8-2.35a12.39,12.39,0,0,1,.87,1.75,18.45,18.45,0,0,1,.47,2,19.05,19.05,0,0,0-1.14-5.48c.16.34.33.68.51,1.07V62.1l0,0,.31.47c0-.2.07-.41.1-.62a1.38,1.38,0,0,1,0,.45c0,.5,0,1,0,1.49a6.78,6.78,0,0,0,.22,1.07c.07.26.16.51.24.77s.08.29.13.47c.87-.76,1.24-1.89,2.19-2.49-.11.25-.2.5-.32.74s-.4.75-.61,1.11a2.81,2.81,0,0,0-.54,2.09h0l.19.19a2.43,2.43,0,0,0,.2-.25.59.59,0,0,0,.06-.14c.21-.42.41-.85.62-1.28.06,0,.08.09.07.12-.17.69-.34,1.39-.5,2.08a2,2,0,0,0-.12.84c.22.73.52,1.44.8,2.15.06.16.15.31.22.46l-.06,0a9.23,9.23,0,0,1-1-2,4.43,4.43,0,0,0,.25.95c.21.54.45,1.08.65,1.63a.29.29,0,0,0,.32.23s0-.12,0-.15c.24-.32.58-.62.16-1a.06.06,0,0,1,0,0,3.44,3.44,0,0,0,.27.27c.13.11.12.2,0,.32a1.12,1.12,0,0,0-.14.29l.08,0c0-.07.1-.15.16-.22L94.1,72a5.59,5.59,0,0,0-.66,1.61l.67-1.22.08,0a4.31,4.31,0,0,0-.67,1.52c.08-.12.13-.26.2-.38.26-.43.51-.86.79-1.27A.6.6,0,0,1,95,72a9.43,9.43,0,0,0-.68.81,2,2,0,0,0-.46.89,1.22,1.22,0,0,0,.29-.31c.2-.32.39-.65.62-1a.58.58,0,0,1,.54-.26,3,3,0,0,0-1,1.15l1.42-.87,0,0-.18.13A5.69,5.69,0,0,0,94,74.31a1.6,1.6,0,0,0-.38,1.09.59.59,0,0,0,.14-.06.28.28,0,0,0,.14-.1l.17-.31a6.92,6.92,0,0,1,1.55-1.69,7.41,7.41,0,0,0-1.9,2.8l1.42.35c.05,0,.11,0,.16,0L97,75.65a4.55,4.55,0,0,0,1.38-.49.59.59,0,0,1,.29-.1c.67-.06,1.34-.1,2-.15,0-.17-.14-.15-.26-.15H98.56v-.05l2.37-.13a1.16,1.16,0,0,0-1.1-1c-.36,0-.72,0-1.08,0v0l1.29-.08L100,72.8h-.08l0,.19c-.15-.72-.26-1.44-.45-2.13a7,7,0,0,0-.73-2A7.21,7.21,0,0,1,98,67.07c-.31-.94-.58-1.89-.89-2.83-.2-.6-.42-1.2-.64-1.8a10.22,10.22,0,0,0-.43-1.21,12.75,12.75,0,0,0-1.62-2.48,1.34,1.34,0,0,0-.59-.45,15,15,0,0,0-1.64-.22.9.9,0,0,1-.6-.67,2.26,2.26,0,0,1-.28-.19c-.1-.08-.17-.21-.27-.26-.36-.18-.72-.35-1.09-.51A1.22,1.22,0,0,0,89.57,56.36Zm-7.43,7.46-.93.58A1.22,1.22,0,0,0,82.14,63.82Zm3.27-6.17a1.28,1.28,0,0,0-1.14,0A1.46,1.46,0,0,0,85.41,57.65Zm-.93.9-1.83,1,0,.07,1.85-1Zm1.2-1.6c-.36-.21-.73-.33-1.07-.53a1,1,0,0,1-.56-1,1.63,1.63,0,0,0,1,1,2.34,2.34,0,0,1-.45-1.29c0-.49,0-1,0-1.48s0-1-.1-1.55a3.37,3.37,0,0,0-.19-.59l-.07,0c0,.35.19.71,0,1.1l-.08-.26c0,.3,0,.56-.08.81-.09.53-.23,1-.29,1.58a2.08,2.08,0,0,0,.07.93,2,2,0,0,0,1.27,1.16A2.69,2.69,0,0,0,85.68,57Zm.14-2.6c0,.72,0,1.45.06,2.17a2.15,2.15,0,0,0,1.64,1.58.06.06,0,0,0,0,0l-.1-.09a1.81,1.81,0,0,1-.61-.85,10.78,10.78,0,0,1-.46-2.51c-.09-.63-.2-1.26-.33-1.88a3.37,3.37,0,0,0-.28-.61c0,.38.1.74.12,1.1S85.82,54,85.82,54.35ZM84,47.9a10.7,10.7,0,0,0,.88,2.51c.5.94,1,1.86,1.49,2.81a4.43,4.43,0,0,0,3.1,2.42l.35,0,0-.1c-1.56-.78-3-1.69-3.61-3.44l.16.17-2.4-4.57C84,47.85,84,47.88,84,47.9Zm-.24,1.89.6,1a5.34,5.34,0,0,1,1,3.42,6.28,6.28,0,0,0,0,1,1.62,1.62,0,0,0,.37,1.11c0-.29-.06-.57-.06-.86,0-.72.08-1.43,0-2.14A2.27,2.27,0,0,0,85,51.38l0-.06a6.11,6.11,0,0,0-.36-.61c-.23-.33-.49-.65-.74-1Zm-.47,4.05a3.46,3.46,0,0,0-.21,2.22,2,2,0,0,0,1,1.27.74.74,0,0,0,.74,0l-.45-.3a1.6,1.6,0,0,1-.75-1.16,6.17,6.17,0,0,1,0-2c0-.39.07-.79.1-1.19C83.62,53.08,83.49,53.47,83.33,53.84Zm-1.42-2.08-.07,0-.24-.28-.06,0A4,4,0,0,1,82,53.45l.13.17a3.1,3.1,0,0,0-.8-3Zm-.28,4.52c.14-.36.27-.71.41-1.06l.06,0-.07.34c.62-1.06.85-2.63.52-3-.19.59-.38,1.21-.59,1.83A4,4,0,0,0,81.63,56.28Zm1.61-3.07h.08a5.69,5.69,0,0,0-.08-3.44l-.11.1,0-.4a3.76,3.76,0,0,0-.21.78,6.57,6.57,0,0,0-.1,2.21,1.09,1.09,0,0,0,.27.59c0-.41-.1-.76-.12-1.12s0-.7,0-1H83c.07.38.17.76.21,1.15S83.24,52.82,83.24,53.21ZM83,49.07c-.23.13-.39,1-.3,1.44ZM83.14,58c.24,0,.32-.12.39-.33l-.09,0a.87.87,0,0,1-1.29-.6c0-.09-.07-.18-.14-.34A1.09,1.09,0,0,0,83.14,58ZM86.21,47.1c-.89-1.15-1.77-2.31-2.67-3.46-.29-.36-.62-.69-.93-1l-.06,0c.26.4.51.81.79,1.19a42.61,42.61,0,0,1,2.71,4l1.68,2.85A2.7,2.7,0,0,0,88,51l0,0-.94-2.29c1.05,1.69,1.61,3.62,2.71,5.29l-1.17-2.84.08,0c.24.55.48,1.1.71,1.65a4.64,4.64,0,0,0,.92,1.54l-.3-.92.16.27c.21.38.39.79.63,1.15a3.87,3.87,0,0,0,.54.53l.06-.06A9.51,9.51,0,0,1,90.31,53c-.33-.83-.68-1.65-1.06-2.45a3.14,3.14,0,0,0-1-1.18c.19.42.42.82.62,1.23s.26.61.38.91a.85.85,0,0,1-.14-.19,17.59,17.59,0,0,0-2-3.46c-.22-.29-.47-.56-.75-.89l0,.22A.58.58,0,0,1,86.21,47.1Zm-7.65-11a15.52,15.52,0,0,0,2,1l0-.07-2-1Zm-4.27-1.67a7.3,7.3,0,0,1,3-.07A3.81,3.81,0,0,0,74.29,34.48Zm-4.1,7.27a1.06,1.06,0,0,0,.58,1,3.61,3.61,0,0,0,3.14.24,4,4,0,0,0,.41-.21,5.94,5.94,0,0,0-1.09-.3c-.21,0-.44,0-.66,0a2.59,2.59,0,0,1-1.78-.86c-.22-.25-.41-.53-.6-.77Zm-.25,1.51c-.38.42-.76.83-1.16,1.22a1.17,1.17,0,0,0-.34,1.22c.1.41.15.82.21,1.24l-.24,0,.09.22c-.08.15-.21.3-.18.37s.19.38.33.41.25.25.3.43.13.4.18.55l.73-.12-.07.14c.37,0,.41,0,.35-.2h.33c.17,0,.34.07.33.29l.63.35,0,.08c-.29.15-.61,0-.91.09a.06.06,0,0,1,0,0,.25.25,0,0,0-.07.37c.1.16.23.14.36.08l.6-.25a1,1,0,0,1,.22,0l-.2.41h.16l0,.06c-.11,0-.24.16-.32.13-.25-.09-.42.05-.62.12l0-.1-.63,0c.2.14.38.33.63.1a3.21,3.21,0,0,0,.23,1.62A4.69,4.69,0,0,0,72.29,54a15.8,15.8,0,0,1,2.28,2.2,1.91,1.91,0,0,0,2.62.58c.33-.15.64-.35,1-.5a5.69,5.69,0,0,1,.59-.16,1.46,1.46,0,0,0,.82-.71,1.37,1.37,0,0,0,.05,1.37l-.4-.56c-.24.15-.49.29-.73.46a7.43,7.43,0,0,1-2.27,1.22c-.09,0-.16.14-.24.21l0,.07,1.54-.68,0,.06a8.68,8.68,0,0,1-.92.45,6.76,6.76,0,0,0-1.54.84s0,.06,0,.12a14.87,14.87,0,0,0,2.31-.64.13.13,0,0,1-.09.09c-.48.18-1,.36-1.46.51a7,7,0,0,1-.77.16c-.25.06-.32.21-.27.55a5,5,0,0,1,.08,1.8.38.38,0,0,0,.14.25c.22.2.45.38.68.58a9.18,9.18,0,0,0,2.94,2,3.83,3.83,0,0,0,2.67,0,4.91,4.91,0,0,0,1.58-1.07A11.67,11.67,0,0,0,85.55,59a2.57,2.57,0,0,0,.11-.36l-1.16.51-1.13.47a3.71,3.71,0,0,1-1.12.38.13.13,0,0,1,0-.07v-.06a2.69,2.69,0,0,1-1.22.38l2.58-1.55A9.17,9.17,0,0,0,81.15,60l0-.06,1.7-1.31a5.17,5.17,0,0,0-1.43.91c.13-.61.69-.69,1-1l-.07-.08-.84.57c.09-.38.49-.39.68-.66-.32-.13-.41.25-.69.25.1-.15.2-.31.31-.46l-.36-.3,0,0,.63.22a.19.19,0,0,0-.07-.15,2,2,0,0,1-.66-1.7,13.37,13.37,0,0,1,.3-1.88,3.41,3.41,0,0,0-.21-2.41A5.33,5.33,0,0,0,80,50.29s0,0-.08,0l.55.58,0,0-.52-.47,0,0a2.55,2.55,0,0,0,.24.31c.28.32.58.61.83.94a2.64,2.64,0,0,1,.28,2.14,12.36,12.36,0,0,0-.41,2.78c0-.25-.09-.49-.15-.8l-.47.55.06.08.35-.21,0,.07c-.13.11-.35.21-.38.34a.88.88,0,0,0,.18.54c.15.25.38.22.62,0l.16.36a4.32,4.32,0,0,1-.74-.13,1.19,1.19,0,0,1-.77-.65.93.93,0,0,0,0-.23,1.33,1.33,0,0,1,.14-1c.18-.31.35-.64.55-.94a2.81,2.81,0,0,0,.37-2.37,1,1,0,0,0-.34-.52c-.31-.22-.69-.36-1-.58a4.31,4.31,0,0,1-.93-.82c-.3-.39-.39-.94-.82-1.25,0,0,0,0,0-.07a4.15,4.15,0,0,0,2.14.72l-1.24-.53,0-.06a7.78,7.78,0,0,1,3,1.39,2.33,2.33,0,0,0-.42-.59,3.47,3.47,0,0,0-1.87-.86,3,3,0,0,0-1-.12.74.74,0,0,1-.74-.35,1.7,1.7,0,0,1-.1-1.52,10.77,10.77,0,0,0,.42-3.24,1.08,1.08,0,0,1,0-.18,1.16,1.16,0,0,1,.15.43,5.77,5.77,0,0,0,.47,2.07,3.39,3.39,0,0,0,1.6,1.55,2.08,2.08,0,0,0-.21-.21,4.22,4.22,0,0,1-1.37-2.8,5.48,5.48,0,0,0-.59-2c-.38-.68-.82-1.34-1.23-2l-.38-.57c.09,0,.13,0,.16.06a11.7,11.7,0,0,1,2.12,3.27,5.69,5.69,0,0,1,.47,1.57,7.55,7.55,0,0,0,.17,1.06l.11,0a12.37,12.37,0,0,0-1.47-5.5c.05,0,.08,0,.1,0a7.7,7.7,0,0,1,1.28,2.56,1.57,1.57,0,0,0,.14.25l.09,0a7.46,7.46,0,0,0-.19-1.15,7.13,7.13,0,0,0-.54-1.2,1.58,1.58,0,0,0-.54-.69,5.13,5.13,0,0,1-.87-.72.74.74,0,0,1-.08-.13c2,1.21,2.51,3.12,2.48,5.28a8.94,8.94,0,0,0-.15-3.34c.08.19.15.37.22.55l.07,0a7.82,7.82,0,0,0-1.22-2.94.22.22,0,0,1,.1.09,7.66,7.66,0,0,1,1.56,4.43c0,.78,0,1.57-.06,2.35,0,.2,0,.39,0,.58h.06l.25-1.33.09,0-.26,1.93h.06a2.49,2.49,0,0,0,.21-.47c.08-.36.13-.72.2-1.08h.06v1.73a14.17,14.17,0,0,0,.43-5.79,9.69,9.69,0,0,1,.57,2.82,15.53,15.53,0,0,1-.4,3.32,15.83,15.83,0,0,0-.13,2,.9.9,0,0,0,.11.28c.07-.71.11-1.37.22-2s.26-1.3.4-1.95h0L82,47.25l.1,0a12.29,12.29,0,0,0,.34-1.6,3.22,3.22,0,0,1,0,.62c-.1.56-.23,1.12-.34,1.68,0,.14-.06.27.09.36h0a3.37,3.37,0,0,0,.2,3.67,6.43,6.43,0,0,1,.11-3.53c0,.2,0,.33,0,.46l.09,0a3.94,3.94,0,0,0,.26-.55,5.72,5.72,0,0,0,.14-3.15c-.2-.75-.35-1.51-.6-2.24a13.58,13.58,0,0,0-1-2.42,7.69,7.69,0,0,0-1.85-2.13c-.5-.41-1-.77-1.61-1.17l.89.44-.43-.35a6.26,6.26,0,0,0-.59-.46,3.39,3.39,0,0,0-.67-.31c-.37-.13-.74-.25-1.12-.35L75,36a6.6,6.6,0,0,1,5,2.28l-.24-.14v.19a2.91,2.91,0,0,1,.3.17c.36.35.71.71,1.06,1.07a2.12,2.12,0,0,1,.27.34l.09-.08c-.2-.25-.4-.49-.59-.74a11.23,11.23,0,0,1,2.37,3c.52.87,1.12,1.68,1.69,2.51.12.16.28.28.41.43l.07-.06-1-1.37,0,0,.13.06a34.47,34.47,0,0,0-3.34-4.83,30.39,30.39,0,0,1,2.25,2.29,4.82,4.82,0,0,0-1.18-1.71c-.51-.48-1-.94-1.58-1.44a13.21,13.21,0,0,1,1.3.82,10.22,10.22,0,0,1,1,1.06.71.71,0,0,1,.1.14l.07-.07a9.81,9.81,0,0,0-3.21-2.8,11.77,11.77,0,0,0-4-1.62,9.2,9.2,0,0,1,2,.28,7.93,7.93,0,0,0-4.06-.54c1.15-.42,2.3.08,3.46,0v-.08L75.58,35l.83-.2a8.49,8.49,0,0,0-2.7.3,8,8,0,0,1,2.6-.48,4.56,4.56,0,0,0-2.2.11,3,3,0,0,0-1.94,1.52c-.21.43-.32.91-.5,1.35a8.11,8.11,0,0,1-.58,1.27,7.64,7.64,0,0,1-.69,1.17.73.73,0,0,0-.12.57,1.85,1.85,0,0,0,1.33,1.28,14.66,14.66,0,0,0,1.62.22.94.94,0,0,0-.37-.29l-1.77-.77,0-.08a1,1,0,0,1,.29,0c.35.14.7.29,1,.46a4.62,4.62,0,0,1,1,.55c.3.25.68.27,1,.45a2.45,2.45,0,0,0-.91-.95c-.83-.48-1.67-.93-2.51-1.39a2.21,2.21,0,0,1-.28-.26l.07-.11c.42.16.85.28,1.25.48a13,13,0,0,1,1.14.66l0,0-1.09-1,.06-.08a2.29,2.29,0,0,1,.27.14,9.49,9.49,0,0,1,2,2.13c0,.06.12.1.12.11.25.63.48,1.22.7,1.81a1.55,1.55,0,0,1,0,.37l-.09,0a8.51,8.51,0,0,1-.29-.85c0-.21-.11-.33-.36-.29s-.8.11-1.2.12c-.64,0-1.28,0-1.91,0a2,2,0,0,1-1.2-.61A3.28,3.28,0,0,1,69.94,43.26ZM81,48.42,80.12,48l-.52-.31,0,.07,1.62,1.12C81.23,48.56,81.23,48.54,81,48.42Zm-2.18.32c0,.26.09.29.5.2ZM77.7,47.8a.52.52,0,0,0,.29.85A1.18,1.18,0,0,0,77.7,47.8ZM80.3,50l0,.07.52.36.06-.1ZM79,49.86c.17.73.74,1.49,1.31,1.42C79.84,50.87,79.61,50.24,79,49.86Zm-.72-.25a2.08,2.08,0,0,0,.55,1C78.84,50.12,78.57,49.62,78.32,49.61Zm2.13,5.46-.45.82a6.07,6.07,0,0,0,.56-.8,1.78,1.78,0,0,0,.39-.92Zm-12,2.82c1.07-.4,1.49-2,1.29-3.21a5.08,5.08,0,0,1-.51,2.17,5.4,5.4,0,0,0-.12-4A9.23,9.23,0,0,1,68.45,57.89Zm2-8.38h0l.64-.22L70.8,49h0a3.1,3.1,0,0,0-.43,0,2.31,2.31,0,0,1-.73,0,.52.52,0,0,0-.46,0,3.14,3.14,0,0,0,.56.27C70,49.35,70.19,49.65,70.5,49.51Zm-.57-8c-.53.64-1.42.82-1.76,1.65l1.08-.71,0,.06a3.54,3.54,0,0,0-1.45,2,7.45,7.45,0,0,1,1.62-1.6.58.58,0,0,1-.11.15c-.32.32-.65.62-.94,1a2.19,2.19,0,0,0-.57,1.66,2.69,2.69,0,0,1,.93-1.57,7.28,7.28,0,0,0,.69-.67A3.12,3.12,0,0,0,70,42.7,1.49,1.49,0,0,0,69.93,41.48ZM68.66,42a10.67,10.67,0,0,0,1-.62.55.55,0,0,0,.16-.18c-.12-.17.06-.26.1-.41A2.15,2.15,0,0,0,68.66,42ZM67.85,53.7a4.61,4.61,0,0,0-.56-2.78C67.49,51.87,67.67,52.78,67.85,53.7Zm-4.11,8.66.08,0c0-.46,0-.92,0-1.39s.15-.72.34-.79a1.45,1.45,0,0,0,.34-.2c.18-.14.34-.3.54-.43.45-.28.93-.51,1.36-.82a13.57,13.57,0,0,0,1.06-.95l-.41.68,0,0,.43-.36c.24.12.07.27,0,.34-.26.22-.55.42-.83.62l-.45.29,0,.1a12.6,12.6,0,0,0,1.15-.63,3.26,3.26,0,0,0,1.17-1.9,8.87,8.87,0,0,0,.23-4.28,5.32,5.32,0,0,0-1-2.24,3.18,3.18,0,0,1-.67-1.48c.11,0,.21.12.27.1s.18.06.21.15.1.33.18.47a12.53,12.53,0,0,0,.82,1.31,1.85,1.85,0,0,1,.43.64,3.52,3.52,0,0,0,.17.35,11.71,11.71,0,0,0-1.1-3.48l.38-.36L68,47.56l-.09.06c-.11-.63-.26-1.25-.32-1.88a6.1,6.1,0,0,1,1-4.1l.3-.4a.26.26,0,0,0-.19,0,3.83,3.83,0,0,0-1.43,2.37,8.2,8.2,0,0,0-.16,2.75,9.84,9.84,0,0,0,.3,1.79,1.28,1.28,0,0,1,0,.27c-.11-.14-.14-.35-.26-.42s-.17-.23-.18-.38c0-.5,0-1-.08-1.5,0-.33-.06-.65-.09-1l-.08,0a.28.28,0,0,0,0,.12,6.66,6.66,0,0,0,0,2.74c0,.17.08.31-.06.35.09.22.2.43.28.65a5.64,5.64,0,0,0,.35,1A6,6,0,0,1,68,52.77a8.88,8.88,0,0,1-.16,2.57,6.77,6.77,0,0,1-.44,1.24,9.43,9.43,0,0,1-.55,1,3.45,3.45,0,0,0,1.52-2.09,4.67,4.67,0,0,1-.66,2.08c.06-.13.11-.26.16-.39l0,0-.31.48,0-.3-.08,0a2.75,2.75,0,0,1-1,.83c-.58.34-1.19.64-1.74,1a3.1,3.1,0,0,0-1.35,2.08,2.37,2.37,0,0,0,.12.82C63.49,62.21,63.64,62.28,63.74,62.36Zm-.53,3.19c0,.3.06.61-.2.85a8.66,8.66,0,0,1,2.42,1.41h-.16a1.88,1.88,0,0,0-.66-.46l0,.07.7.41s0,.09.09.11c.27.14.56.25.83.41s.82.48,1.21.76.93.49,1.15,1c0,0,0,0,.08,0A2.15,2.15,0,0,0,68,69c-.23-.19-.45-.4-.68-.58a1.52,1.52,0,0,1-.82-1.08l1.38,1.2.07-.06L66.6,66l0,0,2.15,1.7a5.45,5.45,0,0,0-.88-2.61l.2.15,0,0-.42-.54a2.93,2.93,0,0,1,.94,1c.06.1.09.22.28.28s.29,0,.4-.12a.38.38,0,0,0,.14-.43,1,1,0,0,1,0-.3h.07l.06.13.08.15c.45-1.63-.18-3.08-.69-4.56a5.45,5.45,0,0,1,1.58,2.88l.06,0,0-.27h0l.13,1.12a25.52,25.52,0,0,0,1.4-2.68,3.71,3.71,0,0,1-.11.58,7.38,7.38,0,0,1-.93,1.94,12.68,12.68,0,0,0-2,4.83,11.7,11.7,0,0,0,0,1.45.64.64,0,0,1,0,.17,1.18,1.18,0,0,0,.39.92l.24-.11a2.69,2.69,0,0,1-.44-1.82,6.67,6.67,0,0,1,.59-2.44c.17-.33.38-.65.57-1l-.29.76,0,0,.13-.12.12-.66a3,3,0,0,1,.63-1.28,4.13,4.13,0,0,1-.75,1.94h0c-.1.25-.19.5-.3.74a2.66,2.66,0,0,0-.11,1.28,4.12,4.12,0,0,0,.43,2c.16.3.38.57.57.86l.08,0c-.08-.21-.16-.42-.23-.63h0l.69.94.06,0L71,71.25c.46.38.87.8,1.3,1.2a3,3,0,0,0,1.61.74L73.82,73a2.42,2.42,0,0,0,1.25.06l-1-.12a3.43,3.43,0,0,1-.34-.06l-.18-.2a1.66,1.66,0,0,0,.28.09A3.61,3.61,0,0,0,75.1,73a4.64,4.64,0,0,1,1.38-.12A2.4,2.4,0,0,0,78,72.46a17.5,17.5,0,0,0,1.48-1.08,1.83,1.83,0,0,0,.6-.76,6.63,6.63,0,0,0,.27-1.34,10.19,10.19,0,0,1,.19-1.47,3.14,3.14,0,0,0,.09-1c0-.61,0-1.22-.07-1.84v-.37a2.05,2.05,0,0,1-1.3.35,3.51,3.51,0,0,1-.8-.11A3.11,3.11,0,0,1,77.23,64c-.62-.56-1.27-1.09-1.91-1.64a2.82,2.82,0,0,1-1-2.09,7,7,0,0,0-.28-1.5,2.44,2.44,0,0,1-.07-.46.67.67,0,0,0-.2-.46,1.33,1.33,0,0,0-.92-.32,8.33,8.33,0,0,0-3.94,1l-2.82,1.31a2.25,2.25,0,0,0-1.35,1.33c-.1.29-.21.57-.31.86a1.38,1.38,0,0,0,0,.29,5.39,5.39,0,0,0-.81,1.38l.19-.23c-.15.47-.29.9-.41,1.33A4,4,0,0,0,63.21,65.55Zm6.34,4.35-.08,0,.08.68h.07ZM62.93,65,63,65l.12-.85-.09,0Zm11-24.64.56,1.1A1.68,1.68,0,0,0,73.89,40.38Zm-6.53,8.34-.21-.43-.08,0,.18.44Zm.49,0a4.82,4.82,0,0,0,.92,2.08C68.47,50.09,68.16,49.39,67.85,48.7ZM77,53.5l.36.28a1.58,1.58,0,0,0-.89.6,2,2,0,0,1-2.08.74.47.47,0,0,1-.25-.21c-.14-.25-.13-.26-.39-.35,0-.26.11-.35.34-.35a.76.76,0,0,0,.4-.09,1.35,1.35,0,0,1,1.08-.27,6.58,6.58,0,0,0,1,.06,2.78,2.78,0,0,0,.53-.11L77,53.54Zm-2.47.78a1.47,1.47,0,0,0,1-.2A.82.82,0,0,0,74.52,54.28Zm2-.23-.85.2c-.4.11-.81.22-1.2.35a.47.47,0,0,0-.21.21s.1.15.16.16a4.74,4.74,0,0,0,.75.06c.1,0,.21-.12.32-.19C75.69,55,76.35,54.56,76.51,54.05Zm-3,18.81-1-.61A1.47,1.47,0,0,0,73.48,72.86Zm-.9-22.6.34,1.18A1.73,1.73,0,0,0,72.58,50.26Zm2.93-8.76c-.16-.3-.33-.6-.5-.89l-.07-.16a1.58,1.58,0,0,1,.76,1.19c.1.8.12,1.61.15,2.41,0,.38,0,.76,0,1.13.12-.57.16-1.15.27-1.72a3.21,3.21,0,0,0-1.75-3.58c-.27-.12-.53-.29-.8-.43a5,5,0,0,1,1.9,2.23A.25.25,0,0,0,75.51,41.5Zm-.09,1.59c0-.29-.07-.59-.1-.89h-.09c0,.3.09.6.13.89Zm-2.18,5.44c.32-.13.63-.29,1-.4.51-.18,1-.32,1.55-.48v0l-.29,0a6.48,6.48,0,0,1-1.16.16,1.35,1.35,0,0,0-1,.37.42.42,0,0,1-.12,0l-.15,0a.61.61,0,0,0,.08.25A.21.21,0,0,0,73.24,48.53Zm1.18-.88,1.6-.18A2.52,2.52,0,0,0,74.42,47.65Zm6.75-4.26L81,41.62h-.1c.07.59.13,1.19.19,1.78Zm8.32,31.8.06-.08a2.53,2.53,0,0,0-.27-.18.47.47,0,0,0-.2-.06S89,75,89,75s.07.18.13.19A1.29,1.29,0,0,0,89.49,75.19Zm-9.87.48h0l0,0Zm0,0,.54-.48A.77.77,0,0,0,79.64,75.66ZM87.44,49c.24.37.47.75.73,1.17a1.13,1.13,0,0,0,0-.14c-.41-.68-.81-1.37-1.23-2-.17-.26-.39-.5-.59-.75a.5.5,0,0,0,0,.13ZM83.53,76.49a4.39,4.39,0,0,0-2.86-.23l2.57.43v-.08l-1.14-.29v0Zm2.8-29.28h0ZM64.56,74.5c0-.45.45-.36.67-.47l-.63-.47a.54.54,0,0,0,0,.25c.1.2,0,.31-.22.43,0-.19,0-.36-.08-.52l-.12.26A.5.5,0,0,0,64.56,74.5Zm-1.41-.42a1.44,1.44,0,0,0,1,.8l.1-.1L64,74.71a1.37,1.37,0,0,1-.61-1.52c.05-.32.23-.42.55-.32l.3.09a.64.64,0,0,0-.06-.12l-.32-.28a2.31,2.31,0,0,0-.45.29A1.16,1.16,0,0,0,63.15,74.08Zm21.9,6.18a.56.56,0,0,0,.22,0,4.54,4.54,0,0,1,.63-.18A5.06,5.06,0,0,0,88,79.38a2.87,2.87,0,0,1,.51-.21v-.06a8.7,8.7,0,0,0-.9.32,4.19,4.19,0,0,1-1.54.48c-.62.06-1.23.14-1.82.21Zm-6.4-3.87.94-.7a6.35,6.35,0,0,0-1,.59Zm.94-.7h0Zm-15.29-2v.08l0-.08Zm24.64,6.45c0-.13,0-.27,0-.41h0c.07-.14.13-.29.2-.43l.14.14-.12-.2c.29.17.42.43.34.63A.47.47,0,0,1,88.94,80.09Zm0-.41c0,.12,0,.23.06.39a1.23,1.23,0,0,0,.32-.25s0-.16,0-.25a.78.78,0,0,0-.22,0A1.76,1.76,0,0,0,89,79.68ZM80.6,52.53a4.4,4.4,0,0,1-.88,2.5C80.4,54.05,80.88,53.49,80.6,52.53Zm-16.72,20Zm7.41-30a3.39,3.39,0,0,0,2,.26.62.62,0,0,0,.24-.1v-.07a3,3,0,0,1-3-1.16,2.19,2.19,0,0,0,0,.25A1.85,1.85,0,0,0,71.29,42.6ZM82.13,77.94l1.71.34a.54.54,0,0,0,.57.59c0-.3-.18-.43-.47-.49l.31-.14-2.11-.34Zm-1.3-35h0V44h0ZM79.19,60.69a1.43,1.43,0,0,0,.3.2c.1,0,.23,0,.35.06s.27,0,.35-.19a3.54,3.54,0,0,0,.1-2c0,.29-.06.59-.1.88a.9.9,0,0,1-1,.93Zm3.42-16a.89.89,0,0,0,0,.23,8.76,8.76,0,0,1-.4,3.17.52.52,0,0,0,0,.21s0-.08,0-.12A5.88,5.88,0,0,0,82.61,44.71ZM81.29,79.59c-.14,0-.25.21-.37.33a2.72,2.72,0,0,0,.5.19,5.85,5.85,0,0,0,.84,0H84a10,10,0,0,1-2.13-.25,1.58,1.58,0,0,1,1.07,0,2.42,2.42,0,0,0,2.44-.85,3.18,3.18,0,0,0,.16-.32l-.07,0a.5.5,0,0,0-.15.14,1.12,1.12,0,0,1-.85.69,2.34,2.34,0,0,1-1.31.11c0,.16,0,.26-.18.11a.25.25,0,0,0-.09,0c-.33,0-.65-.12-1-.15A1.3,1.3,0,0,0,81.29,79.59ZM77.37,58.75,76,59.18A2.35,2.35,0,0,0,77.37,58.75ZM68.49,47.44a.32.32,0,0,0,.27.33l.1-.06-.22-.37S68.49,47.4,68.49,47.44Zm7.25,11.11,0,.09,1.73-.72-.05-.08Z"/></g></g></svg>