<svg xmlns="http://www.w3.org/2000/svg" xmlns:xlink="http://www.w3.org/1999/xlink" viewBox="0 0 155 155"><defs><style>.cls-1{fill:#fff;}.cls-2{fill:url(#linear-gradient);}.cls-3{fill:url(#linear-gradient-2);}.cls-4{fill:#2d2d2d;}.cls-5{fill:url(#linear-gradient-3);}</style><linearGradient id="linear-gradient" x1="67.45" y1="89.91" x2="77.5" y2="89.91" gradientUnits="userSpaceOnUse"><stop offset="0" stop-color="#c49957"/><stop offset="0.63" stop-color="#fdd089"/><stop offset="0.76" stop-color="#ecbf7a"/><stop offset="1" stop-color="#c49957"/></linearGradient><linearGradient id="linear-gradient-2" x1="64.58" y1="48.38" x2="106.13" y2="48.38" xlink:href="#linear-gradient"/><linearGradient id="linear-gradient-3" x1="93.26" y1="100.15" x2="99.92" y2="100.15" xlink:href="#linear-gradient"/></defs><g id="Layer_2" data-name="Layer 2"><g id="Layer_1-2" data-name="Layer 1"><circle class="cls-1" cx="77.5" cy="77.5" r="77.5"/><path class="cls-2" d="M77.5,83a6.66,6.66,0,0,0-4.28,4.31c-.91,2.59,0,4.22.3,5.75a3.12,3.12,0,0,1-2.13,3.67,3.23,3.23,0,0,1-1.28.08A3,3,0,0,1,67.77,95a5,5,0,0,1-.11-3.23,12.9,12.9,0,0,1,2.22-5.28,9.18,9.18,0,0,1,4.26-2.84A15.29,15.29,0,0,1,77.5,83Z"/><path class="cls-3" d="M85.9,45.16c.18.81.27,1.51-1.56.52S71,38,64.58,38.36c.59.62,12.2,5,16.19,21.91,0,0,2.3-5.56-4-14.38,0,0,13.45,2.19,19,17.72-.47-2-1-3.89-1.6-5.82a45.8,45.8,0,0,0-3.71-9.62c-.56-1-1.36-1.72-1.91-2.68a3.62,3.62,0,0,1-.16-3.81A2.11,2.11,0,0,1,91,40.81c1.88.88.16,4.36.2,5.47s.92-.52,1.41-1.13,6.85-8,13.56-12c-.48,0-1.31.14-1.75.2C99,34.07,93.63,35.21,88.18,35c-1,0-1.91-.11-2.87-.13-.19,0-1.2-.13-1.24.12s.61.47.78.51a9.73,9.73,0,0,1,1.2.35A9.34,9.34,0,0,1,89.53,38a.59.59,0,0,1-.2.91,6.52,6.52,0,0,1-2,.32A14.41,14.41,0,0,1,82,38.49c-2.55-.84-5.33-2.52-10.64-1.89C71.32,36.6,84.83,40.46,85.9,45.16Z"/><path class="cls-4" d="M100.29,82.39c-.27-.52-.57-1-.88-1.55-.1-.19-.23-.37-.33-.56a22.24,22.24,0,0,1-1.74-3.53,11.47,11.47,0,0,1-.42-1.11,27,27,0,0,1,13.25-32.39A26.89,26.89,0,0,0,92,51.34a22.86,22.86,0,0,0-2,2.36,26.69,26.69,0,0,0-5.58,15.38v.19a25.72,25.72,0,0,0,.81,7.48,27.2,27.2,0,0,0,2.24,5.85c.29.56.6,1.1.94,1.65a23.82,23.82,0,0,1,2,3.93,12.22,12.22,0,0,1,.48,1.27q.2.57.36,1.17a26.09,26.09,0,0,1,1,8.34,26.8,26.8,0,0,1-14.58,22.88A26.87,26.87,0,0,0,103.4,96a.71.71,0,0,0,0-.21,26.76,26.76,0,0,0-3.07-13.33ZM89.48,92.23a19.47,19.47,0,0,0-.79-2.49,23.85,23.85,0,0,0-11.85-13A15,15,0,0,0,75.27,76a.33.33,0,0,1-.18-.42,26.23,26.23,0,0,0,1.17-4c0-.07,0-.15,0-.21A26.88,26.88,0,0,0,57.35,40.26a37.49,37.49,0,0,1,3.11,3.18,27.64,27.64,0,0,1,2.63,3.8A27.11,27.11,0,0,1,66,66a27.52,27.52,0,0,1-5.14,10.79C59.31,78.86,57.6,80.88,56,83.1a24,24,0,0,0-4.2,9v0a28.76,28.76,0,0,0,3.59,21.25,19.18,19.18,0,0,0,3.09,3.9,15.74,15.74,0,0,0,1.84,1.55,15.37,15.37,0,0,0,17,.86A25.1,25.1,0,0,0,90.26,99v-.75A23.38,23.38,0,0,0,89.48,92.23ZM72.37,99c0,1-.46,6.14-3.2,6.52-2.38.31-4-2.76-4.57-4.6a14.89,14.89,0,0,1-.13-8.08c1.36-5.65,4.62-10.14,8.63-14.21a.57.57,0,0,1,.67-.09c1.67.94,8.44,5.06,9.09,11.16a.36.36,0,0,1-.63.27c-1.15-1.27-3.34-4.3-4.49-4.24a19.11,19.11,0,0,1,1.94,10,.53.53,0,0,1-.92.29c-.6-.67-.71-2.3-2.27-3.19.31,2.5,1.08,5.12,0,8a10.22,10.22,0,0,1-1.84,3,.49.49,0,0,1-.8-.13,2.54,2.54,0,0,1-.1-.37C73.37,101.93,73.58,99.65,72.37,99ZM63.22,52.72c-3.1-8.3-17.3.16-18.39,10.92,0,0,9.26-10.84,12.49-.27,1.38,4.54,0,9.34-2,13.38a43.12,43.12,0,0,1-6.5,9.32A44.7,44.7,0,0,0,58,76.75C62.28,70.85,65.89,62.49,63.22,52.72Z"/><path class="cls-5" d="M98.7,90.66s1.16-1.63,1.21-.36-1.73,4.42-2,5.42a3.13,3.13,0,0,0,.53,2.47c.37.58,2.21,2.58.84,5.06-1.27,2.31-4.47,5.58-5.41,7.16a.17.17,0,0,1-.31,0c-.46-1.11-.49-1.87.56-3.5,1.16-1.79,2.82-3.66,1.5-6C93.65,97.56,94.17,96.67,98.7,90.66Z"/></g></g></svg>