<svg xmlns="http://www.w3.org/2000/svg" xmlns:xlink="http://www.w3.org/1999/xlink" viewBox="0 0 155 155"><defs><style>.cls-1{fill:#fff;}.cls-2{fill:url(#linear-gradient);}</style><linearGradient id="linear-gradient" x1="44.16" y1="77.5" x2="110.84" y2="77.5" gradientUnits="userSpaceOnUse"><stop offset="0" stop-color="#ba935e"/><stop offset="0.63" stop-color="#fcca86"/><stop offset="0.75" stop-color="#ebbb7b"/><stop offset="0.98" stop-color="#bd9660"/><stop offset="1" stop-color="#ba935e"/></linearGradient></defs><g id="Layer_2" data-name="Layer 2"><g id="Layer_1-2" data-name="Layer 1"><circle class="cls-1" cx="77.5" cy="77.5" r="77.5"/><path class="cls-2" d="M108.77,44.16H79v1.78h2.52A2.39,2.39,0,0,1,84,48.34V75.07H71.05V48.34a2.39,2.39,0,0,1,2.39-2.4H76V44.16H44.16v13h2.07A11.18,11.18,0,0,1,57.4,45.94h2.83a2.68,2.68,0,0,1,2.67,2.67v57.78a2.68,2.68,0,0,1-2.67,2.67H57.4A11.18,11.18,0,0,1,46.23,97.88H44.16v13H76v-1.78H73.44a2.39,2.39,0,0,1-2.39-2.4V80H84v26.65a2.39,2.39,0,0,1-2.39,2.4H79v1.78h31.8v-13h-2.07A11.18,11.18,0,0,1,97.6,109.06H94.77a2.68,2.68,0,0,1-2.67-2.67V48.61a2.68,2.68,0,0,1,2.67-2.67H97.6a11.18,11.18,0,0,1,11.17,11.18h2.07v-13Z"/></g></g></svg>