<svg xmlns="http://www.w3.org/2000/svg" viewBox="0 0 155 155"><defs><style>.cls-1{fill:#fff;}.cls-2{font-size:11.83px;fill:#244d9c;font-family:MicrosoftPhagsPa-Bold, Microsoft PhagsPa;font-weight:700;}.cls-3{fill:#eb6d26;}.cls-4{fill:#cf5828;opacity:0.5;}</style></defs><g id="Layer_2" data-name="Layer 2"><g id="Layer_1-2" data-name="Layer 1"><circle class="cls-1" cx="77.5" cy="77.5" r="77.5"/><text class="cls-2" transform="translate(25.12 101.46)">ISTETHMAR CLUB</text><rect class="cls-3" x="42.08" y="67.76" width="26.97" height="9.17" transform="translate(-34.88 60.48) rotate(-45)"/><polygon class="cls-3" points="71.91 68.56 71.96 81.53 87.34 66.02 80.82 59.56 71.91 68.56"/><polygon class="cls-3" points="61.86 82.34 68.35 88.83 68.35 69.68 61.86 76.17 61.86 82.34"/><polygon class="cls-3" points="80.82 82.34 87.31 88.83 87.31 69.68 80.82 76.17 80.82 82.34"/><polygon class="cls-3" points="96.01 56.8 99.26 60.09 90.87 68.56 90.92 81.53 105.7 66.63 109.56 70.55 112.21 53.54 96.01 56.8"/><polygon class="cls-4" points="87.31 69.68 80.82 76.17 87.31 73.51 87.31 69.68"/><polygon class="cls-4" points="68.35 69.68 61.86 76.17 68.35 73.51 68.35 69.68"/><path class="cls-4" d="M112.21,53.54l-2.65,17-3.86-3.92S90.93,82.49,90.92,81.53s15-17.84,15-17.84l2.48,2.57Z"/></g></g></svg>