<?xml version="1.0" encoding="utf-8"?>
<!-- Generator: Adobe Illustrator 25.0.1, SVG Export Plug-In . SVG Version: 6.00 Build 0)  -->
<svg version="1.1" id="Layer_1" xmlns="http://www.w3.org/2000/svg" xmlns:xlink="http://www.w3.org/1999/xlink" x="0px" y="0px"
	 viewBox="0 0 155 155" style="enable-background:new 0 0 155 155;" xml:space="preserve">
<style type="text/css">
	.st0{fill:#FFFFFF;}
	.st1{fill:url(#SVGID_1_);}
</style>
<g id="Layer_1-2">
	<circle class="st0" cx="77.6" cy="77.4" r="77.5"/>
	
		<linearGradient id="SVGID_1_" gradientUnits="userSpaceOnUse" x1="14.37" y1="74.7687" x2="140.8" y2="74.7687" gradientTransform="matrix(1 0 0 -1 0 156.44)">
		<stop  offset="0" style="stop-color:#816540"/>
		<stop  offset="0.31" style="stop-color:#C89F68"/>
		<stop  offset="0.52" style="stop-color:#FBC985"/>
		<stop  offset="0.63" style="stop-color:#E9BA7B"/>
		<stop  offset="0.87" style="stop-color:#BB9460"/>
		<stop  offset="1" style="stop-color:#9F7D50"/>
	</linearGradient>
	<path class="st1" d="M49.7,88.5L49.7,88.5z M76.1,85.1c0.1,0.4,0.2,0.9,0.1,1.3c-0.1,0.7-0.2,1.3-0.4,2c-0.2,0.8-0.5,1.5-0.8,2.2
		c-0.3,0.7-0.6,1.4-1,2.1c-0.3,0.6-0.7,1.1-1.1,1.6c-0.3,0.4-0.7,0.6-1.1,0.7c-0.3,0-0.5,0-0.8-0.1c-0.3-0.1-0.5-0.3-0.7-0.5
		c-0.2-0.2-0.4-0.5-0.6-0.8c-0.1-0.2-0.2-0.5-0.3-0.8c-0.2,0.3-0.4,0.6-0.7,0.8c-0.4,0.5-0.9,0.9-1.4,1.2c-0.5,0.3-1,0.6-1.6,0.8
		C65.2,95.9,64.6,96,64,96c-0.4,0-0.7-0.1-1.1-0.3c-0.4-0.2-0.8-0.4-1.2-0.7c-0.2-0.2-0.4-0.4-0.6-0.6c-0.2,0.4-0.5,0.9-0.8,1.3
		c-0.3,0.4-0.6,0.8-1,1.1c-0.3,0.3-0.7,0.5-1.2,0.6c-0.6,0.2-1.3,0.2-1.9,0c-0.6-0.2-1.1-0.5-1.6-0.9c-0.6-0.5-1.1-1.1-1.5-1.8
		c-0.5-0.7-0.9-1.6-1.4-2.6c-0.4,1.1-0.9,2.2-1.3,3.1c-0.3,0.7-0.7,1.4-1.2,2.1l0,0c-0.3,0.3-0.6,0.6-1,0.9
		c-0.3,0.2-0.7,0.4-1.2,0.5c-0.5,0.1-1.1,0.1-1.7,0c-0.4-0.1-0.8-0.4-1.1-0.7c-0.3-0.4-0.5-0.8-0.6-1.2c-0.1-0.5-0.1-1.1-0.1-1.6
		l2.3-0.7c-0.1,0.8-0.2,1.7-0.1,2.5c0,0.6,0.2,1,0.5,1.1c0.1,0.1,0.3,0.1,0.5,0c0.2-0.1,0.3-0.2,0.5-0.3c0.2-0.2,0.3-0.4,0.5-0.6
		c0.2-0.3,0.3-0.5,0.4-0.8l0,0l0.3-0.6c0.2-0.4,0.4-0.8,0.5-1.2s0.3-0.9,0.5-1.3s0.3-0.8,0.4-1.2s0.2-0.7,0.3-1
		c0-0.1,0.1-0.2,0.1-0.2c0-0.1,0-0.1,0.1-0.2l0,0l0,0c0.2-0.8,0.5-1.6,0.7-2.4s0.5-1.6,0.7-2.3s0.4-1.4,0.6-2s0.3-1,0.4-1.3
		c-0.1,0.1-0.2,0.1-0.4,0.1c-0.5,0.2-1,0.4-1.5,0.6c-0.4,0.2-0.8,0.4-1.1,0.6s-0.6,0.4-0.9,0.6s-0.5,0.4-0.7,0.5
		c-0.2,0.2-0.4,0.4-0.6,0.6c-0.2,0.2-0.4,0.5-0.6,0.7c-0.2,0.2-0.3,0.5-0.3,0.8c-0.1,0.2,0,0.5,0.1,0.7c0.2,0.2,0.5,0.4,0.8,0.5
		c0.5,0.1,1.1,0.2,1.6,0.1h0.2c0.1,0,0.1,0,0.2-0.1c0.1,0,0.1,0.1,0.1,0.3c0,0.2,0,0.5-0.1,0.7c-0.1,0.2-0.1,0.4-0.2,0.6
		c-0.1,0.2-0.2,0.3-0.3,0.3c-0.7-0.1-1.5-0.4-2-0.9c-0.5-0.5-0.8-1-1-1.7c-0.1-0.7-0.1-1.3,0-2c0.1-0.7,0.4-1.3,0.8-1.9
		c0.5-0.6,1-1.1,1.7-1.4c0.8-0.5,1.7-0.9,2.6-1.3c0.9-0.4,1.8-0.7,2.7-1c0.8-0.2,1.6-0.4,2.4-0.4c0.6,0,1.2,0.1,1.7,0.4
		c0.5,0.3,0.9,0.6,1.2,1c0.3,0.4,0.6,0.8,0.8,1.2c0.1,0.3,0.3,0.7,0.4,1c0.2,0.8,0.2,1.7,0,2.5c-0.2,0.9-0.6,1.7-1.2,2.4
		c-0.6,0.8-1.4,1.5-2.3,2c-1,0.6-2.1,1-3.2,1.1c0.3,0.5,0.6,1.1,0.9,1.7s0.7,1.2,1,1.7c0.3,0.5,0.6,0.9,1,1.3
		c0.3,0.4,0.6,0.5,0.9,0.5c0.3,0,0.5-0.2,0.7-0.4c0.3-0.3,0.5-0.6,0.7-0.9c0.3-0.4,0.5-0.9,0.7-1.3c0.2-0.5,0.5-1,0.7-1.5
		c0.1-0.2,0.2-0.4,0.2-0.6c0-0.4,0.1-0.7,0.2-1.1c0.1-0.6,0.3-1.1,0.6-1.7c0.3-0.6,0.5-1.1,0.9-1.6c0.3-0.5,0.7-1,1.1-1.4
		c0.4-0.4,0.8-0.7,1.2-1c0.4-0.2,0.8-0.4,1.2-0.5c0.3,0,0.6,0,0.9,0.2c0.3,0.2,0.6,0.4,0.8,0.7c0.2,0.3,0.4,0.5,0.6,0.9
		c0.1,0.2,0.2,0.5,0.1,0.8c-0.1,0.5-0.3,1-0.6,1.5c-0.2,0.4-0.5,0.8-0.9,1.2c-0.3,0.3-0.6,0.6-1,0.9c-0.3,0.2-0.6,0.4-0.9,0.6
		c-0.3,0.2-0.5,0.3-0.7,0.3c-0.1,0-0.2,0.1-0.3,0.1c-0.1,0-0.2-0.1-0.3-0.1c-0.1-0.1-0.2-0.1-0.3-0.2c-0.1-0.1-0.2-0.2-0.3-0.3
		l-0.2-0.2v0.1c-0.1,0.2-0.1,0.5-0.2,0.9c-0.1,0.3-0.1,0.7-0.1,1c0,0.4,0.1,0.7,0.3,1c0.2,0.3,0.5,0.5,0.8,0.5
		c0.5,0.1,1,0.1,1.5-0.1c0.5-0.2,1-0.4,1.4-0.7c0.5-0.3,0.9-0.7,1.3-1.1c0.4-0.4,0.8-0.9,1.1-1.4c0.3-0.4,0.6-0.9,0.8-1.4
		c0.1-0.3,0.2-0.5,0.3-0.8c0,0,0,0,0-0.1c0.1-0.7,0.3-1.4,0.4-2.1c0.2-0.7,0.4-1.3,0.7-2c0,0,0.1,0,0.3,0.1c0.2,0.1,0.4,0.2,0.6,0.3
		c0.2,0.1,0.4,0.3,0.5,0.4c0.1,0.2,0.2,0.3,0.2,0.4c-0.1,0.2-0.2,0.5-0.3,0.8c-0.1,0.4-0.3,0.9-0.4,1.4s-0.3,1.1-0.4,1.7
		s-0.2,1.1-0.3,1.6c-0.1,0.4-0.1,0.8-0.1,1.2c0,0.3,0.1,0.5,0.3,0.6s0.4-0.1,0.7-0.4c0.3-0.4,0.6-0.8,0.8-1.3
		c0.7-1.2,1.2-2.6,1.6-3.9c0.2-0.7,0.3-1.4,0.4-2.1c0.1-0.6,0.1-1.2,0-1.8c0-0.1,0.1-0.1,0.2,0c0.2,0.1,0.3,0.2,0.5,0.3
		c0.2,0.1,0.3,0.3,0.5,0.4C76,84.8,76.1,84.9,76.1,85.1z M55.8,89c0.7-0.4,1.4-0.9,2-1.6c0.5-0.6,1-1.2,1.3-1.9
		c0.3-0.6,0.4-1.2,0.3-1.8c0-0.6-0.3-1.1-0.7-1.6c-0.3-0.3-0.7-0.5-1.2-0.6c-0.4-0.1-0.9-0.1-1.3,0c-0.3,0.1-0.7,0.2-1,0.3
		c-0.1,0.3-0.3,0.8-0.5,1.5s-0.4,1.4-0.7,2.3s-0.5,1.7-0.8,2.7s-0.6,1.9-0.9,2.8c0.1-0.1,0.2-0.2,0.3-0.3l0.2-0.4
		c0.1-0.1,0.1-0.2,0.2-0.3c0.1-0.1,0.2-0.1,0.3-0.2C54.1,89.7,55,89.4,55.8,89z M63.1,89.6c-0.2,0.4-0.4,0.7-0.5,1.1l0,0
		c0.4-0.1,0.9-0.2,1.2-0.5c0.4-0.3,0.8-0.6,1.2-1c0.4-0.3,0.7-0.7,1-1.1c0.2-0.3,0.4-0.6,0.6-1c0.1-0.2,0.1-0.4,0.2-0.6
		c0-0.1,0-0.2-0.1-0.2c-0.1,0-0.2,0.1-0.3,0.1l-0.5,0.3c-0.4,0.2-0.7,0.5-1,0.7c-0.3,0.3-0.6,0.6-0.9,1
		C63.6,88.8,63.3,89.2,63.1,89.6z M79.2,83.4c0.1,0,0.3,0,0.4,0c0.1,0,0.2,0,0.3,0c0.1-0.1,0.2-0.2,0.3-0.4c0.1-0.2,0.3-0.4,0.4-0.6
		c0.1-0.2,0.2-0.5,0.3-0.7c0.1-0.2,0.1-0.4,0.2-0.6c0-0.1-0.1-0.2-0.2-0.3c-0.2-0.1-0.4-0.2-0.6-0.2c-0.2,0-0.4-0.1-0.7-0.1
		c-0.2,0-0.3,0-0.3,0.1s-0.1,0.4-0.1,0.7S79,81.8,79,82s-0.1,0.4-0.1,0.6c0,0.1-0.1,0.3-0.1,0.4c-0.1,0.1-0.1,0.2,0,0.3
		C78.9,83.4,79,83.4,79.2,83.4z M105.9,85.9c-0.1,0.4-0.2,0.8-0.4,1.2c-0.2,0.5-0.4,0.9-0.7,1.4c-0.2,0.5-0.5,0.9-0.8,1.3
		c-0.3,0.4-0.6,0.7-0.9,1.1c-0.3,0.3-0.6,0.4-1,0.5c-0.3,0-0.5,0-0.7-0.1c-0.3-0.1-0.5-0.3-0.8-0.4c-0.2-0.2-0.4-0.3-0.6-0.6
		c-0.1-0.1-0.2-0.3-0.3-0.5v-0.1c-0.2,0.3-0.5,0.6-0.7,0.9c-0.2,0.3-0.4,0.5-0.7,0.8c-0.2,0.2-0.4,0.4-0.7,0.5
		C97.3,91.9,97,92,96.8,92c-0.3,0-0.6-0.1-0.9-0.3c-0.3-0.2-0.6-0.4-0.8-0.7c-0.2-0.2-0.3-0.4-0.5-0.7c-0.3,0.5-0.7,1.1-1.2,1.5
		c-0.3,0.4-0.8,0.7-1.3,0.8c-0.3,0-0.7,0-1-0.1c-0.4-0.1-0.7-0.3-1.1-0.5c-0.3-0.2-0.6-0.5-0.9-0.8c-0.3-0.3-0.4-0.7-0.4-1.1
		c0-0.5,0-0.9,0.1-1.4c0-0.1,0-0.2,0-0.2l-0.5,0.1c-0.3,0.1-0.6,0.3-0.9,0.5c0.2,0.6,0.2,1.2,0.1,1.8c-0.1,0.6-0.3,1.2-0.6,1.7
		c-0.3,0.5-0.7,0.9-1.2,1.2c-0.5,0.3-1.1,0.4-1.7,0.3c-0.2,0-0.4-0.1-0.6-0.3c-0.2-0.1-0.4-0.3-0.6-0.5c-0.2-0.2-0.3-0.4-0.4-0.6
		c-0.1-0.2-0.1-0.3-0.2-0.5c0-0.2,0-0.4,0.1-0.6c0.1-0.3,0.2-0.5,0.4-0.8c0.3-0.4,0.6-0.7,0.9-1c0.4-0.4,0.9-0.8,1.5-1.4
		c0,0,0,0,0.1,0l-0.6-0.9c-0.2-0.3-0.5-0.6-0.7-0.9c0,0.2-0.1,0.5-0.2,0.8l0,0c0,0.1,0,0.1,0,0.2c-0.1,0.6-0.3,1.1-0.5,1.7
		c-0.3,0.7-0.6,1.4-0.9,2c-0.4,0.6-0.8,1.2-1.3,1.8c-0.4,0.4-0.9,0.7-1.5,0.8c-0.3,0-0.7,0-1-0.1c-0.4-0.1-0.7-0.3-1.1-0.5
		c-0.3-0.2-0.7-0.5-0.9-0.8c-0.3-0.3-0.4-0.7-0.4-1.1c0-0.4,0-0.9,0.1-1.3c0.1-0.6,0.3-1.2,0.4-1.8s0.4-1.4,0.6-2.2s0.5-1.6,0.7-2.3
		c0-0.1,0.1-0.1,0.3,0c0.2,0.1,0.5,0.2,0.7,0.3c0.2,0.1,0.4,0.3,0.6,0.4c0.1,0.1,0.2,0.3,0.2,0.5c-0.2,0.5-0.4,1.1-0.6,1.6
		s-0.4,1.2-0.5,1.7s-0.3,1.1-0.4,1.6c-0.1,0.4-0.2,0.9-0.2,1.4c0,0.3,0,0.7,0.1,1c0.1,0.2,0.3,0.4,0.5,0.4c0.3,0,0.5-0.1,0.7-0.3
		c0.3-0.3,0.5-0.5,0.8-0.9c0.3-0.4,0.5-0.8,0.8-1.2c0.2-0.5,0.4-0.9,0.7-1.4s0.4-0.9,0.5-1.4c0.1-0.4,0.2-0.8,0.3-1.2l0,0
		c0.2-0.7,0.3-1.4,0.4-2.1c0-0.4,0.1-0.9,0.2-1.3c0.1-0.4,0.2-0.8,0.4-1.1c0.2-0.3,0.4-0.6,0.7-0.8c0.4-0.2,0.8-0.3,1.3-0.3
		c0.2,0,0.5,0.1,0.7,0.3c0.2,0.2,0.4,0.4,0.5,0.6c0.1,0.2,0.2,0.4,0.2,0.6c0,0.2,0,0.2-0.2,0.1c-0.2-0.1-0.4-0.1-0.6-0.1
		c-0.2,0.1-0.4,0.2-0.6,0.4c-0.2,0.2-0.3,0.4-0.4,0.7c-0.1,0.3-0.1,0.6-0.1,0.9c0,0.3,0.1,0.6,0.2,0.8c0.1,0.3,0.3,0.6,0.4,0.9
		s0.3,0.6,0.5,0.9s0.4,0.5,0.6,0.7c0.3-0.2,0.7-0.3,1-0.4c0.3-0.1,0.7-0.2,1-0.2c0.2,0,0.4,0,0.5,0.2c0,0,0,0.1,0.1,0.1
		c0-0.1,0.1-0.3,0.1-0.4c0.2-0.7,0.4-1.4,0.6-2.2s0.5-1.7,0.7-2.5l0,0L90,82h-0.2h-0.2c-0.2,0-0.3,0-0.4,0.1c-0.1,0-0.1-0.1-0.1-0.2
		c0-0.2,0-0.4,0-0.6c0-0.2,0.1-0.4,0.1-0.6c0.1-0.2,0.1-0.3,0.2-0.3c0.3-0.1,0.6-0.1,0.9-0.2c0.3,0,0.6,0,0.9,0l0.8-2.6
		c0.2-0.6,0.3-1,0.4-1.3c0.1-0.3,0.1-0.5,0.1-0.6s0-0.3,0.2-0.3c0.1,0,0.2,0,0.3,0.1c0.2,0.1,0.4,0.2,0.5,0.3
		c0.2,0.1,0.4,0.3,0.5,0.5c0.1,0.1,0.2,0.3,0.3,0.5c0,0.1,0,0.3-0.1,0.4L94.1,78c-0.1,0.3-0.2,0.6-0.3,1s-0.2,0.6-0.3,0.9H94
		l0.5-0.1l0.5-0.1c0.1,0,0.3,0,0.4,0c0.1,0,0.1,0,0.2,0c0,0,0.1,0.1,0.1,0.2c0,0.2-0.1,0.3-0.1,0.5c-0.1,0.2-0.2,0.6-0.4,1L93,81.8
		c-0.3,1-0.6,2-0.9,2.9s-0.6,1.8-0.8,2.6s-0.4,1.5-0.5,2.1c-0.1,0.5-0.1,1-0.1,1.5c0.1,0.5,0.2,0.8,0.4,0.8c0.3,0,0.6-0.1,0.8-0.3
		c0.4-0.3,0.7-0.7,0.9-1.1c0.3-0.5,0.6-1,0.9-1.5c0.2-0.3,0.3-0.7,0.5-1c0.1-0.6,0.3-1.1,0.5-1.7c0.2-0.6,0.5-1.2,0.8-1.8
		c0.3-0.5,0.7-1.1,1.1-1.6c0.3-0.4,0.7-0.8,1.2-1.1c0.3-0.3,0.8-0.4,1.2-0.5c0.3,0,0.7,0,1,0.1c0.3,0.1,0.6,0.2,0.9,0.4
		c0.2,0.2,0.5,0.3,0.6,0.6c0.1,0.2,0.2,0.3,0.3,0.5c0.1,0.3,0.1,0.5,0,0.8l0,0c0.2,0.1,0.3,0.2,0.5,0.3c0.2,0.1,0.3,0.3,0.4,0.4
		c0.1,0.1,0.1,0.3,0.1,0.4c0,0,0,0.1-0.1,0.3s-0.2,0.4-0.3,0.7s-0.2,0.5-0.3,0.8s-0.2,0.4-0.2,0.6c-0.1,0.3-0.2,0.7-0.2,1
		c-0.1,0.4-0.1,0.7-0.1,1c0,0.3,0,0.6,0,0.8c0,0.2,0.1,0.4,0.1,0.4c0.2,0.1,0.5-0.1,0.9-0.5c0.4-0.5,0.7-1,1-1.6
		c0.3-0.7,0.6-1.3,0.9-2c0.2-0.6,0.4-1.3,0.6-1.9c0-0.1,0.1-0.1,0.2,0c0.1,0.1,0.3,0.2,0.4,0.3c0.1,0.1,0.3,0.3,0.4,0.4
		c0.1,0.1,0.2,0.3,0.2,0.4C106,85.5,105.9,85.7,105.9,85.9L105.9,85.9z M86.1,90.1c-0.3,0.2-0.6,0.5-0.9,0.8
		c-0.3,0.3-0.5,0.6-0.8,0.9c-0.2,0.2-0.3,0.5-0.5,0.7c-0.1,0.2-0.2,0.4-0.1,0.4c0,0.1,0.1,0.1,0.2,0.1c0.5-0.1,0.9-0.3,1.2-0.6
		c0.2-0.3,0.4-0.6,0.6-0.9C86,91.1,86.1,90.6,86.1,90.1L86.1,90.1z M100.7,84.5l0.1-0.2c-0.1,0.1-0.3,0.2-0.4,0.3c0,0-0.1,0-0.2-0.1
		c-0.1-0.1-0.2-0.2-0.3-0.4c-0.1-0.1-0.2-0.3-0.3-0.4c-0.1-0.1-0.1-0.2-0.1-0.2c0.4-0.1,0.8-0.3,1.1-0.6c0.2-0.2,0.2-0.4,0.1-0.5
		s-0.2-0.2-0.5-0.2c-0.3,0-0.6,0.1-0.9,0.3c-0.6,0.3-1.1,0.8-1.4,1.3c-0.5,0.6-0.9,1.3-1.2,2c-0.3,0.7-0.6,1.5-0.8,2.2
		c-0.2,0.6-0.3,1.3-0.2,2c0,0.1,0.1,0.3,0.2,0.4c0.1,0.1,0.2,0.1,0.4,0.1c0.4-0.1,0.7-0.2,1-0.5c0.4-0.3,0.7-0.6,1-1
		c0.3-0.5,0.7-0.9,0.9-1.4c0.3-0.5,0.6-1,0.9-1.5S100.5,85,100.7,84.5L100.7,84.5z M38.2,88.6c-0.3,0-0.7,0-1-0.1
		c-0.3,0-0.6-0.2-0.8-0.3c-0.2-0.1-0.4-0.4-0.3-0.7c0-0.3,0.1-0.6,0.2-0.9c0.1-0.5,0.3-1,0.4-1.5s0.3-1.1,0.5-1.7s0.3-1,0.4-1.4
		l0.2-0.7h6.4l0.9,2.9c0.2-0.4,0.4-0.8,0.7-1.1c0.6-0.7,1.3-1.3,2.1-1.8c0.2-0.2,0.5-0.3,0.8-0.5l-5.2-16h-1.2L39,75.3
		c-1.1,3.5-2.1,7-3.1,10.5c-0.2,0.6-0.4,1-0.5,1.4c-0.1,0.3-0.3,0.6-0.5,0.8c-0.2,0.2-0.5,0.3-0.8,0.4c-0.4,0.1-0.9,0.1-1.3,0.1v0.6
		h6.4v-0.6L38.2,88.6L38.2,88.6z M41,71.2l3,9.4h-5.9L41,71.2z M79.6,79c-0.1-0.7-0.1-1.4-0.1-2.1c0-1.5,0.3-3,0.7-4.4
		c0.5-1.4,1.1-2.7,2-3.9c0.8-1.1,1.8-2.1,3-2.8c1.1-0.7,2.3-1.1,3.6-1.1c1.3,0,2.6,0.4,3.8,1.1c1.2,0.8,2.2,1.7,3,2.9
		c0.9,1.2,1.5,2.6,1.9,4c0.5,1.5,0.7,3.1,0.7,4.6c0,0.8-0.1,1.6-0.2,2.3c-0.3,0.1-0.6,0.2-0.9,0.4l0,0c0.1-0.7-0.3-1.4-1-1.7l0,0
		c-0.2-0.1-0.4-0.1-0.6-0.1c0.1-0.2,0.1-0.4,0.2-0.6c0.1-0.3,0.1-0.6,0.1-0.9c0-0.5-0.2-1-0.6-1.4c-0.2-0.3-0.5-0.5-0.8-0.7
		c-0.2-0.2-0.5-0.3-0.8-0.4h-0.1c0-0.6-0.1-1.1-0.2-1.7c-0.1-0.9-0.3-1.7-0.5-2.6c-0.2-0.8-0.5-1.6-0.8-2.3
		c-0.3-0.6-0.8-1.2-1.3-1.6c-0.5-0.4-1.2-0.7-1.8-0.6c-0.7,0-1.4,0.2-2,0.6c-0.6,0.4-1.1,1-1.4,1.6c-0.4,0.7-0.7,1.5-0.9,2.2
		c-0.2,0.8-0.4,1.7-0.5,2.6c-0.1,0.9-0.2,1.8-0.3,2.6s-0.1,1.6-0.1,2.3s0,1.5,0,2.3c0,0.1,0,0.2,0,0.2c-0.1,0.1-0.3,0.1-0.4,0.2
		c-0.4,0.2-0.7,0.5-0.9,0.9c-0.1-0.6-0.5-1-1-1.3c-0.3-0.2-0.7-0.3-1-0.4C80.2,79.1,79.9,79,79.6,79L79.6,79z M55.7,65.7h-2.6v-0.6
		h7l5.7,16.3l5.6-16.3h5.9v0.6h-2v16.9c-0.2-0.1-0.4-0.1-0.7-0.1c-0.8,0-1.5,0.6-1.5,1.5c0,0.1,0,0.1,0,0.2c0,0,0,0.1,0,0.1
		c0,0.2,0,0.4,0,0.6l0,0c-0.2-0.2-0.5-0.4-0.8-0.6c-0.3-0.2-0.5-0.3-0.8-0.5c-0.2-0.1-0.4-0.2-0.7-0.2V69.3l-0.3-0.1
		c-1.1,3.3-2.2,6.5-3.3,9.8l-1.5,4.4h-0.2h-0.3c-0.6,0.1-1.3,0.3-1.8,0.7c-0.4,0.2-0.7,0.5-1,0.7l-5.7-16.1l-0.3,0.1v9.5h-0.6v-1.8
		c0-1.3,0-2.6,0-3.9s0-2.4,0-3.4s0-1.8-0.1-2.5C55.8,66.4,55.8,66.1,55.7,65.7z M31.6,81.2h0.6v8H14.4v-0.6h2.3V65.7h-2.3v-0.6h8.8
		v0.6h-2.5v22.8h4.2c1,0,1.9,0,2.9-0.2c0.8-0.1,1.5-0.4,2.1-0.9c0.6-0.6,1-1.4,1.2-2.2C31.5,84,31.6,82.6,31.6,81.2z M140.2,82.1
		h0.6v7.1h-18.1v-0.6h1.8V65.7h-1.8v-0.6h18.1V71h-0.5c-0.1-1.1-0.4-2.1-1-3c-0.4-0.7-1.1-1.2-1.8-1.6c-0.8-0.3-1.6-0.5-2.4-0.5
		c-0.9,0-1.9-0.1-2.9-0.1h-3.2v10.7h0.9c0.7,0,1.4,0,2-0.1c0.5,0,1-0.2,1.4-0.5c0.4-0.3,0.7-0.8,0.9-1.2c0.2-0.8,0.3-1.6,0.3-2.4
		h0.6v9.1h-0.6c0-0.7-0.1-1.5-0.3-2.2c-0.1-0.5-0.3-0.9-0.7-1.2c-0.3-0.3-0.6-0.5-1-0.5c-0.5-0.1-0.9-0.1-1.4-0.1H129v11.1h3.5
		c1.1,0,2.1,0,3.1-0.1c0.9,0,1.7-0.3,2.5-0.7c0.7-0.4,1.3-1.1,1.7-1.9C140.2,84.6,140.3,83.4,140.2,82.1L140.2,82.1z M119.4,71.4
		c1.3,3.7,1.3,7.8,0,11.6c-0.6,1.4-1.4,2.7-2.6,3.7c-1.1,0.9-2.4,1.6-3.8,2c-1.5,0.4-3.1,0.6-4.7,0.6H106v-0.1
		c0.2-0.5,0.5-1,0.7-1.4v0.9c1.5,0,3-0.2,4.4-0.7c1.1-0.4,2.1-1.2,2.9-2.2c0.8-1.1,1.3-2.3,1.6-3.6c0.3-1.7,0.5-3.4,0.5-5.1
		c0-1.5-0.2-3-0.5-4.5c-0.3-1.3-0.8-2.5-1.5-3.6c-0.7-1-1.6-1.8-2.6-2.3c-1.1-0.6-2.4-0.9-3.7-0.8h-0.9v17.9
		c-0.1-0.1-0.2-0.3-0.4-0.4c-0.2-0.2-0.5-0.4-0.7-0.5c-0.3-0.1-0.5-0.2-0.8-0.2c-0.5,0-0.9,0.2-1.2,0.6c-0.2-0.2-0.3-0.4-0.5-0.5
		c0-0.1,0-0.2,0-0.3l0,0c-0.1-0.4-0.3-0.8-0.6-1.1V65.8h-2.1v-0.7h7.5c1.6,0,3.2,0.2,4.8,0.6c1.5,0.4,2.8,1,4,2
		C117.9,68.7,118.8,70,119.4,71.4L119.4,71.4z"/>
</g>
</svg>
