<svg xmlns="http://www.w3.org/2000/svg" xmlns:xlink="http://www.w3.org/1999/xlink" viewBox="0 0 155 155"><defs><style>.cls-1{fill:#fff;}.cls-2{fill:url(#linear-gradient);}</style><linearGradient id="linear-gradient" x1="29.26" y1="79.04" x2="123.42" y2="79.04" gradientUnits="userSpaceOnUse"><stop offset="0" stop-color="#e72286"/><stop offset="1" stop-color="#f8a922"/></linearGradient></defs><g id="Layer_2" data-name="Layer 2"><g id="Layer_1-2" data-name="Layer 1"><circle class="cls-1" cx="77.5" cy="77.5" r="77.5"/><path class="cls-2" d="M43.64,103.28a4.74,4.74,0,0,1,0,1.3,2.89,2.89,0,0,1-.35,1,1.12,1.12,0,0,1-.26.3l-.32.22a.51.51,0,0,1-.53,0,2.88,2.88,0,0,1-.69-.37,3.5,3.5,0,0,1-.56-.49c-.13-.16-.18-.28-.12-.36a.88.88,0,0,1,.19-.1.36.36,0,0,0,.17-.13,3.84,3.84,0,0,0,1.36-1.61.93.93,0,0,0-.32-1,3.54,3.54,0,0,0-1.53-.58,12.87,12.87,0,0,0-2.23-.17,22.29,22.29,0,0,0-2.44.13,16.91,16.91,0,0,0-2.14.34,17.55,17.55,0,0,0-2.07.59,4.72,4.72,0,0,1-1.27.32c-.11,0-.26-.08-.44-.29a4,4,0,0,1-.51-.74,2.49,2.49,0,0,1-.31-.78c-.06-.25,0-.39.13-.44l2.71-.79q.09,0,.45-.63c.23-.44.52-1,.86-1.71l1.17-2.44L36,92c.48-1,1-2,1.45-2.93s1-1.86,1.42-2.68.91-1.51,1.31-2.08a5.53,5.53,0,0,1,.85-1,1.46,1.46,0,0,1,.22-.17,4.53,4.53,0,0,1,1.84-.67l.49,0h.12a1.93,1.93,0,0,1,.42,0l.14,0a2.43,2.43,0,0,1,.48.14,2.1,2.1,0,0,1,1.1,1,4.69,4.69,0,0,1,.49,1.7,8.88,8.88,0,0,1,0,2.06,10.35,10.35,0,0,1-.44,2.09c-.06.16-.11.31-.15.44s-.08.28-.11.42-.19.28-.43.41a3.91,3.91,0,0,1-.76.31,2.17,2.17,0,0,1-.69.13c-.21,0-.29-.05-.25-.15l0,0a.61.61,0,0,1,.06-.25.81.81,0,0,0,.08-.25l.09-.31c0-.15.09-.31.13-.47s.12-.43.18-.66c.13-.53.25-1.07.34-1.61s.17-1.07.22-1.59a8.05,8.05,0,0,0,0-1.37,2.23,2.23,0,0,0-.28-1,.73.73,0,0,0-.66-.36c-.41,0-.85.36-1.31,1.07l-.33.54-.17.29-.18.32-.25.45-.11.21c-.11.19-.21.39-.32.61h0l-.4.76c-.2.37-.44.87-.75,1.5s-.63,1.34-1,2.09l-1.12,2.37-1.12,2.34c-.36.75-.67,1.43-1,2s-.52,1.09-.68,1.43l1.15-.12c.4,0,.81-.09,1.22-.12s.82,0,1.24,0a8.68,8.68,0,0,1,1.26.1,3.92,3.92,0,0,1,1.53.53,4.92,4.92,0,0,1,1.14,1,5.5,5.5,0,0,1,.78,1.26A4.7,4.7,0,0,1,43.64,103.28Zm71.46-9.5c.11.1.14.27.08.52a3.15,3.15,0,0,1-.25.75,2.77,2.77,0,0,1-.4.62c-.13.16-.25.23-.33.19a.89.89,0,0,1-.13-.18.46.46,0,0,0-.16-.15,3.94,3.94,0,0,0-1.82-1.07.92.92,0,0,0-.94.45,8.15,8.15,0,0,0-.8,1.91,6.24,6.24,0,0,1-1.24,2,12.76,12.76,0,0,1-1.07,1A10.33,10.33,0,0,1,106.3,101a6.91,6.91,0,0,1-1.89.68,5.12,5.12,0,0,1-2,0,4.14,4.14,0,0,1-1.16-.44,5.09,5.09,0,0,1-1.2-.9,4.93,4.93,0,0,1-.75-1,12,12,0,0,1-.93,1,6.17,6.17,0,0,1-1.18.93,2.23,2.23,0,0,1-1.15.36,2.61,2.61,0,0,1-.88-.17,4.47,4.47,0,0,1-1-.51,4.42,4.42,0,0,1-.84-.78,2.5,2.5,0,0,1-.49-1c-.32.3-.65.61-1,.93s-.7.59-1,.84a4.94,4.94,0,0,1-1,.57,1.39,1.39,0,0,1-.84.13,1.88,1.88,0,0,1-.94-.48,4.09,4.09,0,0,1-.74-.9,5,5,0,0,1-.42-.87,6.74,6.74,0,0,1-.94.77,3.06,3.06,0,0,1-1.74.62H84a.82.82,0,0,1-.27,0,3.21,3.21,0,0,1-1-.22c-.21.2-.41.39-.62.57s-.43.36-.65.52a2.65,2.65,0,0,1-1.42.5,3.93,3.93,0,0,1-1.53-.18,4.47,4.47,0,0,1-1.35-.66,2.53,2.53,0,0,1-.84-.91c0-.06-.06-.14-.09-.21a7.73,7.73,0,0,1-1.1,1.18,5.41,5.41,0,0,1-1.45.93,2.82,2.82,0,0,1-1.59.22,3.63,3.63,0,0,1-1.84-.66,1.92,1.92,0,0,1-.69-1.23A4.55,4.55,0,0,1,69.78,99a20.66,20.66,0,0,1,.69-2.12c.24-.66.52-1.38.83-2.16s.62-1.56.94-2.32.61-1.48.9-2.15.52-1.24.72-1.69c-.28.48-.63,1.08-1.07,1.8l-1.43,2.33c-.51.83-1,1.68-1.58,2.54s-1,1.65-1.52,2.38L67,99.5c-.36.54-.61.91-.76,1.1,0,0-.16,0-.39-.07a4.17,4.17,0,0,1-.76-.35,4.44,4.44,0,0,1-.76-.52.77.77,0,0,1-.34-.57q0-.42.09-1.17c0-.5.1-1.08.15-1.72s.1-1.33.17-2.06.12-1.49.17-2.25l.06-.84h0c0-.47.07-1,.1-1.41q.08-1.1.12-2c-.26.7-.58,1.53-.95,2.47s-.78,1.94-1.22,3-.86,2.07-1.3,3.1L60.19,99c-.35.87-.66,1.62-.91,2.25a12.71,12.71,0,0,0-.44,1.25c0,.07-.13.07-.35,0a2.94,2.94,0,0,1-.68-.38,2.7,2.7,0,0,1-.58-.59.61.61,0,0,1-.1-.65c.14-.35.35-.85.61-1.5s.57-1.38.9-2.21.7-1.71,1.08-2.67.75-1.91,1.14-2.87c.08-.19.15-.37.22-.56h0L62,88.79c.36-.92.7-1.76,1-2.52l.78-2c.22-.55.37-1,.47-1.19a.57.57,0,0,1,.1-.19l0,0a.76.76,0,0,1,.09-.09l.07,0a.31.31,0,0,1,.1,0h.22a2,2,0,0,1,.93.31,3.57,3.57,0,0,1,.84.72,1.23,1.23,0,0,1,.37.79v1.94c0,.92,0,2-.07,3.17s-.13,2.47-.25,3.82-.3,2.66-.54,3.92l2.09-3.26c.7-1.11,1.39-2.18,2.05-3.22s1.29-2,1.89-3,1.13-1.78,1.62-2.51l.45-.66.07-.11.75-1a5,5,0,0,1,.81-.9c.06,0,.21,0,.44.15a2.73,2.73,0,0,1,.69.61,3,3,0,0,1,.34.51,3.54,3.54,0,0,1,.19.39,1.31,1.31,0,0,1,0,1q-.29.69-.69,1.62l-.84,2c-.29.7-.6,1.41-.91,2.13h0v0c-.32.73-.63,1.43-.91,2.11l-.81,1.88c-.25.59-.45,1.08-.61,1.48a19.38,19.38,0,0,0-1.06,3.22c-.17.83-.1,1.37.22,1.61a.76.76,0,0,0,.86,0,3.66,3.66,0,0,0,1.06-.82,11.73,11.73,0,0,0,1.1-1.37c.37-.53.72-1.07,1-1.61.23-.38.43-.74.63-1.1s.19-.59.31-.9a11.23,11.23,0,0,1,.91-1.88,10.62,10.62,0,0,1,1.21-1.65,6,6,0,0,1,1.45-1.2,4.11,4.11,0,0,1,.42-.21l.15-.05a2.46,2.46,0,0,1,.29-.09l.17,0,.26,0H82l.23,0h.05a4.43,4.43,0,0,1,1.66.34,4.07,4.07,0,0,1,.55.29h0a4.23,4.23,0,0,1,.75.57,2.43,2.43,0,0,1,.68,1.07,3.39,3.39,0,0,1,0,1.1,10.33,10.33,0,0,1-.29,1.6A13.3,13.3,0,0,1,85,97.27a12.89,12.89,0,0,1-1.06,2s0,.09,0,.12a1.19,1.19,0,0,0,.53,0,3.06,3.06,0,0,0,1-.81,13.42,13.42,0,0,0,1.13-1.47l.33-.52v0a11,11,0,0,1,.8-1.9c.18-.34.38-.66.59-1l.06-.2s0,0,.08,0c.14-.21.29-.41.44-.62a13.28,13.28,0,0,1,1.39-1.56,7.45,7.45,0,0,1,.85-.68,5.12,5.12,0,0,1,.65-.42,2.91,2.91,0,0,1,1.42-.42,2.55,2.55,0,0,1,1.4.42,3.63,3.63,0,0,1,1,.92h0c0-.11.1-.24.17-.39s.13-.34.21-.53l.55-1.36c.21-.5.43-1,.65-1.6s.45-1.12.68-1.67.46-1.07.67-1.57.39-.93.55-1.32c0,0,0,0,0,0h.06l.19.08a3.19,3.19,0,0,1,.58.4,2.56,2.56,0,0,1,.51.58.71.71,0,0,1,.13.63c-.09.26-.24.65-.46,1.18l-.77,1.85c-.28.71-.61,1.47-1,2.29-.21.47-.41,1-.61,1.44h0l-.44,1c-.34.84-.68,1.66-1,2.46s-.6,1.53-.85,2.21S95.1,98,95,98.49a3.24,3.24,0,0,0-.19,1q.08.91.48,1a1.38,1.38,0,0,0,1-.4,8.41,8.41,0,0,0,1.24-1.31c.43-.56.85-1.14,1.25-1.74.13-.19.26-.38.37-.56s.13-.44.21-.67a11.13,11.13,0,0,1,.87-1.77,11.48,11.48,0,0,1,1.2-1.66A12,12,0,0,1,102.76,91a6.91,6.91,0,0,1,1.47-1,3.35,3.35,0,0,1,1.39-.35,1.66,1.66,0,0,1,1,.35,3.41,3.41,0,0,1,.8.85,3.82,3.82,0,0,1,.5,1,1.33,1.33,0,0,1,0,.88,6.6,6.6,0,0,1-.85,1.58A7.87,7.87,0,0,1,106,95.58a6.77,6.77,0,0,1-1.18.84,8.09,8.09,0,0,1-1.07.53,8,8,0,0,1-.8.28c-.22.06-.34.08-.37.06a.83.83,0,0,1-.3-.15l-.35-.29a2.45,2.45,0,0,1-.31-.34,2.89,2.89,0,0,1-.21-.28l-.11.22c-.09.23-.19.51-.28.82a5.35,5.35,0,0,0-.23,1.22,2.48,2.48,0,0,0,.17,1.1,1.2,1.2,0,0,0,.81.68,3.12,3.12,0,0,0,1.66.09,6.14,6.14,0,0,0,1.66-.63,8.8,8.8,0,0,0,1.59-1.09A13.75,13.75,0,0,0,108,97.27a10.33,10.33,0,0,0,1.08-1.43c.07-.12.14-.21.2-.3a4.25,4.25,0,0,1,.43-.59,5.35,5.35,0,0,1,2.39-1.6,4.59,4.59,0,0,1,1.28-.22,2.48,2.48,0,0,1,1.09.17.94.94,0,0,1,.34.21Zm-13.51,2a3.4,3.4,0,0,0,1.4-.37,9.35,9.35,0,0,0,1.47-.9,9.49,9.49,0,0,0,1.22-1.12,5.55,5.55,0,0,0,.74-1,3.23,3.23,0,0,0,.26-.65c0-.13,0-.2-.09-.21a.59.59,0,0,0-.37.08l-.61.25a8.28,8.28,0,0,0-1.15.67,9.09,9.09,0,0,0-1.16.93,9.63,9.63,0,0,0-1,1.1,4.52,4.52,0,0,0-.54.83.36.36,0,0,1,0,.1Zm-18-1.13-.09.07a3.58,3.58,0,0,0-.46.3,1.19,1.19,0,0,0-.36.42,3.9,3.9,0,0,0-.53,1.39A2.6,2.6,0,0,0,82.25,98,14.85,14.85,0,0,0,83,96.33,17,17,0,0,0,83.62,94.65ZM83.94,93a2.38,2.38,0,0,0-.09-1,.63.63,0,0,0-.45-.43,1.41,1.41,0,0,0-.91.24,5.24,5.24,0,0,0-1.08.89,14.38,14.38,0,0,0-1.13,1.35,15.65,15.65,0,0,0-1,1.61,15.26,15.26,0,0,0-.78,1.66,6.59,6.59,0,0,0-.41,1.49,2.08,2.08,0,0,0,.1,1.12,1.64,1.64,0,0,0,.68.77,1.09,1.09,0,0,0,.77.1,2.25,2.25,0,0,0,.83-.46,6.61,6.61,0,0,0,.84-.89,4,4,0,0,1-.82-1.89,3.53,3.53,0,0,1,.32-2.09,1.94,1.94,0,0,1,1.49-1.28,1.94,1.94,0,0,1,.76,0l.58.1.07,0A7.15,7.15,0,0,0,83.94,93Zm10.39,1h0s-.12,0-.22-.12a4.39,4.39,0,0,1-.3-.45,2.62,2.62,0,0,1-.23-.48c-.06-.15-.06-.23,0-.25a3.1,3.1,0,0,0,1.27-.56c.23-.22.31-.41.24-.58s-.23-.28-.52-.33a1.93,1.93,0,0,0-1,.2,5.54,5.54,0,0,0-1.77,1.3,14.35,14.35,0,0,0-1.67,2.08,14.63,14.63,0,0,0-1.27,2.36,7.46,7.46,0,0,0-.62,2.14.53.53,0,0,0,.13.44.56.56,0,0,0,.4.16A2.39,2.39,0,0,0,90,99.49a8.17,8.17,0,0,0,1.4-1.13,16,16,0,0,0,1.35-1.54c.45-.57.83-1.12,1.17-1.64a5.77,5.77,0,0,1,.22-.58Zm-38.1.9a1,1,0,0,1,.17.48,2.43,2.43,0,0,1-.22.77,9.22,9.22,0,0,1-.6,1.25c-.26.46-.56.95-.91,1.45a12.08,12.08,0,0,1-1.11,1.39,6.74,6.74,0,0,1-1.19,1,2.16,2.16,0,0,1-1.19.41,1.62,1.62,0,0,1-.79-.24,4.53,4.53,0,0,1-.82-.58,4,4,0,0,1-.63-.69,1.11,1.11,0,0,1-.25-.6V99.5c-.33.3-.63.6-.92.88a9.58,9.58,0,0,1-.86.76,3.72,3.72,0,0,1-.84.49,1.43,1.43,0,0,1-.81.1,2.05,2.05,0,0,1-1-.48,4.51,4.51,0,0,1-.78-.9A4.77,4.77,0,0,1,43,99.26a3.8,3.8,0,0,1-.22-1A6,6,0,0,1,43,96.52a10.73,10.73,0,0,1,.77-1.89,14.74,14.74,0,0,1,1.14-1.84,11.17,11.17,0,0,1,1.37-1.57,7.76,7.76,0,0,1,.92-.75h0c.18-.12.35-.25.53-.35a2.89,2.89,0,0,1,1.38-.41,2.33,2.33,0,0,1,1.06.25,4.66,4.66,0,0,1,.9.59l.28.27a3.65,3.65,0,0,1,.36.44,1.53,1.53,0,0,1,.26.64,1.67,1.67,0,0,1-.14.87l.05,0a4.61,4.61,0,0,1,.49.44,2.91,2.91,0,0,1,.41.55.5.5,0,0,1,.06.46s-.08.13-.18.34-.23.45-.37.73l-.42.83c-.13.27-.24.49-.3.63a8.59,8.59,0,0,0-.39,1,9.28,9.28,0,0,0-.3,1.11,5.18,5.18,0,0,0-.15.91c0,.26,0,.41.1.44.27.09.61-.06,1-.48a10.64,10.64,0,0,0,1.26-1.62A22.3,22.3,0,0,0,54.34,96c.38-.77.69-1.44.91-2q0-.11.21,0a1.77,1.77,0,0,1,.4.38A2.48,2.48,0,0,1,56.23,94.93Zm-5.52-1c0-.07.08-.12.12-.18a3.32,3.32,0,0,1-.51.24s-.12,0-.23-.12-.2-.28-.31-.44a2.78,2.78,0,0,1-.25-.48c-.06-.15-.07-.24,0-.25a3,3,0,0,0,1.25-.57q.33-.32.24-.57a.6.6,0,0,0-.53-.32,1.82,1.82,0,0,0-1,.19,5.28,5.28,0,0,0-1.75,1.29,12.47,12.47,0,0,0-1.61,2.09,13.41,13.41,0,0,0-1.21,2.35,7.34,7.34,0,0,0-.53,2.13.56.56,0,0,0,.13.44.54.54,0,0,0,.4.16A2.11,2.11,0,0,0,46,99.52a6.83,6.83,0,0,0,1.21-1c.41-.43.82-.9,1.23-1.42s.8-1,1.18-1.59S50.37,94.44,50.71,94Zm57.13-22a1.5,1.5,0,1,0,1.49-1.5A1.49,1.49,0,0,0,107.84,71.91ZM41.77,88.62a6.54,6.54,0,0,0,.53.65l.12-.47c.13-.49.24-1,.33-1.5l.12-.77c-.28.5-.59,1.09-.93,1.76Zm68.46-41.5a4.94,4.94,0,1,0-3.68-3.68A4.89,4.89,0,0,0,110.23,47.12Zm4.06,3.46a3,3,0,1,0,.95,5.91,3,3,0,0,0-.95-5.91ZM55.6,45.9a.94.94,0,0,0-.94-.94H48.57a.94.94,0,0,0-.94.94v1.51h8Zm-12.76,35a6,6,0,0,0-2.08.69V54.43a5.66,5.66,0,0,1,5.66-5.67H59.31A1.79,1.79,0,0,0,61,47.63l1.69-4.17a1.84,1.84,0,0,1,1.71-1.15H82.49a1.83,1.83,0,0,1,1.75,1.27l1.26,3.89a1.87,1.87,0,0,0,1.78,1.29h9a.42.42,0,0,1,.22.78,7.33,7.33,0,0,0-3,4.14,7.08,7.08,0,0,0-.26,1.42,6.33,6.33,0,0,1-5.51,5.79,6.8,6.8,0,0,1-3.62-.72,25.37,25.37,0,0,1-3.46-2.39c-6-4.33-15.14-1.72-19.1,4.13a14.22,14.22,0,0,0,3,19.2,2.14,2.14,0,0,0-1.8,1.44l-.23.56-.23.61-.78,2-.41,1-.6,1.51c-.37.92-.74,1.86-1.13,2.82v0h-6A3.13,3.13,0,0,0,53,90.4a4.27,4.27,0,0,0-1-1.06,5.38,5.38,0,0,0-1.21-.79,3.84,3.84,0,0,0-1.76-.42,4.05,4.05,0,0,0-1.38.26c0-.25.09-.49.12-.75a10.82,10.82,0,0,0,0-2.41A6.41,6.41,0,0,0,47.2,83a3.61,3.61,0,0,0-1.92-1.75,4.51,4.51,0,0,0-1.7-.32A6.27,6.27,0,0,0,42.84,80.94ZM82,54a3.6,3.6,0,1,0,3.6-3.59A3.6,3.6,0,0,0,82,54Zm39.88-13a1.53,1.53,0,1,0,1.53,1.53A1.53,1.53,0,0,0,121.89,41.08Zm-24,21.51c.22.09.45.16.68.23a7.39,7.39,0,0,0,5-.38,1.27,1.27,0,0,1,1.8,1.15v21.8a5.71,5.71,0,0,1-.76,2.84,6,6,0,0,0-1.15.38,8.68,8.68,0,0,0-1.81,1.17A13.2,13.2,0,0,0,100.49,91c-.23,0-.45,0-.68,0h-.26l.34-.82c.41-.94.72-1.67,1-2.31s.54-1.31.76-1.84.41-1,.5-1.3a2.3,2.3,0,0,0-.31-2,4.25,4.25,0,0,0-.82-.92,4.91,4.91,0,0,0-.85-.58,3.58,3.58,0,0,0-.51-.21,6.46,6.46,0,1,0-2.49,1.08,4.67,4.67,0,0,0,.5-.14v0l-.51,1.23,0,.06c-.17.41-.35.83-.54,1.27l-.12.3c-.24.56-.47,1.12-.7,1.69s-.43,1.09-.64,1.59l-.14.35a4.05,4.05,0,0,0-1.74-.39,4.54,4.54,0,0,0-2.2.62,9.63,9.63,0,0,0-1.79,1.33c-.33.31-.63.63-.93,1h-1.5a5.74,5.74,0,0,0-.47-.55,5.61,5.61,0,0,0-1.81-1.2,6,6,0,0,0-2.24-.46h-.08a5.09,5.09,0,0,0-2.48.66l0,0h0A7.69,7.69,0,0,0,77.88,91l0,0h-1l.65-1.51c.18-.44.36-.84.52-1.24l.32-.75L79,85.92a2.83,2.83,0,0,0,0-2.16,4.37,4.37,0,0,0-.33-.69,14.17,14.17,0,0,0,8.85-13.15,8.11,8.11,0,0,1,2-5.55A7.56,7.56,0,0,1,97.94,62.59ZM89.43,83.65a2.23,2.23,0,1,0-2.23,2.23A2.23,2.23,0,0,0,89.43,83.65Zm-20.91,6c0,.37,0,.74,0,1.12L69,90c.66-1,1.29-2,1.88-3S72,85.19,72.48,84.5c.09-.14.18-.26.27-.39a13.64,13.64,0,0,1-4.42-.89l-.14,0a2.45,2.45,0,0,1,.4,1.33v1.94C68.59,87.38,68.57,88.46,68.52,89.67ZM83.67,68.55A10.44,10.44,0,1,0,72,80.26,10.46,10.46,0,0,0,83.67,68.55ZM103.4,53.14a2.14,2.14,0,1,0-2.52-2.52A2.15,2.15,0,0,0,103.4,53.14ZM71.34,107.08a4,4,0,0,0,.25-.82,3.21,3.21,0,0,0,.06-.73,2.62,2.62,0,0,0-.5-1.27A5.1,5.1,0,0,0,70,103.09a5.36,5.36,0,0,0-1.48-.77,2.76,2.76,0,0,0-1.52-.1,5.63,5.63,0,0,0-1.14.48,6.5,6.5,0,0,0-1.28.92A7.66,7.66,0,0,0,63.39,105a6.22,6.22,0,0,0-.85,1.82,3.36,3.36,0,0,0,0,2,4.9,4.9,0,0,0,.82,1.61,7,7,0,0,0,1.23,1.21c.44.34.82.61,1.13.82a3.61,3.61,0,0,1,.83.79,5,5,0,0,1,.64,1.08,4.82,4.82,0,0,1,.34,1.28,4.24,4.24,0,0,1,0,1.33,3.23,3.23,0,0,1-1.09,1.86,3.83,3.83,0,0,1-2.45.78,4.46,4.46,0,0,1-1.86-.32,3.36,3.36,0,0,1-1.2-.89,2.8,2.8,0,0,1-.59-1.27,4,4,0,0,1,0-1.43,4.36,4.36,0,0,1,.48-1.38,4.19,4.19,0,0,1,.91-1.13,2.45,2.45,0,0,1,1.1-.56,1,1,0,0,1,.86.21,1.5,1.5,0,0,1,.33,1.06,5.93,5.93,0,0,1-.46,2c0,.1.09.17.26.21a1.79,1.79,0,0,0,.58,0,2.59,2.59,0,0,0,.63-.1.52.52,0,0,0,.36-.26,2.41,2.41,0,0,0,.23-1.13,2.9,2.9,0,0,0-.27-1.16,3.31,3.31,0,0,0-.67-1,3.09,3.09,0,0,0-1-.68,3,3,0,0,0-1.29-.19,3.51,3.51,0,0,0-1.46.47,4.08,4.08,0,0,0-1.48,1.37,4.61,4.61,0,0,0-.69,1.8,5.19,5.19,0,0,0,.08,2,4.25,4.25,0,0,0,.83,1.77,4.84,4.84,0,0,0,3.91,1.8,5.58,5.58,0,0,0,1.5-.2,7.12,7.12,0,0,0,3.77-2.45,4,4,0,0,0,.72-1.47A3.93,3.93,0,0,0,69.5,115a4.71,4.71,0,0,0-.61-1.67,6.31,6.31,0,0,0-1.4-1.57l-1.31-1.07a9,9,0,0,1-1.08-1,4,4,0,0,1-.7-1.1,2.09,2.09,0,0,1-.14-1.21,3.71,3.71,0,0,1,.53-1.45,4.24,4.24,0,0,1,.95-1.06,4.17,4.17,0,0,1,1.19-.64,3.71,3.71,0,0,1,1.25-.2,2.59,2.59,0,0,1,1.11.26,1.74,1.74,0,0,1,.79.73,2,2,0,0,1,.18.68,2.17,2.17,0,0,1-.09.8,2.55,2.55,0,0,1-.37.76,1.42,1.42,0,0,1-.64.5,1.26,1.26,0,0,1-1.06,0,1.3,1.3,0,0,1-.59-.93c-.06-.22-.17-.32-.34-.29a1,1,0,0,0-.53.28,2.26,2.26,0,0,0-.46.57.7.7,0,0,0-.1.55,1.48,1.48,0,0,0,.66.8,3.09,3.09,0,0,0,1.1.41,3.78,3.78,0,0,0,1.21,0,2.7,2.7,0,0,0,1-.39,3.2,3.2,0,0,0,.77-.74A3.6,3.6,0,0,0,71.34,107.08Zm28.51,1.49a2.88,2.88,0,0,0,.4.09,1.13,1.13,0,0,0,.27,0,3.62,3.62,0,0,0,.79-.88,6.18,6.18,0,0,0,.4-.64,2.58,2.58,0,0,0,.23-.61c0-.11,0-.23-.19-.35a2.42,2.42,0,0,0-.58-.29,3.07,3.07,0,0,0-.63-.13c-.2,0-.3,0-.3.07s-.11.42-.18.65-.13.46-.2.67-.13.4-.19.56-.11.29-.15.37a.23.23,0,0,0,0,.3A.78.78,0,0,0,99.85,108.57Zm18.7,5.3a1.65,1.65,0,0,0-.28-.5.57.57,0,0,0-.45-.24,4.08,4.08,0,0,0-1,.12,10,10,0,0,0-1,.31,7.94,7.94,0,0,1-.45-.79,8.63,8.63,0,0,1-.43-.92c-.12-.32-.23-.63-.33-.95a3,3,0,0,1-.13-.82,1.7,1.7,0,0,1,.17-.88,1.75,1.75,0,0,1,.47-.64,1.36,1.36,0,0,1,.63-.3.85.85,0,0,1,.62.14c.12.09.19,0,.2-.1a1.37,1.37,0,0,0-.12-.56,2.12,2.12,0,0,0-.39-.65,1,1,0,0,0-.61-.35,2.56,2.56,0,0,0-1.3.18,2.19,2.19,0,0,0-.82.72,4.08,4.08,0,0,0-.51,1.07c-.13.4-.24.82-.34,1.24a18.22,18.22,0,0,1-.66,2.11c-.18.49-.38,1-.6,1.52s-.51.92-.79,1.34a10.14,10.14,0,0,1-1,1.29,2.66,2.66,0,0,1-.9.72,1.19,1.19,0,0,1-.46,0s0-.06,0-.1a12.11,12.11,0,0,0,.93-1.73,11.12,11.12,0,0,0,.58-1.67,8.53,8.53,0,0,0,.26-1.41,3.6,3.6,0,0,0,0-1,2.25,2.25,0,0,0-.61-.94,3.74,3.74,0,0,0-1.15-.77,3.84,3.84,0,0,0-1.46-.29,3.09,3.09,0,0,0-1.56.41,5.43,5.43,0,0,0-1.27,1.06,9.35,9.35,0,0,0-1.08,1.46,10.15,10.15,0,0,0-.8,1.66c-.11.28-.2.56-.28.82-.24.42-.49.82-.76,1.22a9.93,9.93,0,0,1-.87,1.12,4.63,4.63,0,0,1-.84.75.85.85,0,0,1-.7.19.56.56,0,0,1-.43-.47,2.56,2.56,0,0,1,0-1,8.24,8.24,0,0,1,.38-1.31c.17-.49.37-1,.6-1.53s.47-1.06.72-1.6.5-1,.75-1.53c.07-.14,0-.3-.12-.49a3.3,3.3,0,0,0-1.16-.86c-.2-.09-.31-.1-.34,0-.32.75-.65,1.49-1,2.21s-.61,1.4-.87,2c-.14.32-.26.63-.37.93l-.49.77c-.36.53-.73,1-1.12,1.53a6.94,6.94,0,0,1-1.09,1.16,1.15,1.15,0,0,1-.87.35c-.24,0-.39-.33-.43-.87a2.89,2.89,0,0,1,.17-.89c.13-.42.3-.93.52-1.53s.47-1.24.76-2,.57-1.43.88-2.18.61-1.47.92-2.19.6-1.4.85-2,.48-1.17.68-1.64a10.35,10.35,0,0,0,.4-1,.62.62,0,0,0-.1-.56,2.47,2.47,0,0,0-.46-.51,3.34,3.34,0,0,0-.51-.35c-.16-.08-.25-.1-.26-.06-.15.34-.31.73-.49,1.17s-.38.9-.59,1.39-.4,1-.6,1.47l-.57,1.41c-.19.45-.35.85-.49,1.2s-.26.63-.34.83a3.28,3.28,0,0,0-.9-.82,2.27,2.27,0,0,0-1.23-.37,2.72,2.72,0,0,0-1.26.37,6.77,6.77,0,0,0-1.31,1,9.79,9.79,0,0,0-1.24,1.38,12.52,12.52,0,0,0-1,1.61,11,11,0,0,0-.71,1.68s0,0,0,.08c-.16.29-.31.58-.5.88s-.54.84-.82,1.24a9.17,9.17,0,0,1-.83,1,3.39,3.39,0,0,1-.73.56.43.43,0,0,1-.55-.08c-.07-.08-.06-.3,0-.66s.22-.8.4-1.31.38-1.06.62-1.63.48-1.13.7-1.65.43-1,.62-1.36l.36-.78s0-.16-.18-.36a6.62,6.62,0,0,0-.51-.58,2.24,2.24,0,0,0-.55-.43c-.18-.1-.28-.09-.31,0s-.06.16-.18.44-.27.64-.47,1.06-.4.89-.62,1.4-.45,1-.65,1.43-.39.84-.55,1.17a5.64,5.64,0,0,1-.33.61,9.75,9.75,0,0,1-1.74,1.74,2.92,2.92,0,0,1-.92.48.48.48,0,0,1-.61-.22,2,2,0,0,1,.13-1.15,16.37,16.37,0,0,1,.76-2c.34-.75.73-1.55,1.18-2.4s.89-1.65,1.35-2.4c0-.06,0-.17-.11-.33a2.79,2.79,0,0,0-.39-.49,2.25,2.25,0,0,0-.49-.37.34.34,0,0,0-.39,0,4.92,4.92,0,0,0-.7.89,15,15,0,0,0-.78,1.36c-.26.51-.52,1-.76,1.63l-.14.33c-.06,0-.1,0-.13,0a4.93,4.93,0,0,1-.5,1.21,13.88,13.88,0,0,1-.91,1.46,15.74,15.74,0,0,1-1.08,1.38,6,6,0,0,1-1,1,.93.93,0,0,1-.79.23c-.2-.06-.31-.34-.31-.84a5.08,5.08,0,0,1,.29-1.48c.19-.6.45-1.27.76-2s.68-1.55,1.09-2.41.81-1.76,1.24-2.7l2.14-.06c.23-.38.4-.68.51-.89a1.63,1.63,0,0,0,.2-.48c0-.11,0-.17,0-.2a.47.47,0,0,0-.2-.06,2.33,2.33,0,0,0-.4,0h-.5l-.52,0h-.41c.11-.25.23-.52.35-.82l.39-.91c.12-.3.22-.55.29-.76a1.86,1.86,0,0,0,.12-.38,1,1,0,0,0-.2-.56,3.29,3.29,0,0,0-.46-.52,3.6,3.6,0,0,0-.48-.38.73.73,0,0,0-.28-.13q-.24,0-.24.27a3.18,3.18,0,0,1-.2.52c-.13.32-.32.74-.56,1.27l-1.06,2.46a3.39,3.39,0,0,1-.78,0,3.16,3.16,0,0,0-.86,0c-.08,0-.16.11-.24.28a3.07,3.07,0,0,0-.19.56,2.43,2.43,0,0,0-.08.54q0,.24.09.24l.45,0h.34a5.08,5.08,0,0,0,.53,0v0c-.37.82-.72,1.61-1,2.37s-.61,1.48-.86,2.14-.47,1.26-.63,1.79a8.11,8.11,0,0,0-.31,1.36,1.76,1.76,0,0,0,.26,1.14,3.72,3.72,0,0,0,.78.9,3.93,3.93,0,0,0,1,.59,2.39,2.39,0,0,0,.91.22,2.16,2.16,0,0,0,1.35-.59,7.86,7.86,0,0,0,1-1l0,.1a3.67,3.67,0,0,0,.55.8,2.41,2.41,0,0,0,.74.58A1.23,1.23,0,0,0,78,119a1.88,1.88,0,0,0,.51-.17,7.59,7.59,0,0,0,.68-.36c.24-.15.47-.29.69-.45a4.57,4.57,0,0,0,.54-.45,1.27,1.27,0,0,0,.16.53,2,2,0,0,0,.34.41c.14.11.27.21.41.3l.35.19a2.51,2.51,0,0,0,1.43.2,3.32,3.32,0,0,0,1.31-.54,5.85,5.85,0,0,0,1.17-1.07c.09-.1.16-.21.24-.31.08.17.16.33.26.5a3.38,3.38,0,0,0,.66.79,1.71,1.71,0,0,0,.83.43,1.29,1.29,0,0,0,.74-.12,4.51,4.51,0,0,0,.88-.51c.31-.22.61-.47.93-.74l.89-.82a2.05,2.05,0,0,0,.43.89,3.5,3.5,0,0,0,.75.69,4,4,0,0,0,.84.45,2.46,2.46,0,0,0,.78.16,2,2,0,0,0,1-.32,5.48,5.48,0,0,0,1-.83c.17-.17.33-.34.49-.53a3.72,3.72,0,0,0,.76.87,3.76,3.76,0,0,0,1,.59A2.39,2.39,0,0,0,99,119a2.42,2.42,0,0,0,1.56-.65,7.42,7.42,0,0,0,.76-.73,1.47,1.47,0,0,0,.08.25,2.31,2.31,0,0,0,.74.81,4.11,4.11,0,0,0,1.19.58,3.66,3.66,0,0,0,1.36.16A2.36,2.36,0,0,0,106,119l.58-.46.55-.5a3.12,3.12,0,0,0,.85.19l.23,0h.15a2.69,2.69,0,0,0,1.54-.54,7.13,7.13,0,0,0,1.43-1.33,10.82,10.82,0,0,0,1.14-1.62,5,5,0,0,0,.6-1.45.45.45,0,0,0,0-.2h0a7.24,7.24,0,0,0,.27-.73c.21.32.41.65.59,1s.37.67.5.91c0,0,0,0-.06,0-.65.46-1.18.84-1.59,1.16a9.5,9.5,0,0,0-1,.85,2.72,2.72,0,0,0-.51.68,2.08,2.08,0,0,0-.19.6,1.47,1.47,0,0,0,.12.52,3,3,0,0,0,.31.62,2.83,2.83,0,0,0,.48.55,1.53,1.53,0,0,0,.57.33,2.36,2.36,0,0,0,1.7-.08,3.45,3.45,0,0,0,1.33-1.07,4.6,4.6,0,0,0,.8-1.63,4.27,4.27,0,0,0,.12-1.8,3.32,3.32,0,0,1,1-.36,5.19,5.19,0,0,1,.92-.09.24.24,0,0,0,.27-.23A1,1,0,0,0,118.55,113.87Zm-26.5-1.14a5.27,5.27,0,0,0-.19.51c-.3.47-.64,1-1,1.45a12.5,12.5,0,0,1-1.2,1.36,7.2,7.2,0,0,1-1.23,1,2.16,2.16,0,0,1-1.13.39.48.48,0,0,1-.35-.13.52.52,0,0,1-.12-.4,6.6,6.6,0,0,1,.55-1.89,14,14,0,0,1,1.12-2.08A12.29,12.29,0,0,1,90,111.1,4.68,4.68,0,0,1,91.52,110a1.62,1.62,0,0,1,.91-.17.55.55,0,0,1,.47.29c0,.15,0,.32-.22.51a2.56,2.56,0,0,1-1.12.49s0,.09,0,.23a3.9,3.9,0,0,0,.2.42,4.62,4.62,0,0,0,.27.4c.09.11.16.14.2.1h0Zm15.21,1.53a15.12,15.12,0,0,1-.69,1.46,2.09,2.09,0,0,1-.06-1,3.44,3.44,0,0,1,.46-1.24,1.11,1.11,0,0,1,.32-.37l.4-.26.09-.07C107.64,113.25,107.46,113.75,107.26,114.26Zm.58-1.76-.06,0-.51-.09a1.94,1.94,0,0,0-.68,0,1.77,1.77,0,0,0-.71.31,1.89,1.89,0,0,0-.61.82,3.09,3.09,0,0,0-.27,1.84,3.54,3.54,0,0,0,.72,1.68,5.68,5.68,0,0,1-.74.79,1.94,1.94,0,0,1-.74.4.88.88,0,0,1-.67-.09,1.55,1.55,0,0,1-.61-.67,1.84,1.84,0,0,1-.08-1,5.47,5.47,0,0,1,.36-1.32,11.21,11.21,0,0,1,.69-1.46,10.7,10.7,0,0,1,.9-1.42,11.3,11.3,0,0,1,1-1.21,4.42,4.42,0,0,1,1-.78,1.23,1.23,0,0,1,.8-.21.55.55,0,0,1,.4.38,2.18,2.18,0,0,1,.08.86A6.35,6.35,0,0,1,107.84,112.5Zm6.65,4.77a2.91,2.91,0,0,1-.69.8,2.16,2.16,0,0,1-.71.38,2,2,0,0,1-.56.1.18.18,0,0,1-.17-.09.77.77,0,0,1,.19-.42,4.82,4.82,0,0,1,.56-.67,7.93,7.93,0,0,1,.84-.75,6.37,6.37,0,0,1,1-.68A3.82,3.82,0,0,1,114.49,117.27Z"/></g></g></svg>