<?xml version="1.0" encoding="utf-8"?>
<!-- Generator: Adobe Illustrator 25.0.1, SVG Export Plug-In . SVG Version: 6.00 Build 0)  -->
<svg version="1.1" id="Layer_1" xmlns="http://www.w3.org/2000/svg" xmlns:xlink="http://www.w3.org/1999/xlink" x="0px" y="0px"
	 viewBox="0 0 155 155" style="enable-background:new 0 0 155 155;" xml:space="preserve">
<style type="text/css">
	.st0{fill:#FFFFFF;}
	.st1{fill:url(#SVGID_1_);}
</style>
<g id="Layer_2_1_">
	<circle class="st0" cx="77.5" cy="77.6" r="77.5"/>
	
		<linearGradient id="SVGID_1_" gradientUnits="userSpaceOnUse" x1="54.0579" y1="45.5321" x2="108.7479" y2="100.2221" gradientTransform="matrix(1 0 0 -1 0 156.44)">
		<stop  offset="0" style="stop-color:#816540"/>
		<stop  offset="0.29" style="stop-color:#C39B65"/>
		<stop  offset="0.52" style="stop-color:#FBC985"/>
		<stop  offset="0.63" style="stop-color:#EABB7B"/>
		<stop  offset="0.86" style="stop-color:#BC9561"/>
		<stop  offset="1" style="stop-color:#9F7D50"/>
	</linearGradient>
	<path class="st1" d="M108.2,109.9c-0.1-0.1-0.2-0.2-0.4-0.3c-0.1-0.1-0.2-0.1-0.2,0l-0.1,0.2c-0.1,0.1-0.1,0.3-0.2,0.5l-0.3,0.7
		c-0.1,0.2-0.2,0.5-0.4,0.7s-0.2,0.4-0.3,0.6l-0.2,0.3c-0.2,0.2-0.3,0.4-0.5,0.6c-0.2,0.2-0.5,0.4-0.7,0.6c-0.2,0.2-0.5,0.3-0.7,0.4
		c-0.2,0.1-0.4,0-0.5-0.1c-0.1-0.2,0-0.5,0.1-0.7c0.1-0.4,0.3-0.9,0.4-1.3c0.2-0.5,0.4-1,0.7-1.6s0.5-1.1,0.8-1.6c0,0,0-0.1-0.1-0.2
		c-0.1-0.1-0.2-0.2-0.3-0.3c-0.1-0.1-0.2-0.2-0.3-0.2c-0.1-0.1-0.2-0.1-0.2,0c-0.2,0.2-0.3,0.4-0.4,0.6c-0.1,0.3-0.3,0.6-0.4,0.9
		s-0.3,0.7-0.4,1s-0.2,0.6-0.3,0.9l-0.3,0.6c-0.2,0.4-0.4,0.7-0.6,1.1c-0.2,0.3-0.4,0.6-0.6,0.8c-0.2,0.2-0.4,0.3-0.6,0.2
		c-0.1,0-0.3-0.1-0.3-0.3c0-0.2,0-0.4,0.1-0.6c0.1-0.3,0.2-0.6,0.3-0.9c0.1-0.3,0.3-0.7,0.4-1s0.4-0.7,0.5-1.1s0.4-0.7,0.5-1l0,0
		c0,0,0.1-0.1,0.1-0.1l0,0c0-0.2-0.1-0.3-0.2-0.4c-0.2-0.1-0.3-0.2-0.5-0.3c-0.2-0.1-0.4-0.1-0.6-0.2c-0.2,0-0.3,0-0.4,0
		c-0.1,0.1-0.2,0.3-0.4,0.4l-0.5,0.6c-0.2,0.2-0.3,0.5-0.5,0.8s-0.4,0.5-0.6,0.8l0.1-0.4l0.2-0.5c0.1-0.2,0.1-0.3,0.1-0.4
		c0-0.1,0.1-0.2,0.1-0.3c0-0.1-0.1-0.2-0.1-0.3c-0.1-0.1-0.2-0.2-0.3-0.4c-0.1-0.1-0.2-0.2-0.4-0.3c-0.1,0-0.2,0-0.3,0
		c-0.2,0.1-0.3,0.2-0.4,0.4c-0.2,0.2-0.4,0.4-0.6,0.6c-0.2,0.2-0.4,0.5-0.6,0.8l-0.5,0.7l0.2-0.5l0.3-0.6c0.1-0.2,0.1-0.3,0-0.5
		c-0.1-0.2-0.1-0.4-0.3-0.5c-0.1-0.1-0.2-0.2-0.4-0.3c-0.1-0.1-0.2,0-0.2,0.1c-0.2,0.6-0.5,1.1-0.7,1.7l-0.6,1.6v0.1v0.1
		c-0.2,0.3-0.4,0.6-0.6,0.8c-0.2,0.3-0.5,0.5-0.8,0.8c-0.3,0.2-0.6,0.4-0.9,0.6c-0.3,0.2-0.7,0.3-1,0.4c-0.3,0.1-0.7,0.1-1-0.1
		c-0.2-0.1-0.4-0.2-0.5-0.4c-0.1-0.2-0.1-0.4-0.1-0.6c0-0.2,0.1-0.5,0.1-0.7c0.1-0.2,0.1-0.3,0.2-0.5c0,0,0.1-0.1,0.1-0.1
		c0,0.1,0.1,0.1,0.1,0.2c0.1,0.1,0.1,0.1,0.2,0.2l0.2,0.2c0,0,0.1,0.1,0.2,0.1c0.1,0,0.1,0,0.2,0l0.5-0.2c0.2-0.1,0.4-0.2,0.6-0.3
		c0.2-0.1,0.5-0.3,0.7-0.5c0.2-0.2,0.5-0.4,0.6-0.7c0.2-0.3,0.4-0.6,0.5-0.9c0.1-0.2,0.1-0.4,0-0.5c-0.1-0.2-0.2-0.4-0.3-0.6
		c-0.1-0.2-0.3-0.4-0.5-0.5c-0.2-0.1-0.4-0.2-0.6-0.2c-0.3,0-0.6,0.1-0.8,0.2c-0.3,0.1-0.6,0.3-0.8,0.5c-0.3,0.2-0.6,0.5-0.8,0.8
		c-0.2,0.3-0.5,0.6-0.7,0.9c-0.2,0.3-0.4,0.7-0.5,1l-0.1,0.4c-0.1,0.1-0.1,0.2-0.2,0.3c-0.2,0.3-0.5,0.7-0.7,1
		c-0.2,0.3-0.4,0.5-0.7,0.8c-0.1,0.2-0.4,0.2-0.6,0.2c-0.1,0-0.2-0.2-0.3-0.6c0-0.2,0-0.4,0.1-0.6c0.1-0.3,0.2-0.6,0.3-1
		s0.3-0.8,0.5-1.3s0.4-0.9,0.6-1.4s0.4-1,0.6-1.4l0.6-1.3c0.2-0.4,0.3-0.8,0.4-1.1s0.2-0.5,0.3-0.7c0-0.1,0-0.3-0.1-0.4
		c-0.1-0.1-0.2-0.2-0.3-0.3l-0.3-0.2c-0.1-0.1-0.2-0.1-0.2,0l-0.3,0.8c-0.1,0.3-0.2,0.6-0.4,0.9l-0.4,1l-0.4,0.9
		c-0.1,0.3-0.2,0.6-0.3,0.8l-0.2,0.5c-0.2-0.2-0.4-0.4-0.6-0.5c-0.2-0.2-0.5-0.2-0.8-0.2c-0.3,0-0.6,0.1-0.8,0.2
		c-0.3,0.2-0.6,0.4-0.9,0.6c-0.3,0.3-0.6,0.6-0.8,0.9c-0.3,0.3-0.5,0.6-0.7,1c-0.2,0.3-0.3,0.7-0.5,1.1c0,0,0,0,0,0.1
		c-0.2,0.3-0.3,0.6-0.5,0.9c-0.2,0.3-0.5,0.6-0.7,0.9c-0.2,0.2-0.4,0.3-0.6,0.3s-0.1-0.1,0-0.3c0-0.2,0-0.3,0.1-0.5
		c0-0.2,0.1-0.4,0.2-0.6c0.1-0.2,0.1-0.4,0.2-0.6l0.2-0.4l0.2-0.5l0.2-0.4c0-0.1,0.1-0.1,0.1-0.2c0-0.1,0-0.2,0-0.3
		c-0.1-0.1-0.1-0.2-0.2-0.3c-0.1-0.1-0.2-0.2-0.3-0.2l0,0c0.1-0.2,0.1-0.3,0.1-0.5c0-0.1-0.1-0.3-0.2-0.4c-0.1-0.2-0.2-0.3-0.4-0.4
		c-0.2-0.1-0.3-0.2-0.5-0.3c-0.2-0.1-0.4-0.2-0.6-0.1c-0.3,0-0.6,0.1-0.8,0.2c-0.3,0.2-0.6,0.4-0.8,0.6c-0.3,0.3-0.6,0.6-0.8,0.9
		c-0.2,0.3-0.5,0.7-0.7,1.1c-0.1,0.2-0.2,0.4-0.3,0.6l-0.1,0.2c-0.3,0.4-0.5,0.7-0.8,1c-0.3,0.3-0.6,0.6-1,0.9
		c-0.3,0.2-0.7,0.4-1.1,0.6c-0.2,0.1-0.4,0.1-0.7,0.1c-0.2,0-0.3,0-0.5-0.1c-0.1-0.1-0.2-0.3-0.2-0.5c0-0.3,0-0.7,0.1-1
		c0.1-0.4,0.3-0.9,0.5-1.3c0.2-0.4,0.5-0.8,0.8-1.2c0.2-0.3,0.5-0.6,0.8-0.9c0.2-0.2,0.5-0.3,0.8-0.3c0.1,0,0.3,0.1,0.4,0.1
		c0,0.1,0,0.1,0,0.2c0,0.1-0.1,0.2-0.2,0.2c-0.1,0.1-0.3,0.2-0.4,0.2l-0.4,0.1c-0.1,0-0.2,0.1-0.3,0.1c0,0.1,0,0.2,0,0.3
		c0.1,0.2,0.2,0.4,0.2,0.5c0.1,0,0.2,0,0.3,0c0.2,0,0.4-0.1,0.5-0.2c0.2-0.1,0.3-0.2,0.5-0.4c0.1-0.1,0.2-0.3,0.2-0.5
		c0-0.2,0-0.4-0.1-0.6c-0.1-0.2-0.2-0.4-0.3-0.6c-0.1-0.2-0.3-0.3-0.5-0.4c-0.2-0.1-0.4-0.2-0.6-0.2c-0.2,0-0.5,0.1-0.7,0.2
		c-0.3,0.2-0.6,0.4-0.8,0.6c-0.3,0.3-0.5,0.6-0.8,0.9c-0.3,0.3-0.5,0.7-0.7,1.1c-0.2,0.3-0.3,0.7-0.5,1c-0.2,0.3-0.4,0.6-0.6,0.9
		s-0.5,0.6-0.8,0.9c-0.2,0.3-0.5,0.5-0.8,0.8c-0.2,0.2-0.4,0.3-0.7,0.5c-0.2,0.1-0.4,0.1-0.5,0c-0.1-0.1-0.2-0.2-0.1-0.4
		c0-0.2,0-0.4,0.1-0.7c0.1-0.3,0.2-0.6,0.3-0.9c0.1-0.3,0.3-0.7,0.5-1l1.4-0.1c0.2-0.3,0.3-0.6,0.4-0.7c0.1-0.1,0.1-0.2,0.1-0.4
		c0-0.1,0-0.1,0-0.1h-0.1h-0.6h-0.6c0.3-0.6,0.6-1.2,1-1.8s0.7-1.1,1-1.6s0.6-0.9,0.8-1.3l0.4-0.6c0-0.1,0-0.2,0-0.4
		c-0.1-0.2-0.2-0.3-0.2-0.5c-0.1-0.1-0.2-0.3-0.3-0.4c-0.1-0.1-0.2-0.1-0.3-0.1c-0.1,0-0.2,0.1-0.3,0.2l-0.3,0.2l-0.4,0.3
		c-0.2,0.1-0.3,0.2-0.6,0.4c-0.8,0.5-1.6,1-2.5,1.3c-0.5,0.2-1,0.3-1.6,0.3h-0.5L64,107c-0.2,0-0.3-0.1-0.5-0.2
		c-0.1-0.1-0.2-0.2-0.2-0.3c0-0.2,0-0.4,0.1-0.5c0.2-0.3,0.4-0.5,0.7-0.8l0.1-0.1l0.1-0.1l0,0c0-0.1,0-0.1-0.1-0.2
		c-0.1-0.1-0.2-0.2-0.3-0.3c-0.1-0.1-0.3-0.1-0.4-0.2c-0.1,0-0.2,0-0.3,0l-0.2,0.1c-0.1,0.1-0.1,0.1-0.2,0.2
		c-0.1,0.2-0.2,0.4-0.2,0.6c0,0.3,0,0.5,0,0.8c0.1,0.3,0.1,0.5,0.2,0.8c0.1,0.3,0.3,0.5,0.5,0.7c0.2,0.2,0.4,0.4,0.7,0.5
		c0.3,0.1,0.7,0.2,1,0.2h0.3l0.3-0.1c-0.6,0.5-1.2,1-1.8,1.6s-1.2,1-1.7,1.5l-1,0.1c-0.2,0-0.4,0-0.6,0.1c-0.6,0.2-1.1,0.4-1.5,0.8
		c-0.3,0.3-0.5,0.6-0.7,1c-0.1,0.3-0.2,0.7-0.1,1c0,0.3,0.1,0.6,0.3,0.9c0.1,0.2,0.3,0.4,0.5,0.5c0.2,0.1,0.4,0.1,0.5,0
		c0.2-0.2,0.4-0.4,0.7-0.6s0.6-0.5,0.8-0.8s0.6-0.6,0.8-0.9s0.5-0.6,0.8-0.8H63l1.6-0.1c0.5,0,1,0,1.5,0c-0.2,0.4-0.3,0.8-0.4,1.2
		c-0.1,0.3-0.1,0.7,0,1c0.1,0.3,0.2,0.6,0.5,0.8c0.3,0.2,0.7,0.4,1.1,0.4c0.3,0,0.6,0,0.9-0.1c0.3-0.1,0.6-0.3,0.9-0.5
		c0.3-0.2,0.6-0.5,0.8-0.8l0.4-0.5c0.1,0.2,0.3,0.4,0.4,0.6c0.2,0.2,0.4,0.4,0.6,0.5c0.2,0.1,0.4,0.2,0.7,0.3c0.5,0,1-0.1,1.5-0.2
		c0.5-0.2,1-0.5,1.4-0.8c0.2-0.1,0.4-0.3,0.5-0.5c0,0,0,0.1,0,0.1c0.1,0.2,0.2,0.4,0.3,0.6c0.1,0.2,0.3,0.4,0.4,0.5
		c0.2,0.1,0.4,0.2,0.6,0.3c0.2,0,0.3,0,0.5,0c0.2-0.1,0.3-0.2,0.5-0.3c0.2-0.1,0.3-0.3,0.5-0.4c0.2-0.2,0.3-0.3,0.5-0.5v0.1
		c0,0.1,0.1,0.3,0.2,0.4c0.1,0.1,0.2,0.3,0.4,0.4c0.1,0.1,0.3,0.2,0.5,0.3c0.1,0.1,0.3,0.1,0.4,0.1c0.2,0,0.5-0.1,0.7-0.2
		c0.2-0.2,0.5-0.4,0.7-0.6c0.1-0.1,0.2-0.2,0.3-0.3c0.1,0.1,0.1,0.3,0.2,0.4c0.1,0.2,0.3,0.4,0.4,0.5c0.1,0.1,0.3,0.2,0.5,0.3
		c0.2,0,0.3,0,0.5-0.1c0.2-0.1,0.4-0.2,0.6-0.3c0.2-0.1,0.4-0.3,0.6-0.5l0.6-0.5c0,0.2,0.1,0.4,0.3,0.6c0.1,0.2,0.3,0.3,0.5,0.4
		c0.2,0.1,0.4,0.2,0.6,0.3c0.2,0.1,0.3,0.1,0.5,0.1c0.2,0,0.5-0.1,0.7-0.2c0.2-0.2,0.5-0.3,0.7-0.5c0.2-0.2,0.4-0.4,0.5-0.6
		c0.1,0.2,0.3,0.4,0.4,0.6c0.2,0.2,0.4,0.4,0.7,0.5c0.2,0.1,0.4,0.2,0.7,0.3c0.4,0.1,0.8,0.1,1.2,0c0.4-0.1,0.8-0.2,1.1-0.4
		c0.3-0.1,0.5-0.3,0.8-0.5l0,0c0.1,0.2,0.1,0.3,0.2,0.5c0.1,0.1,0.2,0.2,0.3,0.3c0.1,0.1,0.2,0.1,0.3,0c0-0.1,0.1-0.2,0.1-0.3
		c0.1-0.2,0.1-0.4,0.2-0.6s0.2-0.5,0.3-0.7c0.1-0.2,0.2-0.3,0.3-0.5c0.4-0.4,0.7-0.8,0.9-1.1l0.7-0.8c0.3-0.4,0.7-0.8,1.1-1.1
		c0.1-0.1,0.1,0.2-0.1,0.8c0,0.1-0.1,0.3-0.2,0.5s-0.2,0.4-0.3,0.6s-0.2,0.4-0.3,0.6s-0.2,0.4-0.2,0.6c0,0.1,0,0.2,0.1,0.3
		c0.1,0.1,0.2,0.2,0.2,0.3c0.1,0.1,0.2,0.2,0.3,0.2c0.1,0,0.2,0.1,0.2,0.1c0.1-0.1,0.2-0.2,0.2-0.3l0.5-0.8l0.6-1
		c0.2-0.4,0.4-0.7,0.6-1c0.2-0.2,0.3-0.5,0.5-0.7c0.1-0.1,0.2-0.2,0.2-0.1c-0.3,0.7-0.6,1.3-0.8,1.8c-0.2,0.4-0.3,0.8-0.4,1.3
		c0,0.3,0,0.5,0.1,0.7c0.1,0.2,0.3,0.4,0.5,0.6c0.2,0.2,0.4,0.3,0.6,0.4c0.2,0.1,0.4,0.1,0.6,0.1c0.2,0,0.5-0.1,0.7-0.2
		c0.2-0.2,0.5-0.4,0.6-0.6c0.1-0.1,0.2-0.2,0.2-0.3l0,0c0.1,0.2,0.3,0.4,0.4,0.5c0.2,0.1,0.3,0.3,0.5,0.4c0.2,0.1,0.4,0.1,0.5,0.1
		c0.1,0,0.3-0.1,0.4-0.1c0.2-0.1,0.3-0.2,0.4-0.3c0.1-0.1,0.2-0.2,0.3-0.3l0,0c-0.1,0.3-0.2,0.6-0.4,0.9s-0.3,0.7-0.4,1.1
		c-0.1,0.3-0.2,0.6-0.3,0.9c-0.1,0.3-0.1,0.5-0.2,0.7c0,0.3,0,0.5,0.1,0.8c0.1,0.2,0.2,0.4,0.4,0.6c0.2,0.1,0.4,0.3,0.6,0.3
		c0.2,0.1,0.4,0.1,0.7,0.1c0.3,0,0.7-0.2,0.9-0.4c0.3-0.2,0.5-0.5,0.7-0.8c0.2-0.4,0.3-0.7,0.2-1.1c0-0.5-0.2-0.9-0.5-1.3
		c-0.1-0.1-0.2-0.1-0.3,0c-0.1,0.1-0.3,0.2-0.4,0.3c-0.1,0.1-0.2,0.3-0.3,0.4c-0.1,0.1-0.1,0.2,0,0.3c0.1,0.1,0.2,0.1,0.2,0.2
		c0.1,0.1,0.1,0.2,0.1,0.3c0,0.1,0,0.3,0,0.4c0,0.2-0.1,0.4-0.2,0.6c-0.1,0.2-0.2,0.4-0.4,0.6c-0.1,0.1-0.3,0.1-0.4,0
		c-0.1-0.1-0.2-0.2-0.3-0.3c-0.1-0.2-0.1-0.4-0.1-0.6c0-0.3,0.1-0.7,0.2-1c0.1-0.4,0.2-0.8,0.4-1.2c0.2-0.4,0.4-0.9,0.6-1.4l0.6-1.4
		l0.6-1.4c0.2-0.4,0.4-0.9,0.5-1.2c0.1-0.2,0.1-0.4,0-0.5C108.5,110.2,108.3,110.1,108.2,109.9z M60.2,113.3
		c-0.2,0.3-0.5,0.5-0.7,0.7s-0.4,0.4-0.6,0.6s-0.3,0.2-0.2,0.1c0.1-0.2,0.1-0.4,0.3-0.6c0.1-0.2,0.3-0.5,0.5-0.6
		c0.2-0.2,0.4-0.4,0.7-0.5c0.2-0.1,0.5-0.2,0.7-0.2L60.2,113.3z M65.9,111.3h-1.3h-0.8l1.2-1.1c0.4-0.4,0.8-0.8,1.3-1.2
		s1-0.8,1.5-1.2c0.5-0.4,1.1-0.8,1.7-1.1c-0.2,0.3-0.5,0.6-0.7,1s-0.5,0.8-0.8,1.1s-0.5,0.8-0.8,1.2s-0.5,0.8-0.7,1.2L65.9,111.3z
		 M79.2,111.8c-0.2,0.3-0.4,0.6-0.7,0.9s-0.5,0.6-0.7,0.8c-0.2,0.2-0.4,0.4-0.7,0.6c-0.2,0.1-0.4,0.2-0.7,0.2c-0.1,0-0.2,0-0.2-0.1
		c-0.1-0.1-0.1-0.2-0.1-0.3c0-0.4,0.1-0.8,0.3-1.2c0.2-0.5,0.4-0.9,0.7-1.4c0.3-0.4,0.6-0.8,0.9-1.2c0.3-0.3,0.6-0.6,1-0.8
		c0.2-0.1,0.4-0.1,0.6-0.1c0.1,0,0.2,0.1,0.3,0.2c0,0.1,0,0.2-0.1,0.3c-0.2,0.2-0.5,0.3-0.7,0.3c0,0,0,0.1,0,0.1
		c0,0.1,0.1,0.2,0.1,0.3c0.1,0.1,0.1,0.2,0.2,0.2c0.1,0.1,0.1,0.1,0.1,0.1c0.1,0,0.2-0.1,0.3-0.1l-0.1,0.1L79.2,111.8z M85.9,111.3
		c0,0.1-0.1,0.2-0.1,0.3c-0.2,0.3-0.4,0.6-0.7,1c-0.2,0.3-0.5,0.6-0.8,0.9c-0.2,0.2-0.5,0.5-0.8,0.6c-0.2,0.2-0.5,0.2-0.7,0.2
		c-0.1,0-0.2,0-0.2-0.1c-0.1-0.1-0.1-0.2-0.1-0.2c0.1-0.4,0.2-0.8,0.3-1.2c0.2-0.5,0.5-0.9,0.7-1.4c0.3-0.4,0.6-0.8,1-1.2
		c0.3-0.3,0.6-0.6,1-0.7c0.2-0.1,0.4-0.1,0.6-0.1c0.2,0,0.3,0.1,0.3,0.2s0,0.2-0.1,0.3c-0.2,0.2-0.5,0.3-0.7,0.3c0,0,0,0.1,0,0.1
		c0,0.1,0.1,0.2,0.1,0.3c0.1,0.1,0.1,0.2,0.2,0.3C85.9,111,86,111,86,111l0,0L85.9,111.3z M90.6,111.3c0.2-0.2,0.4-0.4,0.6-0.6
		c0.2-0.2,0.4-0.4,0.7-0.5c0.2-0.1,0.4-0.3,0.7-0.4l0.3-0.1c0.1,0,0.1-0.1,0.2-0.1c0,0,0.1,0.1,0,0.1c0,0.1-0.1,0.3-0.2,0.4
		c-0.1,0.2-0.3,0.4-0.4,0.6c-0.2,0.2-0.4,0.5-0.7,0.6c-0.3,0.2-0.5,0.4-0.8,0.5c-0.2,0.1-0.5,0.2-0.8,0.2c0-0.1,0-0.1,0.1-0.2
		s0,0,0-0.1C90.3,111.6,90.4,111.4,90.6,111.3L90.6,111.3z M109.2,96.9l-0.2-0.2c-0.1-0.1-0.2-0.1-0.2-0.2c-0.3-0.1-0.5-0.1-0.8-0.1
		c-0.3,0-0.6,0.1-0.9,0.2c-0.4,0.1-0.7,0.3-1,0.5c-0.3,0.2-0.6,0.4-0.8,0.7c-0.1,0.1-0.2,0.3-0.3,0.4c-0.1,0.1-0.1,0.1-0.1,0.2
		c-0.2,0.4-0.5,0.7-0.8,1c-0.3,0.4-0.6,0.7-1,1c-0.4,0.3-0.8,0.6-1.2,0.8c-0.4,0.2-0.8,0.4-1.2,0.5c-0.4,0.1-0.8,0.1-1.2-0.1
		c-0.3-0.1-0.5-0.3-0.6-0.5c-0.1-0.3-0.1-0.5-0.1-0.8c0-0.3,0.1-0.6,0.2-0.9c0.1-0.2,0.1-0.4,0.2-0.6c0-0.1,0.1-0.1,0.1-0.2l0.1,0.2
		c0.1,0.1,0.1,0.2,0.2,0.2c0.1,0.1,0.2,0.1,0.3,0.2c0.1,0.1,0.1,0.1,0.2,0.1c0.1,0,0.2,0,0.3-0.1c0.2-0.1,0.4-0.1,0.6-0.2
		c0.2-0.1,0.5-0.2,0.8-0.4c0.3-0.2,0.6-0.4,0.9-0.6c0.3-0.3,0.6-0.6,0.8-0.9c0.3-0.4,0.5-0.7,0.6-1.2c0.1-0.2,0.1-0.4,0-0.6
		c-0.1-0.3-0.2-0.5-0.4-0.8c-0.2-0.2-0.4-0.5-0.6-0.6c-0.2-0.2-0.5-0.3-0.7-0.3c-0.3,0-0.7,0.1-1,0.3c-0.4,0.2-0.8,0.4-1.1,0.7
		c-0.4,0.3-0.7,0.6-1,1c-0.3,0.4-0.6,0.8-0.9,1.2c-0.3,0.4-0.5,0.9-0.6,1.3c-0.1,0.2-0.1,0.3-0.1,0.5l-0.3,0.4
		c-0.3,0.4-0.6,0.9-0.9,1.3c-0.3,0.4-0.6,0.7-0.9,1c-0.2,0.2-0.5,0.3-0.7,0.3c-0.2,0-0.3-0.3-0.4-0.7c0-0.3,0.1-0.5,0.2-0.8
		c0.1-0.4,0.2-0.8,0.4-1.3s0.4-1,0.6-1.6c0.2-0.6,0.5-1.2,0.7-1.8s0.5-1.2,0.8-1.8s0.5-1.2,0.7-1.7l0.6-1.4c0.2-0.4,0.3-0.7,0.3-0.9
		c0-0.2,0-0.3-0.1-0.5c-0.1-0.2-0.2-0.3-0.4-0.4c-0.1-0.1-0.3-0.2-0.4-0.3c-0.1-0.1-0.2-0.1-0.2-0.1c-0.1,0.3-0.3,0.6-0.4,1
		l-0.5,1.2c-0.2,0.4-0.3,0.8-0.5,1.2l-0.5,1.2c-0.1,0.4-0.3,0.7-0.4,1s-0.2,0.5-0.3,0.7c-0.2-0.3-0.5-0.5-0.7-0.7
		c-0.3-0.2-0.6-0.3-1-0.3c-0.4,0-0.7,0.1-1.1,0.3c-0.4,0.2-0.8,0.5-1.1,0.8c-0.4,0.4-0.7,0.7-1,1.2l-0.3,0.4c0,0-0.1,0-0.1,0
		s0,0.1,0,0.1c-0.2,0.2-0.3,0.5-0.4,0.7c-0.2,0.4-0.4,0.9-0.6,1.4l0,0l-0.2,0.4c-0.3,0.4-0.5,0.7-0.8,1.1c-0.2,0.3-0.5,0.5-0.8,0.6
		c-0.1,0-0.3,0-0.4,0c0,0,0-0.1,0-0.1c0.3-0.5,0.6-0.9,0.8-1.4c0.2-0.5,0.4-0.9,0.5-1.4c0.1-0.4,0.2-0.8,0.2-1.2c0-0.3,0-0.5,0-0.8
		c-0.1-0.3-0.3-0.6-0.5-0.8c-0.3-0.3-0.6-0.5-1-0.6c-0.4-0.2-0.8-0.2-1.2-0.2c-0.5,0-0.9,0.1-1.3,0.3c-0.4,0.2-0.8,0.5-1.1,0.9
		c-0.3,0.4-0.6,0.8-0.9,1.2c-0.3,0.4-0.5,0.9-0.7,1.4c-0.1,0.2-0.2,0.4-0.2,0.7s-0.3,0.5-0.5,0.8s-0.5,0.8-0.8,1.2
		c-0.2,0.4-0.5,0.7-0.8,1c-0.2,0.2-0.5,0.4-0.8,0.6c-0.2,0.1-0.4,0.1-0.6,0c-0.2-0.2-0.3-0.6-0.2-1.2c0.2-0.8,0.5-1.6,0.8-2.4
		l0.4-1.1c0.2-0.4,0.4-0.9,0.6-1.4s0.4-1,0.7-1.6s0.5-1.1,0.7-1.6s0.4-1,0.6-1.5s0.4-0.8,0.5-1.2c0.1-0.2,0.1-0.5,0-0.7
		c-0.1-0.2-0.2-0.5-0.4-0.7c-0.1-0.2-0.3-0.3-0.5-0.5c-0.2-0.1-0.3-0.1-0.3-0.1c-0.2,0.2-0.4,0.4-0.6,0.7c-0.3,0.3-0.6,0.8-0.9,1.3
		s-0.8,1.2-1.2,1.8l-1.4,2.2l-1.5,2.4l-1.5,2.4c0.2-1,0.3-1.9,0.4-2.9c0.1-1,0.2-1.9,0.2-2.8c0-0.9,0.1-1.7,0.1-2.3V90
		c0-0.2-0.1-0.4-0.3-0.6c-0.2-0.2-0.4-0.4-0.6-0.5c-0.2-0.1-0.4-0.2-0.7-0.2c-0.2,0-0.4,0.1-0.5,0.3l-0.3,0.9l-0.6,1.4
		c-0.2,0.6-0.5,1.2-0.8,1.9c-0.3,0.7-0.5,1.4-0.8,2.1l-0.8,2.1c-0.3,0.7-0.5,1.4-0.8,2s-0.5,1.2-0.7,1.6s-0.3,0.9-0.4,1.1
		c-0.1,0.2,0,0.3,0.1,0.5c0.1,0.2,0.3,0.3,0.4,0.4c0.2,0.1,0.3,0.2,0.5,0.3c0.2,0.1,0.2,0.1,0.3,0s0.2-0.5,0.3-0.9s0.4-1,0.7-1.6
		l0.9-2.1l1-2.3c0.3-0.8,0.6-1.5,0.9-2.2s0.5-1.3,0.7-1.8c0,0.5,0,1-0.1,1.5c0,0.6-0.1,1.1-0.1,1.7s-0.1,1.1-0.1,1.7s-0.1,1-0.1,1.5
		s-0.1,0.9-0.1,1.3s-0.1,0.7-0.1,0.9c0,0.2,0.1,0.3,0.2,0.4c0.2,0.1,0.4,0.3,0.6,0.4c0.2,0.1,0.4,0.2,0.6,0.2
		c0.2,0.1,0.3,0.1,0.3,0.1s0.3-0.4,0.6-0.8l0.9-1.4c0.3-0.5,0.7-1.1,1.1-1.8s0.8-1.3,1.2-1.9s0.7-1.2,1-1.7s0.6-1,0.8-1.3l-0.6,1.2
		c-0.2,0.5-0.4,1-0.7,1.6l-0.7,1.7c-0.2,0.6-0.4,1.1-0.6,1.6c-0.2,0.5-0.4,1-0.5,1.6c-0.1,0.4-0.2,0.8-0.1,1.2
		c0.1,0.4,0.2,0.7,0.5,0.9c0.4,0.3,0.9,0.4,1.3,0.5c0.4,0.1,0.8,0,1.2-0.2c0.4-0.2,0.8-0.4,1.1-0.7c0.3-0.3,0.6-0.6,0.8-0.9
		c0,0.1,0,0.1,0.1,0.1c0.1,0.3,0.4,0.5,0.6,0.7c0.3,0.2,0.6,0.4,1,0.5c0.4,0.1,0.7,0.2,1.1,0.1c0.4,0,0.7-0.2,1-0.4
		c0.2-0.1,0.3-0.2,0.5-0.4l0.5-0.4c0.2,0.1,0.5,0.1,0.7,0.2c0.1,0,0.1,0,0.2,0h0.1c0.5,0,0.9-0.2,1.3-0.4c0.2-0.2,0.5-0.4,0.7-0.6
		c0.1,0.2,0.2,0.4,0.3,0.6c0.1,0.2,0.3,0.5,0.6,0.7c0.2,0.2,0.4,0.3,0.7,0.4c0.2,0,0.4,0,0.6-0.1c0.3-0.1,0.5-0.3,0.7-0.4
		c0.3-0.2,0.5-0.4,0.8-0.6l0.7-0.7c0.1,0.3,0.2,0.5,0.4,0.7c0.2,0.2,0.4,0.4,0.6,0.6c0.2,0.2,0.5,0.3,0.7,0.4
		c0.2,0.1,0.4,0.1,0.7,0.1c0.3,0,0.6-0.1,0.8-0.3c0.3-0.2,0.6-0.4,0.9-0.7c0.2-0.2,0.5-0.5,0.7-0.8c0.2,0.3,0.3,0.5,0.6,0.7
		c0.3,0.3,0.6,0.5,0.9,0.7c0.3,0.2,0.6,0.3,0.9,0.3c0.5,0.1,1,0.1,1.5,0c0.5-0.1,1-0.3,1.4-0.5c0.5-0.2,0.9-0.5,1.3-0.9
		c0.3-0.2,0.6-0.5,0.8-0.7c0.4-0.4,0.7-0.9,0.9-1.5c0.1-0.5,0.3-1,0.6-1.4c0.1-0.2,0.4-0.4,0.7-0.3c0.5,0.1,1,0.4,1.3,0.8
		c0,0,0.1,0.1,0.1,0.1c0,0,0.1,0.1,0.1,0.1c0.1,0,0.1,0,0.2-0.1c0.1-0.1,0.2-0.3,0.3-0.5c0.1-0.2,0.2-0.4,0.2-0.6
		C109.3,97.1,109.2,96.9,109.2,96.9L109.2,96.9z M99.2,98.1C99.2,98.1,99.2,98,99.2,98.1c0.1-0.3,0.2-0.5,0.4-0.7
		c0.2-0.3,0.5-0.6,0.8-0.8c0.3-0.2,0.6-0.5,0.9-0.7c0.3-0.2,0.6-0.4,0.9-0.5l0.5-0.2c0.1-0.1,0.2-0.1,0.3-0.1c0.1,0,0.1,0.1,0.1,0.2
		c0,0.2-0.1,0.3-0.2,0.5c-0.2,0.3-0.3,0.5-0.6,0.7c-0.3,0.3-0.6,0.6-0.9,0.8c-0.3,0.3-0.7,0.5-1.1,0.7c-0.3,0.2-0.7,0.3-1,0.3
		C99.2,98.2,99.2,98.2,99.2,98.1z M85.4,98.7c-0.2,0.4-0.4,0.8-0.6,1.2c-0.1-0.3-0.1-0.6,0-0.9c0.1-0.4,0.2-0.7,0.4-1
		c0.1-0.1,0.2-0.2,0.3-0.3c0.1-0.1,0.2-0.2,0.3-0.2h0.1C85.8,97.9,85.7,98.3,85.4,98.7L85.4,98.7z M85.9,97.2L85.9,97.2l-0.5-0.1
		c-0.2,0-0.4,0-0.6,0c-0.2,0-0.4,0.1-0.6,0.2c-0.2,0.2-0.4,0.4-0.5,0.7c-0.2,0.5-0.3,1-0.2,1.5c0.1,0.5,0.3,1,0.6,1.4
		c-0.2,0.2-0.4,0.5-0.6,0.7c-0.2,0.2-0.4,0.3-0.6,0.3c-0.2,0-0.4,0-0.6-0.1c-0.2-0.1-0.4-0.3-0.5-0.6c-0.1-0.3-0.1-0.6-0.1-0.8
		c0.1-0.4,0.2-0.7,0.3-1.1c0.2-0.4,0.4-0.8,0.6-1.2c0.2-0.4,0.5-0.8,0.8-1.2c0.3-0.3,0.5-0.7,0.8-1c0.2-0.3,0.5-0.5,0.8-0.6
		c0.2-0.1,0.4-0.2,0.7-0.2c0.2,0,0.3,0.2,0.3,0.3c0.1,0.2,0.1,0.5,0.1,0.7C86.1,96.6,86.1,96.9,85.9,97.2L85.9,97.2z M93.6,97.4
		c-0.1,0.1-0.1,0.3-0.2,0.4c-0.2,0.4-0.5,0.8-0.9,1.2c-0.3,0.4-0.6,0.8-1,1.1c-0.3,0.3-0.6,0.6-1,0.8c-0.3,0.2-0.6,0.3-0.9,0.3
		c-0.1,0-0.2,0-0.3-0.1c-0.1-0.1-0.1-0.2-0.1-0.3c0.1-0.5,0.2-1.1,0.4-1.6c0.3-0.6,0.6-1.2,0.9-1.7c0.4-0.5,0.8-1.1,1.2-1.5
		c0.4-0.4,0.8-0.8,1.3-1c0.2-0.1,0.5-0.2,0.8-0.2c0.2,0,0.3,0.1,0.4,0.2s0,0.3-0.2,0.4c-0.3,0.2-0.6,0.4-0.9,0.4c0,0,0,0.1,0,0.2
		s0.1,0.2,0.2,0.4c0.1,0.1,0.1,0.2,0.2,0.3c0.1,0.1,0.1,0.1,0.2,0.1l0,0L93.6,97.4z M58.9,102.2c0.2-0.2,0.4-0.4,0.6-0.6l0.7-0.7
		v0.1c0,0.2,0.1,0.3,0.2,0.4c0.1,0.2,0.3,0.4,0.5,0.5c0.2,0.2,0.4,0.3,0.6,0.4c0.2,0.1,0.4,0.2,0.6,0.2c0.3,0,0.6-0.1,0.9-0.3
		c0.3-0.2,0.6-0.5,0.9-0.8c0.3-0.3,0.6-0.6,0.8-1c0.2-0.3,0.5-0.7,0.7-1.1c0.2-0.3,0.3-0.6,0.4-0.9c0.1-0.2,0.1-0.4,0.2-0.6
		c0-0.1-0.1-0.2-0.1-0.4c-0.1-0.1-0.2-0.3-0.3-0.4c-0.1-0.1-0.2-0.2-0.3-0.3c-0.1-0.1-0.2-0.1-0.2,0c-0.2,0.5-0.4,1-0.7,1.5
		c-0.3,0.5-0.6,1.1-0.9,1.6c-0.3,0.4-0.6,0.8-0.9,1.2c-0.3,0.3-0.6,0.4-0.8,0.4s-0.1-0.1-0.1-0.3c0-0.2,0.1-0.5,0.1-0.7
		c0.1-0.3,0.1-0.5,0.2-0.8c0.1-0.3,0.2-0.5,0.3-0.8l0.2-0.5l0.3-0.6l0.3-0.5c0-0.1,0.1-0.2,0.1-0.2c0-0.1,0-0.2-0.1-0.3
		c-0.1-0.1-0.2-0.3-0.3-0.4c-0.1-0.1-0.2-0.2-0.4-0.3l0,0c0.1-0.2,0.1-0.4,0.1-0.6c0-0.2-0.1-0.3-0.2-0.5c-0.1-0.2-0.3-0.4-0.5-0.5
		c-0.2-0.2-0.4-0.3-0.7-0.4c-0.2-0.1-0.5-0.2-0.8-0.2c-0.4,0-0.7,0.1-1,0.3c-0.4,0.2-0.7,0.5-1.1,0.8c-0.4,0.4-0.7,0.7-1,1.2
		c-0.3,0.4-0.6,0.9-0.8,1.4c-0.2,0.4-0.4,0.9-0.6,1.4c-0.1,0.4-0.2,0.9-0.2,1.3c0,0.2,0.1,0.5,0.2,0.7c0.1,0.3,0.2,0.6,0.4,0.8
		c0.2,0.2,0.4,0.5,0.6,0.7c0.2,0.2,0.5,0.3,0.7,0.4c0.2,0,0.4,0,0.6-0.1C58.5,102.5,58.7,102.4,58.9,102.2z M57.3,101.3
		c-0.1,0-0.2,0-0.3-0.1c-0.1-0.1-0.1-0.2-0.1-0.3c0-0.5,0.2-1.1,0.4-1.6c0.2-0.6,0.5-1.2,0.9-1.7c0.3-0.6,0.7-1.1,1.2-1.5
		c0.4-0.4,0.8-0.8,1.3-1c0.2-0.1,0.5-0.2,0.8-0.1c0.2,0,0.3,0.1,0.4,0.2c0,0.1,0,0.3-0.2,0.4c-0.3,0.2-0.6,0.4-0.9,0.4
		c0,0,0,0.1,0,0.2c0,0.1,0.1,0.2,0.2,0.4c0.1,0.1,0.1,0.2,0.2,0.3c0.1,0.1,0.1,0.1,0.2,0.1l0.4-0.2l-0.1,0.1
		c-0.2,0.4-0.5,0.8-0.8,1.1s-0.6,0.8-0.9,1.2s-0.6,0.7-0.9,1.1c-0.3,0.3-0.6,0.5-0.9,0.8C57.9,101.2,57.6,101.3,57.3,101.3
		L57.3,101.3z M56.5,103.8c0,0.3,0,0.7,0,1c0,0.3-0.1,0.5-0.3,0.8c0,0.1-0.1,0.2-0.2,0.2l-0.2,0.2c-0.1,0.1-0.3,0.1-0.4,0
		c-0.2-0.1-0.4-0.2-0.5-0.3c-0.1-0.1-0.3-0.2-0.4-0.4c-0.1-0.1-0.1-0.2-0.1-0.3l0.2-0.1c0,0,0.1-0.1,0.1-0.1c0.4-0.3,0.8-0.7,1-1.2
		c0.1-0.3,0-0.6-0.2-0.8c-0.3-0.2-0.7-0.4-1.1-0.4c-0.5-0.1-1.1-0.1-1.7-0.1c-0.6,0-1.2,0-1.8,0.1c-1.1,0.1-2.1,0.3-3.1,0.7
		c-0.3,0.1-0.6,0.2-0.9,0.2c-0.1,0-0.2-0.1-0.3-0.2c-0.1-0.2-0.3-0.3-0.4-0.5c-0.1-0.2-0.2-0.4-0.2-0.6c0-0.2,0-0.3,0.1-0.3l2-0.6
		c0.1,0,0.2-0.1,0.3-0.5s0.4-0.7,0.6-1.3s0.6-1.1,0.9-1.8s0.7-1.4,1-2.1s0.7-1.4,1.1-2.2s0.7-1.4,1.1-2c0.3-0.5,0.6-1,1-1.5
		c0.2-0.3,0.5-0.6,0.8-0.8c0.4-0.3,0.9-0.4,1.3-0.5c0.4-0.1,0.8,0,1.2,0.1c0.4,0.1,0.7,0.4,0.8,0.8c0.2,0.4,0.3,0.8,0.4,1.2
		c0.1,0.5,0.1,1,0,1.5c-0.1,0.5-0.2,1-0.3,1.5c0,0.1-0.1,0.2-0.1,0.3c0,0.1-0.1,0.2-0.1,0.3c-0.1,0.1-0.2,0.2-0.3,0.3
		c-0.2,0.1-0.4,0.2-0.6,0.2c-0.2,0.1-0.3,0.1-0.5,0.1c-0.2,0-0.2,0-0.2-0.1l0,0c0-0.1,0-0.1,0-0.2c0-0.1,0-0.1,0.1-0.2
		c0.1-0.3,0.2-0.7,0.3-1.1s0.2-0.8,0.3-1.2s0.1-0.8,0.2-1.2c0-0.3,0-0.7,0-1c0-0.2-0.1-0.5-0.2-0.7c-0.1-0.2-0.3-0.3-0.5-0.3
		c-0.3,0-0.6,0.3-1,0.8s-0.8,1.3-1.3,2.3c-0.1,0.3-0.3,0.6-0.6,1.1s-0.5,1-0.7,1.5S52.3,96,52,96.6s-0.6,1.2-0.8,1.7l-0.7,1.5
		c-0.2,0.5-0.4,0.8-0.5,1.1l0.8-0.1c0.3,0,0.6-0.1,0.9-0.1s0.6,0,0.9,0c0.3,0,0.6,0,0.9,0.1c0.4,0.1,0.8,0.2,1.1,0.4
		c0.3,0.2,0.6,0.4,0.8,0.7c0.2,0.3,0.4,0.6,0.6,0.9C56.3,103.1,56.4,103.5,56.5,103.8L56.5,103.8z M54.1,58.9
		c0-13.1,10.7-23.7,23.8-23.7s23.7,10.7,23.7,23.8c0,7-3.1,13.7-8.5,18.2c9.1-8.4,9.7-22.6,1.3-31.7s-22.6-9.7-31.7-1.3
		s-9.7,22.6-1.3,31.7c0.4,0.5,0.9,0.9,1.3,1.3C57.2,72.6,54.1,65.9,54.1,58.9z M88.8,92.6L88.8,92.6c0.2-0.2,0.4-0.3,0.6-0.5
		c-3.9-10.6-6.4-21.7-7.5-33c0.9-1.7-0.2-2.8-0.3-3.2c0.8-0.5,1.6-0.9,2.5-1.3c0.4-0.3,0.9-0.6,1.4-0.8c0.8-0.4,0.5-0.9,0.3-1.2
		c-1.1-1-2.3-2-3.5-2.8c-1.1-0.7-2-1.6-2.6-2.7c-0.1-1.5-0.8-1.7-0.9-1.7c-0.1-0.2-0.2-0.4-0.3-0.7l0.1-0.2l-0.1-0.3l0.3-0.2
		l0.2-0.4H79c0.1,0,0.2-0.1,0.2-0.2c0-0.1-0.1-0.2-0.2-0.2c-0.1,0-0.2,0.1-0.2,0.2c0,0,0,0,0,0l0,0c-0.4,0.1-0.6-0.3-0.6-0.5l0,0
		c0.1,0,0.2-0.1,0.2-0.2c0,0,0,0,0,0c0-0.1-0.1-0.2-0.2-0.2c-0.1,0-0.2,0.1-0.2,0.2c0,0,0,0,0,0c0,0,0,0.1,0,0.1
		c-0.4,0.2-0.7-0.1-0.8-0.5c0.1,0,0.2-0.1,0.1-0.2c0,0,0,0,0,0c0-0.1-0.1-0.2-0.2-0.1c-0.1,0-0.2,0.1-0.1,0.2c0,0,0,0,0,0
		c0,0,0,0.1,0.1,0.1c-0.3,0.4-0.9,0-1.1-0.4c0.1,0,0.1-0.1,0.1-0.2c0-0.1-0.1-0.2-0.2-0.2c-0.1,0-0.2,0.1-0.2,0.2
		c0,0.1,0.1,0.2,0.2,0.2c-0.1,0.4-0.5,0.9-1,0.7c0,0,0-0.1,0-0.1c0-0.1-0.1-0.1-0.2-0.1c-0.1,0-0.2,0.1-0.2,0.2c0,0,0,0,0,0
		c0,0.1,0.1,0.2,0.2,0.2c0,0.4-0.2,0.8-0.6,0.7c0,0,0-0.1,0-0.1c0-0.1-0.1-0.1-0.2-0.1c-0.1,0-0.2,0.1-0.2,0.2
		c0,0.1,0.1,0.2,0.2,0.2c0,0,0,0,0,0l0,0c0.1,0.2,0,0.6-0.4,0.7l0,0c0-0.1-0.1-0.2-0.2-0.1c-0.1,0-0.2,0.1-0.1,0.2
		c0,0.1,0.1,0.2,0.2,0.1c0,0,0,0,0,0c0,0,0.1,0,0.1,0l0.3,0.3l0.3,0.1V45l0.1,0.1c0.1,0.1,0,0.4,0,0.5s0.1,0.4,0.1,0.6
		c0,0.2,0,0.5,0,0.7c0,0.2,0.1,0.5,0.1,0.7c0,0.1,0,0.3,0,0.4c0,0-0.1,0.1-0.1,0.1c-0.1,0-0.1,0-0.1,0.1s0,0.3,0,0.5
		c0,0.1,0,0.2,0,0.2c0,0,0,0.1,0,0.1c0,0,0,0.1,0,0.1c0.1,0.2,0.2,0.3,0.4,0.5l0.1,0.1c0.3,0.2,0.1,0.6,0.7,1.1
		c0.3,0.2,0.4,0.5,0.5,0.9c0,0.4,0,0.8,0,1.2c0,0.1,0,0.2-0.1,0.3c-0.2,0.2-0.5,0.1-0.7,0.1s-0.6-0.2-0.9-0.3
		c-1.2-0.4-1.7-0.3-2.7,1c-1.3,2.1-2.4,4.4-3.2,6.8c-0.4,1.1-0.1,1.5,0.7,1.8c0.4,0.2,1.6,0.6,2.8,1c-0.7,7.6-2.5,19.1-7.3,29.3
		l0.3,0.4l0.1,0.2c2.9-5.3,6.1-14.2,7.7-29.6c0.6,0.2,1.1,0.4,1.7,0.7c0.2,0.1,0.3,0.2,0.3,0.3v0.2c-0.1,0.2-0.2,0.3-0.3,0.5
		c-0.1,0.5-0.2,0.9-0.2,1.4c-0.9,1.9-0.6,4.3-0.1,6.7c-0.4,3.8-0.9,8-1.6,12c0.2,0,0.3,0,0.5,0.1c0.5-3,1-6.5,1.4-10.9l0.2,1
		c0.6,3.7,0.9,7.5,0.8,11.2c0.1,0.1,0.2,0.2,0.3,0.3c0.3,0.3,0.5,0.6,0.7,1c0.3-0.4,0.5-0.7,0.7-1c0.3-0.5,0.8-0.9,1.2-1.3
		c0.5-0.4,1.1-0.6,1.8-0.6c0.1-2.3,0.4-4.5,0.8-6.7c0.3,1.8,0.7,4.4,1.3,7.3l0,0c0.1,0.1,0.3,0.2,0.4,0.3c-0.5-2.9-1-6.1-1.3-9.7
		c0.3-1,0.5-2.1,0.7-3.1c0.1-1,0.2-1.9,0.2-2.9c0-0.8-0.1-1.6-0.2-2.4c-0.1-0.6-0.3-1.3-0.4-1.9c-0.1-0.5-0.3-0.9-0.5-1.3
		c-0.2-0.3-0.3-0.6-0.5-0.9c0-0.1,0-0.2,0-0.3c0,0,0-0.9,0-1.5c-0.1-0.7,0.1-1.5,0.6-2.1C83.1,75.4,86,85.5,88.8,92.6z M75.4,44.6
		l-0.3-0.2V44l0.3,0.2L75.4,44.6z M72.2,62.2c-1-0.4-1.9-0.8-2-0.8s0.3-1.1,0.3-1.1s0.2-0.3,1-2c0.3-0.6,0.6-1.1,0.9-1.6
		C72.4,58,72.4,59.8,72.2,62.2z M77.7,43.7l0.1,0.3l-0.2,0.3l-0.1-0.3L77.7,43.7z M76.1,44l0.2-0.6l0.4,0.5l-0.3,0.6L76.1,44z
		 M74.9,63.6c-0.6-0.4-1.2-0.7-1.9-1c0.2-2,0.4-4,0.5-6.2c0.1,1.3,0.7,2.5,1.5,3.4C75,60.7,74.9,62,74.9,63.6L74.9,63.6z M75.9,64.3
		c-0.1,0.1-0.1,0.1-0.2,0c0,0,0,0,0,0c-0.1-0.2-0.3-0.3-0.5-0.5c0.1-1.2,0.1-2.4,0.2-3.7c0.7,0.8,1.1,1.8,1.1,2.9
		C76.6,63.6,76.3,64.1,75.9,64.3L75.9,64.3z M78.7,54.1C78,53.6,78,51.8,78,51.8c-0.3,0.3-0.9,0.4-1.2,0c-0.1-0.1-0.1-0.1-0.2-0.2
		c1.8,0.4,2.1-1.8,2.1-2.4c0.4-0.1,0.3-0.5,0.3-0.8c0.2,0.2,1,1.1,1,1.1c0.9,1,2,2.1,3,3c0.7,0.5,0.4,0.7,0.4,0.7
		C82.9,53.8,79.4,54.5,78.7,54.1L78.7,54.1z"/>
</g>
</svg>
