<?xml version="1.0" encoding="utf-8"?>
<!-- Generator: Adobe Illustrator 25.0.1, SVG Export Plug-In . SVG Version: 6.00 Build 0)  -->
<svg version="1.1" id="Layer_1" xmlns="http://www.w3.org/2000/svg" xmlns:xlink="http://www.w3.org/1999/xlink" x="0px" y="0px"
	 viewBox="0 0 155 155" style="enable-background:new 0 0 155 155;" xml:space="preserve">
<style type="text/css">
	.st0{fill:#FFFFFF;}
	.st1{fill:url(#SVGID_1_);}
	.st2{fill:url(#SVGID_2_);}
	.st3{fill:url(#SVGID_3_);}
	.st4{fill:url(#SVGID_4_);}
	.st5{fill:url(#SVGID_5_);}
	.st6{fill:url(#SVGID_6_);}
	.st7{fill:url(#SVGID_7_);}
	.st8{fill:url(#SVGID_8_);}
	.st9{fill:url(#SVGID_9_);}
	.st10{fill:url(#SVGID_10_);}
	.st11{fill:url(#SVGID_11_);}
	.st12{fill:url(#SVGID_12_);}
	.st13{fill:url(#SVGID_13_);}
	.st14{fill:url(#SVGID_14_);}
	.st15{fill:url(#SVGID_15_);}
	.st16{fill:url(#SVGID_16_);}
	.st17{fill:url(#SVGID_17_);}
</style>
<g id="Layer_2_1_">
	<g id="Layer_1-2">
		<circle class="st0" cx="77.5" cy="77.5" r="77.5"/>
		
			<linearGradient id="SVGID_1_" gradientUnits="userSpaceOnUse" x1="55.82" y1="63.98" x2="130.5" y2="63.98" gradientTransform="matrix(1 0 0 -1 0 156)">
			<stop  offset="0" style="stop-color:#B9915D"/>
			<stop  offset="0.63" style="stop-color:#FBC985"/>
			<stop  offset="0.75" style="stop-color:#EABA7A"/>
			<stop  offset="0.98" style="stop-color:#BC945F"/>
			<stop  offset="1" style="stop-color:#B9915D"/>
		</linearGradient>
		<path class="st1" d="M58.8,91.9c0.3,0.1,0.6,0.2,0.9,0.4c0.2,0.2,0.4,0.5,0.4,0.8c0,0.3-0.2,0.7-0.4,0.9c-0.4,0.3-1,0.5-1.5,0.4
			h-2.4v-0.1c0.1,0,0.3,0,0.4-0.1c0.1,0,0.1-0.1,0.2-0.2c0-0.2,0.1-0.3,0-0.5v-3c0-0.2,0-0.3,0-0.5c0-0.1-0.1-0.1-0.2-0.2
			c-0.1,0-0.3-0.1-0.4-0.1v-0.1H58c0.4,0,0.8,0,1.1,0.2c0.2,0.1,0.4,0.2,0.5,0.4c0.1,0.2,0.2,0.4,0.2,0.6c0,0.2-0.1,0.4-0.2,0.6
			C59.4,91.7,59.1,91.8,58.8,91.9z M57.5,92.1v1.7c0,0.2,0.1,0.3,0.3,0.4c0,0,0.1,0,0.1,0c0.2,0,0.4,0,0.5-0.1
			c0.1-0.1,0.3-0.2,0.3-0.3c0.2-0.3,0.2-0.8,0-1.1c-0.1-0.2-0.2-0.3-0.4-0.4C58.1,92.1,57.8,92,57.5,92.1z M57.5,91.8
			c0.2,0,0.5,0,0.7-0.1c0.1-0.1,0.3-0.2,0.3-0.3c0.1-0.2,0.1-0.3,0.1-0.5c0-0.2,0-0.4-0.1-0.5c-0.1-0.1-0.2-0.2-0.3-0.3
			C58,90,57.8,89.9,57.5,90V91.8z"/>
		
			<linearGradient id="SVGID_2_" gradientUnits="userSpaceOnUse" x1="55.82" y1="63.96" x2="130.5" y2="63.96" gradientTransform="matrix(1 0 0 -1 0 156)">
			<stop  offset="0" style="stop-color:#B9915D"/>
			<stop  offset="0.63" style="stop-color:#FBC985"/>
			<stop  offset="0.75" style="stop-color:#EABA7A"/>
			<stop  offset="0.98" style="stop-color:#BC945F"/>
			<stop  offset="1" style="stop-color:#B9915D"/>
		</linearGradient>
		<path class="st2" d="M65.3,89.7v0.1c-0.1,0-0.2,0.1-0.3,0.2c-0.2,0.2-0.4,0.5-0.5,0.8l-1,1.7v1.1c0,0.1,0,0.3,0,0.4
			c0,0.1,0.1,0.1,0.2,0.2c0.1,0.1,0.2,0.1,0.3,0.1h0.3v0.1h-2.6v-0.1h0.2c0.1,0,0.2,0,0.3-0.1c0.1,0,0.1-0.1,0.1-0.2
			c0-0.1,0-0.3,0-0.4v-0.9l-1.1-2c-0.1-0.3-0.3-0.5-0.5-0.7c-0.1-0.1-0.2-0.1-0.3-0.1v-0.1h2.2v0.1h-0.1c-0.1,0-0.2,0-0.3,0.1
			c0,0-0.1,0.1-0.1,0.1c0.1,0.2,0.1,0.4,0.3,0.6l0.8,1.5l0.8-1.4c0.1-0.2,0.3-0.4,0.3-0.7c0-0.1,0-0.1-0.1-0.2
			c-0.1-0.1-0.3-0.1-0.4-0.1v-0.1L65.3,89.7z"/>
		
			<linearGradient id="SVGID_3_" gradientUnits="userSpaceOnUse" x1="55.82" y1="63.985" x2="130.5" y2="63.985" gradientTransform="matrix(1 0 0 -1 0 156)">
			<stop  offset="0" style="stop-color:#B9915D"/>
			<stop  offset="0.63" style="stop-color:#FBC985"/>
			<stop  offset="0.75" style="stop-color:#EABA7A"/>
			<stop  offset="0.98" style="stop-color:#BC945F"/>
			<stop  offset="1" style="stop-color:#B9915D"/>
		</linearGradient>
		<path class="st3" d="M70.2,92.8l1.3-3.1h1.9v0.1h-0.2c-0.1,0-0.2,0-0.3,0.1c-0.1,0-0.1,0.1-0.1,0.2c0,0.1,0,0.3,0,0.4v3.1
			c0,0.1,0,0.3,0,0.4c0,0.1,0.1,0.1,0.2,0.2c0.1,0.1,0.2,0.1,0.3,0.1h0.2v0.1H71v-0.1h0.2c0.1,0,0.2,0,0.3-0.1
			c0.1,0,0.1-0.1,0.1-0.2c0-0.1,0-0.3,0-0.4v-3.4l-1.8,4.2h-0.1L68,90.1v3.3c0,0.1,0,0.3,0,0.4c0,0.1,0.1,0.2,0.2,0.3
			c0.1,0.1,0.3,0.1,0.5,0.1v0.1H67v-0.1l0,0c0.1,0,0.2,0,0.3,0c0.1,0,0.1-0.1,0.2-0.1c0.1-0.1,0.1-0.2,0.1-0.2c0-0.1,0-0.2,0-0.3v-3
			c0-0.1,0-0.3,0-0.4c0-0.1-0.1-0.1-0.2-0.2c-0.1-0.1-0.2-0.1-0.3-0.1H67v-0.1h1.9L70.2,92.8z"/>
		
			<linearGradient id="SVGID_4_" gradientUnits="userSpaceOnUse" x1="55.82" y1="64.03" x2="130.5" y2="64.03" gradientTransform="matrix(1 0 0 -1 0 156)">
			<stop  offset="0" style="stop-color:#B9915D"/>
			<stop  offset="0.63" style="stop-color:#FBC985"/>
			<stop  offset="0.75" style="stop-color:#EABA7A"/>
			<stop  offset="0.98" style="stop-color:#BC945F"/>
			<stop  offset="1" style="stop-color:#B9915D"/>
		</linearGradient>
		<path class="st4" d="M76.4,93h-1.6l-0.2,0.4c-0.1,0.1-0.1,0.2-0.1,0.4c0,0.1,0.1,0.2,0.2,0.3c0.1,0,0.3,0.1,0.5,0.1v0.1h-1.6v-0.1
			c0.2,0,0.3-0.1,0.4-0.2c0.2-0.2,0.3-0.4,0.4-0.7l1.6-3.7h0.1l1.7,3.8c0.1,0.3,0.2,0.5,0.4,0.7c0.1,0.1,0.2,0.1,0.3,0.1v0.1h-2.2
			v-0.1h0.1c0.1,0,0.3,0,0.4-0.1c0.1,0,0.1-0.1,0.1-0.2c0,0,0-0.1,0-0.1c0-0.1-0.1-0.2-0.1-0.3L76.4,93z M76.3,92.7l-0.7-1.6
			l-0.7,1.6H76.3z"/>
		
			<linearGradient id="SVGID_5_" gradientUnits="userSpaceOnUse" x1="55.82" y1="63.9667" x2="130.5" y2="63.9667" gradientTransform="matrix(1 0 0 -1 0 156)">
			<stop  offset="0" style="stop-color:#B9915D"/>
			<stop  offset="0.63" style="stop-color:#FBC985"/>
			<stop  offset="0.75" style="stop-color:#EABA7A"/>
			<stop  offset="0.98" style="stop-color:#BC945F"/>
			<stop  offset="1" style="stop-color:#B9915D"/>
		</linearGradient>
		<path class="st5" d="M80.4,92.2v1.3c0,0.2,0,0.3,0,0.5c0,0.1,0.1,0.1,0.2,0.2c0.1,0,0.3,0.1,0.4,0.1v0.1h-2.3v-0.1
			c0.1,0,0.3,0,0.4-0.1c0.1,0,0.1-0.1,0.2-0.2c0-0.2,0-0.3,0-0.5v-3c0-0.2,0-0.3,0-0.5c0-0.1-0.1-0.1-0.2-0.2
			c-0.1-0.1-0.3-0.1-0.4-0.1v-0.1h2.2c0.4,0,0.8,0,1.2,0.1c0.3,0.1,0.5,0.2,0.6,0.4c0.2,0.2,0.3,0.5,0.3,0.7c0,0.3-0.1,0.6-0.4,0.8
			c-0.2,0.2-0.4,0.3-0.7,0.3l1.1,1.6c0.1,0.1,0.2,0.3,0.3,0.4c0.1,0.1,0.2,0.1,0.3,0.1v0.1h-1.5l-1.5-2.1L80.4,92.2z M80.4,89.9v2
			h0.2c0.2,0,0.5,0,0.7-0.1c0.2-0.1,0.3-0.2,0.4-0.3c0.1-0.2,0.1-0.4,0.1-0.6c0-0.3-0.1-0.6-0.2-0.8c-0.2-0.2-0.5-0.3-0.8-0.3
			L80.4,89.9z"/>
		
			<linearGradient id="SVGID_6_" gradientUnits="userSpaceOnUse" x1="55.82" y1="63.985" x2="130.5" y2="63.985" gradientTransform="matrix(1 0 0 -1 0 156)">
			<stop  offset="0" style="stop-color:#B9915D"/>
			<stop  offset="0.63" style="stop-color:#FBC985"/>
			<stop  offset="0.75" style="stop-color:#EABA7A"/>
			<stop  offset="0.98" style="stop-color:#BC945F"/>
			<stop  offset="1" style="stop-color:#B9915D"/>
		</linearGradient>
		<path class="st6" d="M86.2,94.2v0.1h-2.4v-0.1h0.2c0.1,0,0.2,0,0.3-0.1c0.1,0,0.1-0.1,0.1-0.1c0-0.1,0-0.3,0-0.4v-3.1
			c0-0.1,0-0.3,0-0.4c0-0.1-0.1-0.1-0.2-0.2c-0.1-0.1-0.2-0.1-0.3-0.1h-0.2v-0.1h2.4v0.1h-0.2c-0.1,0-0.2,0-0.3,0.1
			c-0.1,0-0.1,0.1-0.1,0.2c0,0.1,0,0.3,0,0.4v3.1c0,0.1,0,0.3,0,0.4c0,0.1,0.1,0.1,0.2,0.2c0.1,0.1,0.2,0.1,0.3,0.1H86.2z"/>
		
			<linearGradient id="SVGID_7_" gradientUnits="userSpaceOnUse" x1="55.82" y1="63.965" x2="130.5" y2="63.965" gradientTransform="matrix(1 0 0 -1 0 156)">
			<stop  offset="0" style="stop-color:#B9915D"/>
			<stop  offset="0.63" style="stop-color:#FBC985"/>
			<stop  offset="0.75" style="stop-color:#EABA7A"/>
			<stop  offset="0.98" style="stop-color:#BC945F"/>
			<stop  offset="1" style="stop-color:#B9915D"/>
		</linearGradient>
		<path class="st7" d="M88.3,90v1.9h0.1c0.2,0,0.5-0.1,0.6-0.3c0.1-0.2,0.2-0.5,0.2-0.8h0.1v2.4h-0.1c0-0.2-0.1-0.4-0.2-0.7
			c-0.1-0.1-0.2-0.3-0.3-0.3c-0.2-0.1-0.3-0.1-0.5-0.1v1.3c0,0.2,0,0.3,0,0.5c0,0.1,0.1,0.1,0.1,0.1c0.1,0,0.2,0.1,0.3,0.1H89
			c0.4,0,0.7-0.1,1-0.3c0.3-0.2,0.5-0.6,0.6-0.9h0.1l-0.2,1.5h-4v-0.1h0.2c0.1,0,0.2,0,0.3-0.1c0.1,0,0.1-0.1,0.1-0.2
			c0-0.1,0-0.3,0-0.4v-3.1c0-0.1,0-0.3,0-0.4c0-0.1-0.1-0.1-0.1-0.2c-0.1-0.1-0.2-0.1-0.3-0.1h-0.2v-0.1h3.9v1.4h-0.1
			c0-0.3-0.1-0.5-0.3-0.7c-0.1-0.2-0.3-0.3-0.5-0.3C89.2,90,89,89.9,88.8,90L88.3,90z"/>
		
			<linearGradient id="SVGID_8_" gradientUnits="userSpaceOnUse" x1="55.82" y1="63.985" x2="130.5" y2="63.985" gradientTransform="matrix(1 0 0 -1 0 156)">
			<stop  offset="0" style="stop-color:#B9915D"/>
			<stop  offset="0.63" style="stop-color:#FBC985"/>
			<stop  offset="0.75" style="stop-color:#EABA7A"/>
			<stop  offset="0.98" style="stop-color:#BC945F"/>
			<stop  offset="1" style="stop-color:#B9915D"/>
		</linearGradient>
		<path class="st8" d="M94.4,92.8l1.3-3.1h1.9v0.1h-0.2c-0.1,0-0.2,0-0.3,0.1c-0.1,0-0.1,0.1-0.1,0.2c0,0.1,0,0.3,0,0.4v3.1
			c0,0.1,0,0.3,0,0.4c0,0.1,0.1,0.1,0.2,0.2c0.1,0.1,0.2,0.1,0.3,0.1h0.2v0.1h-2.4v-0.1h0.2c0.1,0,0.2,0,0.3-0.1
			c0.1,0,0.1-0.1,0.1-0.2c0-0.1,0-0.3,0-0.4v-3.4L94,94.3h-0.1l-1.8-4.2v3.3c0,0.1,0,0.3,0,0.4c0,0.1,0.1,0.2,0.2,0.3
			c0.1,0.1,0.3,0.1,0.5,0.1v0.1h-1.6v-0.1l0,0c0.1,0,0.2,0,0.3,0c0.1,0,0.1-0.1,0.2-0.1c0.1-0.1,0.1-0.2,0.1-0.2v-3.3
			c0-0.1,0-0.3,0-0.4c0-0.1-0.1-0.1-0.2-0.2c-0.1-0.1-0.2-0.1-0.3-0.1h-0.2v-0.1h1.9L94.4,92.8z"/>
		
			<linearGradient id="SVGID_9_" gradientUnits="userSpaceOnUse" x1="55.82" y1="64.01" x2="130.5" y2="64.01" gradientTransform="matrix(1 0 0 -1 0 156)">
			<stop  offset="0" style="stop-color:#B9915D"/>
			<stop  offset="0.63" style="stop-color:#FBC985"/>
			<stop  offset="0.75" style="stop-color:#EABA7A"/>
			<stop  offset="0.98" style="stop-color:#BC945F"/>
			<stop  offset="1" style="stop-color:#B9915D"/>
		</linearGradient>
		<path class="st9" d="M102.3,91.5l1.6,2c0.2,0.2,0.4,0.4,0.6,0.6c0.1,0.1,0.2,0.1,0.4,0.1v0.1h-2.4v-0.1c0.1,0,0.2,0,0.3-0.1
			c0,0,0.1-0.1,0.1-0.1c-0.1-0.2-0.2-0.4-0.3-0.5l-1.1-1.3l-0.2,0.2v1.3c0,0.1,0,0.3,0,0.4c0,0.1,0.1,0.1,0.2,0.2
			c0.1,0,0.2,0.1,0.4,0.1v0.1h-2.3v-0.1h0.2c0.1,0,0.2,0,0.3-0.1c0.1,0,0.1-0.1,0.1-0.2c0-0.1,0-0.3,0-0.4v-3c0-0.1,0-0.3,0-0.4
			c0-0.1-0.1-0.1-0.2-0.2c-0.1-0.1-0.2-0.1-0.3-0.1h-0.2v-0.1h2.3v0.1c-0.1,0-0.2,0-0.4,0.1c-0.1,0-0.1,0.1-0.1,0.2
			c0,0.1,0,0.3,0,0.4v1.4l1.7-1.4c0.2-0.2,0.4-0.3,0.4-0.5c0-0.1-0.1-0.2-0.2-0.2c-0.1,0-0.2-0.1-0.4-0.1v-0.1h1.8v0.1
			c-0.1,0-0.3,0-0.4,0.1c-0.2,0.1-0.4,0.3-0.6,0.5L102.3,91.5z"/>
		
			<linearGradient id="SVGID_10_" gradientUnits="userSpaceOnUse" x1="55.82" y1="63.985" x2="130.5" y2="63.985" gradientTransform="matrix(1 0 0 -1 0 156)">
			<stop  offset="0" style="stop-color:#B9915D"/>
			<stop  offset="0.63" style="stop-color:#FBC985"/>
			<stop  offset="0.75" style="stop-color:#EABA7A"/>
			<stop  offset="0.98" style="stop-color:#BC945F"/>
			<stop  offset="1" style="stop-color:#B9915D"/>
		</linearGradient>
		<path class="st10" d="M106.8,92.1v1.4c0,0.1,0,0.3,0,0.4c0,0.1,0.1,0.1,0.2,0.2c0.1,0.1,0.2,0.1,0.3,0.1h0.2v0.1H105v-0.1h0.2
			c0.1,0,0.2,0,0.3-0.1c0.1,0,0.1-0.1,0.1-0.2c0-0.1,0-0.3,0-0.4v-3.1c0-0.1,0-0.3,0-0.4c0-0.1-0.1-0.1-0.2-0.2
			c-0.1-0.1-0.2-0.1-0.3-0.1H105v-0.1h2.4v0.1h-0.2c-0.1,0-0.2,0-0.3,0.1c-0.1,0-0.1,0.1-0.1,0.2c0,0.1,0,0.3,0,0.4v1.3h1.6v-1.3
			c0-0.1,0-0.3,0-0.4c0-0.1-0.1-0.1-0.2-0.2c-0.1-0.1-0.2-0.1-0.3-0.1h-0.2v-0.1h2.4v0.1h-0.2c-0.1,0-0.2,0-0.3,0.1
			c-0.1,0-0.1,0.1-0.1,0.2c0,0.1,0,0.3,0,0.4v3.1c0,0.1,0,0.3,0,0.4c0,0.1,0.1,0.1,0.2,0.2c0.1,0.1,0.2,0.1,0.3,0.1h0.2v0.1h-2.4
			v-0.1h0.2c0.1,0,0.2,0,0.3-0.1c0.1,0,0.1-0.1,0.1-0.2c0-0.1,0-0.3,0-0.4v-1.4H106.8z"/>
		
			<linearGradient id="SVGID_11_" gradientUnits="userSpaceOnUse" x1="55.82" y1="64.05" x2="130.5" y2="64.05" gradientTransform="matrix(1 0 0 -1 0 156)">
			<stop  offset="0" style="stop-color:#B9915D"/>
			<stop  offset="0.63" style="stop-color:#FBC985"/>
			<stop  offset="0.75" style="stop-color:#EABA7A"/>
			<stop  offset="0.98" style="stop-color:#BC945F"/>
			<stop  offset="1" style="stop-color:#B9915D"/>
		</linearGradient>
		<path class="st11" d="M113.2,93h-1.6l-0.2,0.4c-0.1,0.1-0.1,0.2-0.1,0.4c0,0.1,0.1,0.2,0.2,0.3c0.1,0,0.3,0.1,0.5,0.1v0.1h-1.6
			v-0.1c0.2,0,0.3-0.1,0.4-0.2c0.2-0.2,0.3-0.4,0.4-0.7l1.7-3.7h0.1l1.7,3.8c0.1,0.2,0.2,0.5,0.4,0.7c0.1,0.1,0.2,0.1,0.3,0.1v0.1
			h-2.2v-0.1h0.1c0.1,0,0.3,0,0.4-0.1c0,0,0.1-0.1,0.1-0.2c0,0,0-0.1,0-0.1c0-0.1-0.1-0.2-0.1-0.3L113.2,93z M113.1,92.7l-0.7-1.6
			l-0.7,1.6H113.1z"/>
		
			<linearGradient id="SVGID_12_" gradientUnits="userSpaceOnUse" x1="55.82" y1="63.9861" x2="130.5" y2="63.9861" gradientTransform="matrix(1 0 0 -1 0 156)">
			<stop  offset="0" style="stop-color:#B9915D"/>
			<stop  offset="0.63" style="stop-color:#FBC985"/>
			<stop  offset="0.75" style="stop-color:#EABA7A"/>
			<stop  offset="0.98" style="stop-color:#BC945F"/>
			<stop  offset="1" style="stop-color:#B9915D"/>
		</linearGradient>
		<path class="st12" d="M115.5,94.3v-0.1h0.2c0.1,0,0.2,0,0.3-0.1c0.1,0,0.1-0.1,0.2-0.2c0-0.1,0-0.3,0-0.4v-3.1c0-0.1,0-0.3,0-0.4
			c0-0.1-0.1-0.1-0.2-0.2c-0.1-0.1-0.2-0.1-0.3-0.1h-0.2v-0.1h2.1c0.5,0,0.9,0.1,1.3,0.2c0.4,0.2,0.7,0.5,0.9,0.8
			c0.2,0.4,0.3,0.8,0.3,1.3c0,0.3,0,0.6-0.2,0.9c-0.2,0.5-0.5,0.9-1,1.1c-0.3,0.1-0.5,0.2-0.8,0.3c-0.2,0-0.4,0-0.7,0L115.5,94.3z
			 M117.2,90v3.6c0,0.1,0,0.2,0,0.3c0,0,0,0.1,0.1,0.1c0.1,0,0.2,0,0.3,0c0.3,0,0.7-0.1,0.9-0.4c0.3-0.5,0.5-1.1,0.4-1.6
			c0-0.5-0.1-1-0.3-1.4c-0.1-0.3-0.3-0.5-0.6-0.6C117.8,90,117.5,90,117.2,90z"/>
		
			<linearGradient id="SVGID_13_" gradientUnits="userSpaceOnUse" x1="55.82" y1="63.9766" x2="130.5" y2="63.9766" gradientTransform="matrix(1 0 0 -1 0 156)">
			<stop  offset="0" style="stop-color:#B9915D"/>
			<stop  offset="0.63" style="stop-color:#FBC985"/>
			<stop  offset="0.75" style="stop-color:#EABA7A"/>
			<stop  offset="0.98" style="stop-color:#BC945F"/>
			<stop  offset="1" style="stop-color:#B9915D"/>
		</linearGradient>
		<path class="st13" d="M122.3,92.2v1.3c0,0.2,0,0.3,0,0.5c0,0.1,0.1,0.1,0.2,0.2c0.1,0.1,0.3,0.1,0.4,0.1v0.1h-2.4v-0.1
			c0.1,0,0.3,0,0.4-0.1c0.1,0,0.1-0.1,0.2-0.2c0-0.2,0-0.3,0-0.5v-3c0-0.2,0-0.3,0-0.5c0-0.1-0.1-0.1-0.2-0.2
			c-0.1,0-0.3-0.1-0.4-0.1v-0.1h2.2c0.4,0,0.8,0,1.2,0.1c0.2,0.1,0.5,0.2,0.6,0.4c0.2,0.2,0.3,0.5,0.2,0.7c0,0.3-0.1,0.6-0.4,0.8
			c-0.2,0.2-0.4,0.3-0.7,0.3l1.1,1.6c0.1,0.1,0.2,0.3,0.3,0.4c0.1,0.1,0.2,0.1,0.3,0.1v0.1h-1.5l-1.5-2.1L122.3,92.2z M122.3,89.9v2
			h0.2c0.2,0,0.5,0,0.7-0.1c0.2-0.1,0.3-0.2,0.4-0.3c0.1-0.2,0.1-0.4,0.1-0.6c0.1-0.5-0.3-0.9-0.8-1c-0.1,0-0.1,0-0.2,0L122.3,89.9z
			"/>
		
			<linearGradient id="SVGID_14_" gradientUnits="userSpaceOnUse" x1="55.82" y1="64.03" x2="130.5" y2="64.03" gradientTransform="matrix(1 0 0 -1 0 156)">
			<stop  offset="0" style="stop-color:#B9915D"/>
			<stop  offset="0.63" style="stop-color:#FBC985"/>
			<stop  offset="0.75" style="stop-color:#EABA7A"/>
			<stop  offset="0.98" style="stop-color:#BC945F"/>
			<stop  offset="1" style="stop-color:#B9915D"/>
		</linearGradient>
		<path class="st14" d="M128.4,93h-1.6l-0.2,0.4c-0.1,0.1-0.1,0.2-0.1,0.4c0,0.1,0.1,0.2,0.2,0.3c0.1,0,0.3,0.1,0.5,0.1v0.1h-1.6
			v-0.1c0.2,0,0.3-0.1,0.4-0.2c0.2-0.2,0.3-0.4,0.4-0.7l1.6-3.7h0.1l1.7,3.8c0.1,0.3,0.2,0.5,0.4,0.7c0.1,0.1,0.2,0.1,0.3,0.1v0.1
			h-2.2v-0.1h0.1c0.1,0,0.3,0,0.4-0.1c0.1,0,0.1-0.1,0.1-0.2c0,0,0-0.1,0-0.1c0-0.1-0.1-0.2-0.1-0.3L128.4,93z M128.3,92.7l-0.7-1.6
			l-0.7,1.6H128.3z"/>
		
			<linearGradient id="SVGID_15_" gradientUnits="userSpaceOnUse" x1="22.9604" y1="90.8623" x2="133.9704" y2="91.9023" gradientTransform="matrix(1 0 0 -1 0 156)">
			<stop  offset="0" style="stop-color:#B9915D"/>
			<stop  offset="0.63" style="stop-color:#FBC985"/>
			<stop  offset="0.75" style="stop-color:#EABA7A"/>
			<stop  offset="0.98" style="stop-color:#BC945F"/>
			<stop  offset="1" style="stop-color:#B9915D"/>
		</linearGradient>
		<path class="st15" d="M86,60.7c-0.3-2.3-1.3-4.4-2.9-6.1C79.1,50,70,47.8,60,48.2c-9.5,0.4-20,2.9-27.7,7.8
			c-3.5,2.1-6.3,5.1-8.2,8.7c-0.7,1.4-1.1,3-1.2,4.6c0,1.7,0.5,3.4,1.4,4.9c1.5,2.2,3.6,3.9,6.1,5c0.5,0.2,0.8,0,0.6-0.5
			c-0.2-0.5-0.5-0.9-1-1.2c-1.8-0.7-3.4-1.9-4.5-3.5c-0.7-1.1-1-2.4-1-3.7c0-1.5,0.4-3,1-4.3c1.8-3.5,4.6-6.4,8-8.5
			c7.6-4.8,18-7.3,27.3-7.7c9.5-0.4,18,1.4,21.3,5.2c1.1,1.3,1.8,2.9,2,4.6c0.2,2.1-0.3,4.1-1.4,5.9c-1.2,2.2-2.8,4.1-4.7,5.7
			c-3.4,2.9-7.3,5.1-11.5,6.5c-4.7,1.4-9.6,1.9-14.4,1.5c-3.5-0.3-7.7-1.3-9-5c-0.3-0.8-0.4-1.7-0.3-2.6c0.1-0.9,0.5-1.6-0.2-2.3
			c-0.5-0.4-0.9-0.5-1.1-0.3c-1.3,2.2-0.7,5.1,0.5,7.2c1.2,2,3.2,3.4,5.4,4c2,0.6,4,0.8,6.1,0.9c0.5,0,1,0.1,1.5,0.1
			c1,0,1.9,0,2.9-0.1c0.6,0,1.3-0.1,1.9-0.2c7.2-0.7,14.1-3.5,19.7-8.1c1.9-1.6,3.6-3.6,4.8-5.8C85.7,65.2,86.2,63,86,60.7z"/>
		
			<linearGradient id="SVGID_16_" gradientUnits="userSpaceOnUse" x1="23.0906" y1="83.4523" x2="134.1006" y2="84.4923" gradientTransform="matrix(1 0 0 -1 0 156)">
			<stop  offset="0" style="stop-color:#B9915D"/>
			<stop  offset="0.63" style="stop-color:#FBC985"/>
			<stop  offset="0.75" style="stop-color:#EABA7A"/>
			<stop  offset="0.98" style="stop-color:#BC945F"/>
			<stop  offset="1" style="stop-color:#B9915D"/>
		</linearGradient>
		<path class="st16" d="M131.8,78.7c-0.4-0.4-0.6-0.2-0.9-0.1c-1.4,0.8-3,1-4.5,0.6c0.1-0.7,0.1-1.5,0-2.2c-0.1-0.6-0.3-1.2-0.6-1.8
			c-0.3-0.7-0.9-1.3-1.6-1.7c-0.4-0.2-0.8-0.3-1.3-0.3c-0.6,0.1-0.9,0.6-1,1.3c0,0.9,0.1,1.7,0.5,2.5c0.5,1,1.1,1.9,2,2.6
			c-0.2,0.7-0.5,1.4-0.8,2.1c-0.5,1-1.2,1.9-2,2.7c-0.4,0.4-0.9,0.8-1.5,1c-0.3,0.1-0.7,0.1-1,0c-0.2-1,0-2.1,0.4-3
			c0.5-1.6,1.3-3,2.5-4.1c0.1-0.1,0.3-0.2,0.4-0.3c0.2-0.2,0.1-0.7-0.3-1.2s-0.9-0.7-1.1-0.5s-0.3,0.3-0.5,0.4
			c-0.5,0.5-0.9,1-1.3,1.6c-1.3,1.1-10.1,7.9-11,6.4c-0.6-1,1.1-3.9,4.2-8.9c0.1,0,0.2-0.1,0.2-0.3l0,0c1-1.6,2.1-3.3,3.1-4.9h15.1
			c0.4,0,0.4-0.4,0.1-0.9c-0.2-0.4-0.7-0.8-1.2-0.9h-12.8c3.9-5.9,7.6-11,7.6-11s-0.1-0.8-0.4-1.2s-0.9-0.5-1.1-0.3
			c0,0-4.3,5.9-8.5,12.5h-17c-0.3,0-0.4,0.4-0.1,0.9c0.2,0.5,0.7,0.8,1.2,0.9c0,0,12.9-0.5,12.8,3.3c0,0-0.4,0.6-0.3,0.6
			c-1.2,1.9-2.2,3.7-3,5.4c-1.6,1.2-5.1,4-6.4,3.1c0,0,0.8-1.5,1.4-2.8c0.3-0.6,0.6-1.3,0.8-2c0.5-0.9,0.1-2-0.9-2.5
			c-0.2-0.1-0.4-0.1-0.5-0.2h-0.1c-1.1-0.3-4.1,1.9-6.8,4.2l1.3-2.3c0.2-0.2,0-0.8-0.5-1.2s-0.9-0.5-1.1-0.2l-1.9,3.5
			c-1.4,1.6-3.1,2.9-5,3.8c-3.8,1.8,0-3.5,0.7-4.3c0.1-0.1,0.3-0.2,0.3-0.3c0.2-0.2,0-0.8-0.4-1.2s-0.9-0.6-1.1-0.4l-0.2,0.2
			c-2.7,4.6-6.6,7-7.2,6.6c-0.4-0.3,0-3.3,3.8-7.7c0.2-0.2,0-0.8-0.4-1.2s-0.9-0.6-1.1-0.4c-1.6,1.7-2.9,3.5-3.9,5.6
			c-2.8,6.2,1.3,6.9,6.3,2.7c0.3,2.2,2.5,2.6,4.3,1.7c0.6-0.3,1.2-0.7,1.8-1.2L90.8,84c-0.2,0.2,0.1,0.8,0.5,1.2s0.9,0.5,1,0.3
			s6.9-6.6,9.8-8.1c-0.2,0.4-0.3,0.8-0.6,1.2c-1,2-2.1,4.2,0.2,5.6c1.3,0.9,3.4-0.4,5.1-1.8c-0.6,1.6-0.9,2.8-0.5,3.4
			c1.8,3.2,8.1-1.6,11.6-4.6c-0.5,1.5-0.4,3.1,0.3,4.4l0.3,0.3c0.3,0.3,0.6,0.6,1,0.8c0.6,0.3,1.3,0.4,2,0.2
			c0.6-0.2,1.2-0.6,1.7-1.1c0.9-0.8,1.6-1.8,2.1-2.8c0.5-0.8,0.8-1.6,1-2.5c1.6,0.6,3.3,0.3,5.7-1C132.1,79.5,132.1,79.1,131.8,78.7
			z M107.1,70.2l6.3,0.2l-1.5,2.4C111.1,71.8,108.6,70.8,107.1,70.2z M124.7,78.4c-0.3-0.3-0.6-0.6-0.8-1.1c-0.2-0.5-0.3-1-0.3-1.6
			c0-0.4,0.2-0.8,0.5-0.8c0.1-0.1,0.2-0.1,0.3,0l0,0c0.1,0.4,0.2,0.7,0.2,1.1C124.8,76.9,124.8,77.6,124.7,78.4z"/>
		
			<linearGradient id="SVGID_17_" gradientUnits="userSpaceOnUse" x1="23.14" y1="78.1845" x2="134.1499" y2="79.2245" gradientTransform="matrix(1 0 0 -1 0 156)">
			<stop  offset="0" style="stop-color:#B9915D"/>
			<stop  offset="0.63" style="stop-color:#FBC985"/>
			<stop  offset="0.75" style="stop-color:#EABA7A"/>
			<stop  offset="0.98" style="stop-color:#BC945F"/>
			<stop  offset="1" style="stop-color:#B9915D"/>
		</linearGradient>
		<path class="st17" d="M71.1,44.9c-0.8-0.3-1.6,0-2,0.8c0,0,0,0,0,0l-24.9,64.6l27.7-63.4C72.2,46.1,71.8,45.2,71.1,44.9z
			 M68.8,51.8C68.7,52,68.3,52.2,68,52c-0.3-0.1-0.4-0.4-0.3-0.7l1.5-4.2c0.2-0.4,0.6-0.7,1-0.5c0,0,0,0,0.1,0
			c0.4,0.2,0.6,0.7,0.4,1.1c0,0,0,0,0,0L68.8,51.8z"/>
	</g>
</g>
</svg>
