<svg xmlns="http://www.w3.org/2000/svg" xmlns:xlink="http://www.w3.org/1999/xlink" viewBox="0 0 155 155"><defs><style>.cls-1{fill:#fff;}.cls-2{fill:#1f1c3e;}.cls-3{fill:url(#linear-gradient);}</style><linearGradient id="linear-gradient" x1="19.46" y1="78.25" x2="63.62" y2="78.25" gradientUnits="userSpaceOnUse"><stop offset="0" stop-color="#2c2964"/><stop offset="1" stop-color="#d22263"/></linearGradient></defs><g id="Layer_2" data-name="Layer 2"><g id="Layer_1-2" data-name="Layer 1"><circle class="cls-1" cx="77.5" cy="77.5" r="77.5"/><path class="cls-2" d="M65.92,79.67c0-4.2,2.53-6.64,7.31-6.64a9.44,9.44,0,0,1,2.46.32c1,.25,1.27.54,1.27,1.58v.41c0,1.11-.32,1.33-1.33,1a7,7,0,0,0-2.34-.31c-3,0-4.11,1-4.11,3.63v3c0,2.75,1.17,3.66,4.33,3.66A14,14,0,0,0,76,86.06c1-.22,1.29,0,1.29,1.07v.38c0,1-.28,1.33-1.33,1.58a9.71,9.71,0,0,1-2.56.32q-7.44,0-7.43-6.64Zm13.35,2.91V79.86q0-6.83,7.27-6.83c5,0,7.21,2.25,7.21,6.83v2.72c0,4.43-2.41,6.83-7.21,6.83C81.51,89.41,79.27,87.17,79.27,82.58Zm11.22-2.72c0-2.75-.95-3.79-3.95-3.79s-4,1-4,3.79v2.72c0,2.69,1,3.76,4,3.76s3.95-1,3.95-3.76ZM111,82.64c0,4.46-2.56,6.77-7.21,6.77-4.84,0-7.24-2.24-7.24-6.77V79.93c0-4.59,2.21-6.9,6.61-6.9,2.21,0,3.76.7,4.61,2.06V68.35c0-1.13.29-1.42,1.42-1.42h.38c1.14,0,1.43.29,1.43,1.42Zm-11.2-.06c0,2.75.92,3.76,4,3.76s4-1.07,4-3.76V79.86c0-2.75-1-3.79-4-3.79s-4,1-4,3.79ZM127.64,81c-.13,1.17-.44,1.45-1.61,1.45h-8.79v.7c0,2.31,1.32,3.22,4.52,3.22a17.09,17.09,0,0,0,4.11-.5c1-.25,1.29,0,1.29,1.1v.42c0,1-.19,1.26-1.29,1.54a15,15,0,0,1-4.11.51c-5.35,0-7.78-2-7.78-6.77V79.89Q114,73,121,73c4.39,0,6.7,2.25,6.7,6.55C127.7,79.86,127.67,80.34,127.64,81Zm-10.4-1.2h7.39V79c0-2.09-1.23-3.13-3.73-3.13s-3.66,1-3.66,3.13Z"/><path class="cls-3" d="M46.73,75.29l-1.36,9.54c-.55,3.87-1.93,5.31-5.09,5.31a4.21,4.21,0,0,1-3.43-1.28,8.54,8.54,0,0,1-1.4-4l-1.32-5.3c-.21-.88-.4-1.76-.59-2.64a1.44,1.44,0,0,0-.07-.22h-.2a1.91,1.91,0,0,0-.12.48c-.08.39-.15.77-.24,1.16l-1.42,6.51a8.17,8.17,0,0,1-1.4,4,4.22,4.22,0,0,1-3.43,1.28A4.71,4.71,0,0,1,23,88.88a7.59,7.59,0,0,1-1.47-4L21,80.53a2.11,2.11,0,1,1,4.18-.59l.66,4.76c.22,1.52.49,1.52.86,1.52s.6,0,.85-1.53l1.74-7.52c.52-3.25,1.51-4.3,4.11-4.3s3.6,1,4.11,4.3l2,7.52c.25,1.53.52,1.53.85,1.53s.64,0,.86-1.52l1.4-10a2.12,2.12,0,1,1,4.19.6ZM63.62,79.9c0,.21,0,.52,0,.91l0,.5c-.16,1.43-.69,1.91-2.09,1.91H53.15v.22c0,1.69.68,2.74,4.05,2.74a16.63,16.63,0,0,0,4-.49,1.6,1.6,0,0,1,1.42.12,1.75,1.75,0,0,1,.47,1.45v.41c0,1.26-.34,1.68-1.65,2a15.5,15.5,0,0,1-4.23.52c-5.64,0-8.26-2.3-8.26-7.25V80.21c0-4.87,2.52-7.34,7.5-7.34C61.07,72.87,63.62,75.37,63.62,79.9Zm-4-.6c0-1.14-.34-2.66-3.26-2.66s-3.19,1.52-3.19,2.66v.31H59.6ZM25.08,74.16A2.81,2.81,0,1,0,22.27,77,2.8,2.8,0,0,0,25.08,74.16ZM45.15,66.3a3,3,0,1,0,3,3A3,3,0,0,0,45.15,66.3Z"/><polygon class="cls-2" points="134.23 65.28 133.11 67.64 132 65.28 130.69 65.28 127.29 65.28 127.29 66.13 128.53 66.13 128.53 69.66 129.51 69.66 129.51 66.13 130.69 66.13 130.69 69.6 131.67 69.6 131.67 66.85 132.85 69.21 133.44 69.21 134.55 66.98 134.55 69.6 135.54 69.6 135.54 65.28 134.23 65.28"/></g></g></svg>