<?xml version="1.0" encoding="utf-8"?>
<!-- Generator: Adobe Illustrator 25.0.1, SVG Export Plug-In . SVG Version: 6.00 Build 0)  -->
<svg version="1.1" id="Layer_1" xmlns="http://www.w3.org/2000/svg" xmlns:xlink="http://www.w3.org/1999/xlink" x="0px" y="0px"
	 viewBox="0 0 1232.3 1019.4" style="enable-background:new 0 0 1232.3 1019.4;" xml:space="preserve">
<style type="text/css">
	.st0{fill:url(#SVGID_1_);}
	.st1{fill:url(#SVGID_2_);}
	.st2{fill:#FFFFFF;}
	.st3{fill-rule:evenodd;clip-rule:evenodd;fill:#FFFFFF;}
	.st4{fill-rule:evenodd;clip-rule:evenodd;fill:url(#SVGID_3_);}
</style>
<linearGradient id="SVGID_1_" gradientUnits="userSpaceOnUse" x1="126.2754" y1="511.0545" x2="1094.2754" y2="463.0545">
	<stop  offset="0" style="stop-color:#B9915D"/>
	<stop  offset="0.6275" style="stop-color:#FBC985"/>
	<stop  offset="0.7469" style="stop-color:#EABA7A"/>
	<stop  offset="0.9841" style="stop-color:#BC945F"/>
	<stop  offset="1" style="stop-color:#B9915D"/>
</linearGradient>
<polygon class="st0" points="503.6,360.9 264.9,717.9 260.1,725.1 123,725.1 436.3,275 "/>
<linearGradient id="SVGID_2_" gradientUnits="userSpaceOnUse" x1="129.6378" y1="578.8618" x2="1097.6378" y2="530.8618">
	<stop  offset="0" style="stop-color:#B9915D"/>
	<stop  offset="0.6275" style="stop-color:#FBC985"/>
	<stop  offset="0.7469" style="stop-color:#EABA7A"/>
	<stop  offset="0.9841" style="stop-color:#BC945F"/>
	<stop  offset="1" style="stop-color:#B9915D"/>
</linearGradient>
<polygon class="st1" points="271.6,485.3 114.3,720.4 111.2,725.1 20.9,725.1 227.2,428.7 "/>
<g>
	<g>
		<path class="st2" d="M513.4,580c-29.1,1.7-58.3,5.8-87.5,11.5c-0.1,0-0.1,0-0.1,0c-24.7,4.8-50.3,12.9-75.7,15.4l40.2-60.1
			l5.6-8.4l8.3-12.4c11.1,1.2,21.8,2.5,30.9,3.7c5.9,0.8,11.2,1.6,15.3,2.4c3.8,6.4-26,8.7-16.6,9.4c24.1,1.7,48,5.8,71.8,9.9
			C502.5,561.3,505.1,573.3,513.4,580z"/>
		<path class="st2" d="M905,313.5c-21.6,1.6-43.1,4.8-64.8,7.3c-0.5-3.3-1-6.6-1.8-9.9c19.1-3.8,38.2-7.6,57.3-11.4l-10.2-15.2
			c-29.3-1.3-58.8-3.5-86.7,2.1c-56.2,11.3-111.3,8.9-166.2-0.3c-22.1-3.7-43.7-4.9-65-4.3l-57,85.1c1.8-0.4,3.6-0.8,5.4-1.2
			c45.7-10.8,90.5-14.6,134.6,4.2c44.6,19,91.1,24.1,137.3,12.5c53.1-13.3,105.3-14.5,157.8-8.1L905,313.5z M671.5,340.1h116.3
			C752,366.8,715,366.9,671.5,340.1z"/>
		<path class="st3" d="M795,535.1l-120.2,57.2c-3.3,2-7.8,3.4-11.8,5.9c-13.5,5.8-27.5,12.2-41,13.2c-5.6,0.5-10.7,0.5-16.9-0.5
			c-10.1-1-36.5-5.4-64-10.8c-27-4.5-54.5-9.4-65.8-11.3c-9-1-18-1-27.5-0.5c-7.3,0.5-14.6,1.9-21.9,3.4l-0.1-0.2l-35.5-44.7
			l5.6-8.4c13.3-3.2,26.3-6.1,39.2-8.7c11.3-2.2,22.6-4.1,34-5.8c5.1-1,10.7-1.5,16.3-2c34.2-2.5,64,4.4,93.2,10.8
			c8.4,2,20.2,3.4,32.6,4.9c18.6,2.9,37.7,4.9,46.7,9.3c8.3,3.4,11.7,7.8,11.2,12.7c-1.7,8.3-13.5,12.7-37.7,14.7
			c-15.1,0.5-35.4,0.5-56.7,1c-3.3-0.5-7.3-0.5-10.1-0.5c29.3,4.9,54.5,6.4,74.2,4.9c23-1.5,36.5-6.9,39.3-15.7
			c2.3-6.4-2.2-13.7-11.8-20.6l-1.1-1l1.7-0.5c0.5-0.5,84.8-25.5,101.1-29.9c3.4-1,7.3-2,10.7-2c13.5-1.5,25.3,2.5,28.1,8.8
			C808.5,522.3,808.5,528.2,795,535.1z"/>
		<linearGradient id="SVGID_3_" gradientUnits="userSpaceOnUse" x1="127.6686" y1="539.1495" x2="1095.6686" y2="491.1495">
			<stop  offset="0" style="stop-color:#B9915D"/>
			<stop  offset="0.6275" style="stop-color:#FBC985"/>
			<stop  offset="0.7469" style="stop-color:#EABA7A"/>
			<stop  offset="0.9841" style="stop-color:#BC945F"/>
			<stop  offset="1" style="stop-color:#B9915D"/>
		</linearGradient>
		<path class="st4" d="M971.5,949.5C971.5,949.5,971.5,949.5,971.5,949.5L971.5,949.5C971.5,949.5,971.4,949.5,971.5,949.5
			C971.4,949.5,971.4,949.5,971.5,949.5C946.9,941,797,906.9,850.9,740.9c5.2-16.1,18-17.8,34.7-15.7
			c32.1,4.1,212.6,17.6,310.7,23.9l-10.2-15.3c-46.4-8.1-144.7-23.1-145.4-25.2c24.3,2,48.6,3.8,72.8,6.1
			c21.3,1.9,42.7,5.6,64.1,6.4l-34.5-51.6c-1-0.3-2-0.6-3-0.8c-18-5-36.7-7.8-55.1-11.5c0.2-1.7,0.4-3.3,0.6-4.9
			c12.1-1.6,24.3-3.2,36.5-4.8c-44.6-30.5-91.9-0.6-140.3-10.4c12.6-4.8,22.1-8.5,39.4-15.2c-56.6-18.5-104.7-12.5-150,5.6
			c-28.7,11.5-54.2,12.4-82.2,3c-41.1-13.8-81.1-8.6-122.7,2.3c-39.3,10.2-50.7,5.8-60.3,2.6c-54.9-18.2-103.2-29.3-160.6-22.9
			c-7.6,0.9-57.3,13.3-58.1,13.4c-21.5,2.4-38.3,2.9-51.5,2.4L287.1,701c36.6-2.9,73.2-5.8,109.8-8.8c0.2,1.3,0.4,2.7,0.6,4.1
			c-12.6,3.6-80.2,14.3-121.8,21.7l-11,16.4c46.4-1.2,144.8-9.1,169.4-7.3c6.4,0.5,13.3,1.4,19,4.2c9.6,4.8,19,16.8,27.4,15.9
			c38.3-4.2,59.5-9,102.1-16.3c0,0,16.5-6,24.1,10.3c57.9,124-11.4,172.1-64.8,192.4c0,0,0,0,0,0c0,0,0,0,0,0L501.3,946c0,0,0,0,0,0
			c-3.8,1-6.6,1.8-8.2,2.4c0,0,0,0,0,0c0,0,0,0,0,0l-13.4,4.1l-0.4,8.5h500.3l0.1-9.5L971.5,949.5
			C971.5,949.6,971.5,949.6,971.5,949.5z M789.5,697.3c12.8,5.6,21.4,9.4,34,14.9c-10,19.8-18.9,37.6-27.8,55.4c-4-1.2-8-2.4-12-3.6
			C785.5,743.1,787.3,722.1,789.5,697.3z M666.8,704.6c1.5,19.6,2.8,35.6,4,51.7c-3.4,0.9-6.7,1.8-10.1,2.7
			c-7.7-13.7-15.3-27.5-24.6-44.1C646.6,711.4,654.3,708.8,666.8,704.6z M618.6,268.6c-14,0.1-28.1,0-42.1-0.1l41.8-62.5
			c50.7-10.1,102.3-15.5,155.9-10.4c-47.2-20.3-94.4-11.7-144.1-7.3l95.6-142.9l149.5,223.5c-28.8-1.4-57.7-2.8-86.6-3.1
			C731.9,265.2,675.2,268.5,618.6,268.6z M422.9,498.1l74.9-112c1.9,0.7,3.4,1.2,3.6,0.6c-1.1-0.3-2.3-0.6-3.4-0.9l7.6-11.3
			c28.6-0.7,57.8-2.9,83.6,5.4c92.7,29.6,184.8,23.5,280.1,5.9c28.2-5.2,56-5,83.5-1l23.2,34.7c-51.7-9.1-124.4-20.6-149.4-15.9
			c-24.5,4.6-101.1,45.3-101.1,45.3c-66.2-2-113.5-18.1-179.3-26.4c-0.3,2.6-0.7,5.2-1,7.8c32.7,7.4,65.4,14.8,98.1,22.2
			c0.1,3.9,62.1,10.5,62.2,14.4c-95.2,31.7-60.8,54.4-74.2,51.5C562.3,503.5,492.2,496.9,422.9,498.1z M917.7,434.5
			c27,4.5,54.5,9.4,65.8,11.3c3.5,0.4,7,0.6,10.5,0.7l37.9,56.6c-14,2.9-27.9,5.4-42.1,7.4c-5.1,1-10.7,1.5-16.3,2
			c-34.2,2.5-64-4.4-93.2-10.8c-8.4-2-20.2-3.4-32.6-4.9c-18.6-2.9-37.7-4.9-46.7-9.3c-8.3-3.4-11.7-7.8-11.2-12.7
			c1.7-8.3,13.5-12.7,37.7-14.7c15.1-0.5,35.4-0.5,56.7-1c3.3,0.5,7.3,0.5,10.1,0.5c-29.3-4.9-54.5-6.4-74.2-4.9
			c-23,1.5-36.5,6.9-39.3,15.7c-2.3,6.4,2.2,13.7,11.8,20.6l1.1,1l-1.7,0.5c-0.5,0.5-84.8,25.5-101.1,29.9c-3.4,1-7.3,2-10.7,2
			c-13.5,1.5-25.3-2.5-28.1-8.8c-1.7-3.5-1.7-9.4,11.8-16.5L784,442.3c3.3-2,7.8-3.4,11.8-5.9c13.5-5.8,27.5-12.2,41-13.2
			c5.6-0.5,10.7-0.5,16.9,0.5C863.8,424.7,890.2,429.1,917.7,434.5z"/>
		<path class="st2" d="M1104.2,611.3c-20-0.1-40.1-1.5-59.6-5.1c-73.6-13.6-146.1-23-219.9,0.6c-19.2,6.1-42,0.9-63.2,0.9
			c-16-0.8-68.2-6.5-68.2-6.5L807,540.8c2.2-1.3,4.3-2.6,6.4-4c7.3-4.8,12.3-13.4,12.3-22c0.8-0.2,1.5-0.4,2.3-0.6
			c1.3,0.3,2.5,0.5,3.6,0.8c29.1,6.4,58.9,13.3,93.2,10.8c5.6-0.6,11.2-1,16.3-2c3-0.4,6-0.9,9-1.4c0,0.5,92.8-3.1,92.8-2.6
			c0,0,0,0,0.1,0L1104.2,611.3z"/>
	</g>
</g>
</svg>
